<svg width="20" height="31" viewBox="0 0 20 31" fill="none" xmlns="http://www.w3.org/2000/svg">
<path d="M14.5419 11.6261C17.7817 13.28 20 16.6493 20 20.5369C20 26.0598 15.5227 30.5372 9.99971 30.5372C4.47677 30.5372 0 26.0598 0 20.5369C0 16.7406 2.11533 13.4383 5.23221 11.7444C6.64901 10.9749 8.27315 10.5372 9.99971 10.5372C11.6351 10.5372 13.1792 10.9298 14.5419 11.6261" fill="#FFAD67"/>
<path d="M9.99976 30.1278C7.43801 30.1278 5.02961 29.1302 3.21833 27.3187C1.4069 25.5073 0.409302 23.0987 0.409302 20.537C0.409302 17.0176 2.33237 13.7863 5.42774 12.104C6.82186 11.3468 8.40298 10.9465 9.99976 10.9465C11.5342 10.9465 12.9997 11.2978 14.3557 11.9906C15.9063 12.7822 17.2144 13.9822 18.1387 15.4609C19.0886 16.9804 19.5906 18.7356 19.5906 20.537C19.5906 23.0987 18.593 25.5073 16.7816 27.3187C14.9701 29.1302 12.5615 30.1278 9.99976 30.1278" fill="#F69C62"/>
<path d="M9.99976 28.9583C7.75041 28.9583 5.63581 28.0823 4.04533 26.4917C2.45484 24.9011 1.57898 22.7863 1.57898 20.5369C1.57898 17.4467 3.26735 14.6096 5.98536 13.1325C7.20947 12.4675 8.59774 12.116 9.99976 12.116C11.3472 12.116 12.6339 12.4244 13.8245 13.0328C15.186 13.7278 16.3346 14.7815 17.1463 16.0799C17.9803 17.4141 18.4211 18.9552 18.4211 20.5369C18.4211 22.7863 17.5451 24.901 15.9546 26.4917C14.364 28.0823 12.2491 28.9583 9.99976 28.9583Z" stroke="#BC7546" stroke-width="2.61099" stroke-miterlimit="10"/>
<path d="M9.99988 26.2473C8.47451 26.2473 7.04073 25.6534 5.96222 24.575C4.8837 23.4963 4.28979 22.0624 4.28979 20.537C4.28979 18.4417 5.43474 16.5178 7.27762 15.5162C8.10783 15.0653 9.0491 14.8271 9.99988 14.8271C10.9135 14.8271 11.786 15.0361 12.5934 15.4486C13.5165 15.9201 14.2954 16.6344 14.8458 17.5148C15.4113 18.4195 15.7103 19.4646 15.7103 20.537C15.7103 22.0624 15.1162 23.4963 14.0377 24.575C12.9592 25.6534 11.5251 26.2473 9.99988 26.2473V26.2473Z" stroke="#F69C62" stroke-width="1.865" stroke-miterlimit="10"/>
<path d="M9.99988 27.4904C8.14251 27.4904 6.39649 26.7671 5.08328 25.4537C3.77007 24.1403 3.04681 22.3944 3.04681 20.537C3.04681 17.9855 4.44094 15.6429 6.68517 14.4232C7.69594 13.8742 8.84206 13.5841 9.99988 13.5841C11.1123 13.5841 12.1748 13.8388 13.1577 14.341C14.282 14.915 15.2303 15.785 15.9005 16.8569C16.5892 17.9586 16.9531 19.2311 16.9531 20.537C16.9531 22.3942 16.2298 24.1403 14.9165 25.4537C13.6031 26.7671 11.8571 27.4904 9.99988 27.4904V27.4904Z" stroke="#BC7546" stroke-width="2.61099" stroke-miterlimit="10"/>
<path d="M13.053 10.1034V9.73382C13.053 9.62686 12.9663 9.54009 12.8592 9.54009H6.78138C6.67442 9.54009 6.58766 9.62686 6.58766 9.73382V10.1034C6.58766 10.211 6.67442 10.2977 6.78138 10.2977H12.8592C12.9663 10.2977 13.053 10.211 13.053 10.1034ZM14.0552 9.82688C14.3098 10.3946 14.4511 11.0059 14.4736 11.6262C13.111 10.9298 11.5669 10.5371 9.93162 10.5371C8.20491 10.5371 6.58093 10.9749 5.16412 11.7444C5.17144 11.0836 5.31513 10.4307 5.58552 9.82688L5.71165 9.54565C5.85241 9.23078 6.14534 9.01057 6.48728 8.96272L6.85966 8.91034C8.82355 8.63541 10.8171 8.63541 12.7815 8.91034L13.1533 8.96272C13.4952 9.01057 13.7881 9.23078 13.929 9.54565L14.0552 9.82688" fill="#F69C62"/>
<path d="M16.1682 4.30464e-05L12.7009 9.68268H10.7743L14.2315 0.00794482V4.30464e-05H16.1682" fill="#FF545F"/>
<path d="M14.2315 4.30464e-05V0.00794482L10.7743 9.68268H8.87201L12.3291 0.00794482V4.30464e-05H14.2315Z" fill="#62DADC"/>
<path d="M12.3291 4.30464e-05V0.00794482L8.87202 9.68268H6.92847L10.3958 4.30464e-05H12.3291Z" fill="#AC748C"/>
<path d="M19.3348 20.5373C19.3348 23.6909 16.7781 26.2473 13.6245 26.2473C10.4709 26.2473 7.91431 23.6909 7.91431 20.5373C7.91431 17.3835 10.4709 14.8271 13.6245 14.8271C16.7781 14.8271 19.3348 17.3835 19.3348 20.5373" fill="#F9C8A9"/>
<path d="M3.46051 4.30464e-05L6.92782 9.68268H8.8544L5.39718 0.00794482V4.30464e-05H3.46051" fill="#AC748C"/>
<path d="M5.39716 4.30464e-05V0.00794482L8.85437 9.68268H10.7567L7.29959 0.00794482V4.30464e-05H5.39716" fill="#62DADC"/>
<path d="M7.29968 4.30464e-05V0.00794482L10.7568 9.68268H12.7003L9.23299 4.30464e-05H7.29968Z" fill="#FF545F"/>
<path d="M18.9629 20.5373C18.9629 23.4855 16.5729 25.8755 13.6246 25.8755C10.6763 25.8755 8.28632 23.4855 8.28632 20.5373C8.28632 17.589 10.6763 15.1989 13.6246 15.1989C16.5729 15.1989 18.9629 17.589 18.9629 20.5373Z" fill="#FFAD67"/>
<path d="M17.6896 20.5372C17.6896 22.7822 15.8695 24.6021 13.6245 24.6021C11.3794 24.6021 9.55951 22.7822 9.55951 20.5372C9.55951 18.2921 11.3794 16.4722 13.6245 16.4722C15.8695 16.4722 17.6896 18.2921 17.6896 20.5372Z" fill="#BC7546"/>
<path d="M8.82743 18.7591C8.82743 18.7595 8.82758 18.7598 8.82758 18.7602C8.82728 18.785 8.82582 19.1399 8.91464 19.3756C9.00667 19.6201 8.92839 19.9997 8.92839 19.9997C8.92839 19.9997 8.67789 19.7142 8.66019 19.5054C8.63839 19.2542 8.82158 18.774 8.82743 18.7591Z" fill="#BC7546"/>
<path d="M8.88711 18.9662C8.95793 19.1209 9.0308 19.2448 9.09196 19.4293C9.12766 19.537 9.07484 19.8128 8.99437 19.927C8.96803 19.9792 8.92838 19.9997 8.92838 19.9997C8.92838 19.9997 9.00666 19.6201 8.91462 19.3756C8.82581 19.1399 8.82727 18.785 8.82756 18.7602C8.8302 18.7737 8.85024 18.8855 8.88711 18.9662Z" fill="#F9C8A9"/>
<path d="M9.66283 19.1024C9.66254 19.1027 9.66254 19.103 9.66224 19.1033C9.64571 19.1216 9.41028 19.3873 9.32118 19.623C9.22899 19.8674 8.91968 20.1008 8.91968 20.1008C8.91968 20.1008 8.91997 19.7211 9.04449 19.5525C9.19403 19.3494 9.64864 19.1096 9.66283 19.1024" fill="#BC7546"/>
<path d="M9.57094 19.2973C9.52207 19.4603 9.495 19.6014 9.41907 19.7805C9.37473 19.8849 9.15305 20.0572 9.01712 20.0898C8.96299 20.1116 8.91968 20.1008 8.91968 20.1008C8.91968 20.1008 9.22899 19.8674 9.32118 19.623C9.41028 19.3873 9.64571 19.1216 9.66224 19.1033C9.65522 19.1152 9.59655 19.2123 9.57094 19.2973" fill="#F9C8A9"/>
<path d="M8.60635 19.6286C8.60635 19.6289 8.6065 19.6292 8.60664 19.6295C8.60986 19.6541 8.66049 20.0054 8.78267 20.2257C8.90967 20.4541 8.88787 20.841 8.88787 20.841C8.88787 20.841 8.59816 20.5953 8.55016 20.3914C8.49178 20.146 8.60255 19.6441 8.60635 19.6286" fill="#BC7546"/>
<path d="M8.69565 19.8247C8.78841 19.9673 8.87855 20.0793 8.96605 20.2528C9.01726 20.3542 9.00541 20.6347 8.94234 20.7594C8.92405 20.8148 8.88791 20.841 8.88791 20.841C8.88791 20.841 8.90972 20.4541 8.78271 20.2257C8.66054 20.0054 8.60991 19.6541 8.60669 19.6295C8.61123 19.6427 8.64736 19.7503 8.69565 19.8247" fill="#F9C8A9"/>
<path d="M9.48322 19.8459C9.48293 19.8462 9.48293 19.8465 9.48264 19.8468C9.46903 19.8674 9.27501 20.1646 9.22146 20.4109C9.166 20.6662 8.89414 20.9423 8.89414 20.9423C8.89414 20.9423 8.83883 20.5667 8.93731 20.3817C9.05553 20.1589 9.47005 19.8551 9.48322 19.8459Z" fill="#BC7546"/>
<path d="M9.42077 20.0522C9.39633 20.2205 9.39019 20.3642 9.34117 20.5523C9.31278 20.6621 9.11862 20.865 8.98898 20.9171C8.93865 20.9467 8.89417 20.9423 8.89417 20.9423C8.89417 20.9423 9.16603 20.6662 9.22148 20.4108C9.27503 20.1646 9.46905 19.8674 9.48266 19.8468C9.47754 19.8597 9.43364 19.9644 9.42077 20.0522" fill="#F9C8A9"/>
<path d="M8.51526 20.5725C8.51541 20.5728 8.51555 20.573 8.5157 20.5734C8.52462 20.5965 8.65514 20.9265 8.82516 21.1126C9.00147 21.3053 9.06995 21.6867 9.06995 21.6867C9.06995 21.6867 8.73122 21.5148 8.63729 21.3275C8.52374 21.1023 8.51526 20.5885 8.51526 20.5725Z" fill="#BC7546"/>
<path d="M8.64752 20.7425C8.77087 20.8599 8.88455 20.9478 9.0098 21.0965C9.08296 21.1831 9.13652 21.4588 9.10403 21.5947C9.09906 21.6529 9.06994 21.6867 9.06994 21.6867C9.06994 21.6867 9.00146 21.3053 8.82515 21.1126C8.65513 20.9265 8.52461 20.5965 8.51569 20.5734C8.52315 20.585 8.58329 20.6814 8.64752 20.7425" fill="#F9C8A9"/>
<path d="M9.41853 20.5807C9.41838 20.5811 9.41838 20.5814 9.41823 20.5817C9.40975 20.605 9.28991 20.939 9.29474 21.191C9.29986 21.4522 9.0994 21.7839 9.0994 21.7839C9.0994 21.7839 8.95864 21.4311 9.01161 21.2284C9.07511 20.9842 9.40799 20.5928 9.41853 20.5807Z" fill="#BC7546"/>
<path d="M9.40558 20.7959C9.4208 20.9654 9.44817 21.1064 9.44407 21.3009C9.44187 21.4143 9.29994 21.6566 9.18596 21.7373C9.14382 21.7777 9.09949 21.7839 9.09949 21.7839C9.09949 21.7839 9.29995 21.4522 9.29482 21.191C9.29 20.939 9.40983 20.605 9.41832 20.5817C9.41627 20.5955 9.39783 20.7076 9.40558 20.7959" fill="#F9C8A9"/>
<path d="M8.62183 21.4576C8.62197 21.4581 8.62226 21.4581 8.62241 21.4585C8.63367 21.4805 8.79975 21.7942 8.98923 21.9604C9.18559 22.1326 9.29547 22.5042 9.29547 22.5042C9.29547 22.5042 8.94007 22.3705 8.82609 22.1948C8.6884 21.9833 8.62358 21.4736 8.62183 21.4576" fill="#BC7546"/>
<path d="M8.77218 21.6123C8.90753 21.7153 9.03014 21.7902 9.17105 21.9241C9.25328 22.0022 9.33668 22.2704 9.31941 22.409C9.32088 22.4674 9.29556 22.5042 9.29556 22.5042C9.29556 22.5042 9.18568 22.1326 8.98932 21.9604C8.79984 21.7942 8.63376 21.4805 8.6225 21.4585C8.63113 21.4692 8.70151 21.5584 8.77218 21.6123Z" fill="#F9C8A9"/>
<path d="M9.52052 21.3666C9.52037 21.367 9.52052 21.3673 9.52037 21.3678C9.51437 21.3918 9.432 21.7369 9.46448 21.9868C9.49828 22.2458 9.33542 22.5976 9.33542 22.5976C9.33542 22.5976 9.15677 22.2625 9.18721 22.0552C9.22349 21.8056 9.5113 21.3798 9.52052 21.3666" fill="#BC7546"/>
<path d="M9.53123 21.582C9.56488 21.7488 9.6076 21.8859 9.62501 22.0796C9.63511 22.1926 9.52084 22.4491 9.41622 22.5418C9.37876 22.5866 9.33545 22.5976 9.33545 22.5976C9.33545 22.5976 9.4983 22.2458 9.4645 21.9868C9.43202 21.7369 9.5144 21.3918 9.5204 21.3678C9.51981 21.3815 9.51381 21.4949 9.53123 21.582" fill="#F9C8A9"/>
<path d="M8.85687 22.3257C8.85717 22.3262 8.85746 22.3262 8.8576 22.3264C8.87282 22.3461 9.0942 22.6235 9.31119 22.7516C9.53608 22.8845 9.71298 23.2292 9.71298 23.2292C9.71298 23.2292 9.33885 23.1638 9.19428 23.0122C9.01987 22.8301 8.8617 22.3411 8.85687 22.3257" fill="#BC7546"/>
<path d="M9.03325 22.4498C9.18542 22.526 9.31974 22.5768 9.48303 22.6825C9.57843 22.7439 9.71012 22.9919 9.7189 23.1314C9.73104 23.1884 9.71304 23.2292 9.71304 23.2292C9.71304 23.2292 9.53615 22.8845 9.31125 22.7516C9.09426 22.6235 8.87288 22.3461 8.85767 22.3264C8.86835 22.3354 8.95394 22.41 9.03325 22.4498" fill="#F9C8A9"/>
<path d="M9.72327 22.0698C9.72327 22.0702 9.72342 22.0704 9.72342 22.0708C9.72195 22.0955 9.70498 22.4501 9.78326 22.6896C9.86462 22.9378 9.7698 23.3135 9.7698 23.3135C9.7698 23.3135 9.53203 23.0173 9.52355 22.8081C9.51272 22.556 9.71683 22.0844 9.72327 22.0698" fill="#BC7546"/>
<path d="M9.77379 22.2793C9.83773 22.4369 9.90503 22.5639 9.958 22.7509C9.98902 22.86 9.9242 23.1332 9.83875 23.2438C9.81022 23.2947 9.76969 23.3135 9.76969 23.3135C9.76969 23.3135 9.8645 22.9378 9.78315 22.6896C9.70487 22.4501 9.72184 22.0955 9.7233 22.0708C9.72535 22.0844 9.74043 22.1971 9.77379 22.2793" fill="#F9C8A9"/>
<path d="M9.22363 23.1218C9.22393 23.1221 9.22422 23.1221 9.22451 23.1224C9.24295 23.1389 9.50939 23.3734 9.7454 23.4616C9.99019 23.553 10.2247 23.8614 10.2247 23.8614C10.2247 23.8614 9.8449 23.8626 9.67605 23.7386C9.47237 23.5897 9.23095 23.1361 9.22363 23.1218" fill="#BC7546"/>
<path d="M9.41901 23.2131C9.58201 23.2614 9.72335 23.288 9.90259 23.3632C10.0072 23.4071 10.1802 23.6282 10.2134 23.764C10.2353 23.8181 10.2248 23.8615 10.2248 23.8615C10.2248 23.8615 9.99023 23.553 9.74544 23.4616C9.50943 23.3734 9.24298 23.1389 9.22455 23.1224C9.2364 23.1294 9.33385 23.1878 9.41901 23.2131Z" fill="#F9C8A9"/>
<path d="M10.0316 22.7181C10.0316 22.7186 10.0319 22.7187 10.0319 22.7191C10.0349 22.7437 10.0802 23.0958 10.1993 23.3177C10.3228 23.5481 10.2952 23.9345 10.2952 23.9345C10.2952 23.9345 10.0093 23.6846 9.9642 23.48C9.90962 23.2338 10.0278 22.7337 10.0316 22.7181" fill="#BC7546"/>
<path d="M10.1181 22.9155C10.2087 23.0595 10.2972 23.1727 10.3821 23.3476C10.4318 23.4497 10.4157 23.7301 10.3509 23.8539C10.3319 23.909 10.2951 23.9345 10.2951 23.9345C10.2951 23.9345 10.3228 23.5481 10.1993 23.3177C10.0802 23.0958 10.0348 22.7437 10.0319 22.7191C10.0363 22.7322 10.0708 22.8404 10.1181 22.9155" fill="#F9C8A9"/>
<path d="M9.82349 23.9166C9.82393 23.9168 9.82422 23.9168 9.82451 23.9169C9.84631 23.9285 10.1621 24.0909 10.4124 24.119C10.6721 24.148 10.9747 24.39 10.9747 24.39C10.9747 24.39 10.6066 24.4835 10.4126 24.4044C10.1787 24.3098 9.83417 23.9286 9.82349 23.9166" fill="#BC7546"/>
<path d="M10.0353 23.9575C10.2054 23.9647 10.3488 23.956 10.5409 23.9853C10.6531 24.0024 10.8748 24.1746 10.94 24.2983C10.9746 24.3452 10.9749 24.39 10.9749 24.39C10.9749 24.39 10.6723 24.148 10.4126 24.119C10.1622 24.0909 9.84645 23.9285 9.82465 23.9169C9.83796 23.9208 9.94667 23.9537 10.0353 23.9575" fill="#F9C8A9"/>
<path d="M10.5087 23.3281C10.5089 23.3284 10.5092 23.3286 10.5093 23.329C10.5181 23.3522 10.6479 23.6825 10.8175 23.8688C10.9933 24.0621 11.0609 24.4437 11.0609 24.4437C11.0609 24.4437 10.7226 24.2709 10.6291 24.0835C10.516 23.858 10.5089 23.3441 10.5087 23.3281" fill="#BC7546"/>
<path d="M10.6407 23.4986C10.7638 23.6161 10.8772 23.7043 11.0021 23.8533C11.0752 23.9401 11.128 24.2158 11.0953 24.3518C11.0902 24.4099 11.061 24.4437 11.061 24.4437C11.061 24.4437 10.9934 24.0621 10.8175 23.8688C10.6479 23.6825 10.5181 23.3522 10.5093 23.329C10.5168 23.3407 10.5766 23.4372 10.6407 23.4986" fill="#F9C8A9"/>
<path d="M10.4778 24.4858C10.4782 24.4861 10.4785 24.4859 10.4788 24.4862C10.501 24.4969 10.8224 24.6478 11.0737 24.6667C11.3342 24.6861 11.6454 24.917 11.6454 24.917C11.6454 24.917 11.2811 25.0239 11.0843 24.952C10.8471 24.8658 10.4889 24.4975 10.4778 24.4858" fill="#BC7546"/>
<path d="M10.6907 24.519C10.8609 24.5199 11.0038 24.5061 11.197 24.5284C11.3096 24.5414 11.5376 24.7054 11.6071 24.8266C11.6434 24.8724 11.6453 24.917 11.6453 24.917C11.6453 24.917 11.3341 24.6861 11.0736 24.6667C10.8223 24.6478 10.5009 24.4969 10.4787 24.4862C10.4922 24.4895 10.602 24.5184 10.6907 24.519" fill="#F9C8A9"/>
<path d="M11.1411 23.8729C11.1413 23.8732 11.1416 23.8733 11.1417 23.8737C11.1514 23.8964 11.293 24.222 11.4693 24.402C11.6521 24.5886 11.7334 24.9675 11.7334 24.9675C11.7334 24.9675 11.3891 24.8073 11.2887 24.6233C11.1676 24.4021 11.1417 23.8888 11.1411 23.8729Z" fill="#BC7546"/>
<path d="M11.2793 24.0383C11.4065 24.1513 11.5231 24.2354 11.6533 24.3797C11.7294 24.4639 11.7922 24.7375 11.7645 24.8744C11.7616 24.9328 11.7335 24.9675 11.7335 24.9675C11.7335 24.9675 11.6521 24.5886 11.4694 24.402C11.2931 24.222 11.1514 23.8964 11.1418 23.8737C11.1497 23.885 11.213 23.9794 11.2793 24.0383Z" fill="#F9C8A9"/>
<path d="M11.3184 25.0256C11.3189 25.0256 11.3192 25.0254 11.3196 25.0256C11.3439 25.0298 11.694 25.0885 11.941 25.0389C12.1972 24.9874 12.5591 25.1258 12.5591 25.1258C12.5591 25.1258 12.237 25.327 12.0282 25.3109C11.7765 25.2919 11.3322 25.0338 11.3184 25.0256" fill="#BC7546"/>
<path d="M11.5326 24.9999C11.6968 24.955 11.8306 24.9031 12.0228 24.8725C12.1347 24.8545 12.3984 24.9512 12.4982 25.0491C12.5453 25.0833 12.5592 25.1258 12.5592 25.1258C12.5592 25.1258 12.1973 24.9873 11.9411 25.0388C11.6941 25.0884 11.344 25.0298 11.3197 25.0255C11.3335 25.0251 11.447 25.0233 11.5326 24.9999" fill="#F9C8A9"/>
<path d="M12.3053 25.3699C12.3057 25.3699 12.3059 25.3698 12.3063 25.3698C12.331 25.3699 12.686 25.369 12.9213 25.2789C13.1652 25.1852 13.5452 25.2611 13.5452 25.2611C13.5452 25.2611 13.2613 25.5134 13.0527 25.5323C12.8016 25.5557 12.3202 25.3756 12.3053 25.3699" fill="#BC7546"/>
<path d="M12.5121 25.3089C12.6663 25.237 12.7898 25.1634 12.9738 25.101C13.0814 25.0646 13.3575 25.1157 13.4722 25.1956C13.5244 25.2215 13.5452 25.261 13.5452 25.261C13.5452 25.261 13.1652 25.1852 12.9213 25.2789C12.686 25.369 12.3311 25.3698 12.3063 25.3697C12.3199 25.3669 12.4316 25.3463 12.5121 25.3089" fill="#F9C8A9"/>
<path d="M11.792 24.2562C11.7923 24.2567 11.7926 24.2567 11.7929 24.257C11.8082 24.2763 12.0325 24.5515 12.2507 24.6774C12.4772 24.8078 12.6576 25.1507 12.6576 25.1507C12.6576 25.1507 12.2829 25.0892 12.1367 24.9391C11.9603 24.7589 11.797 24.2716 11.792 24.2562Z" fill="#BC7546"/>
<path d="M11.9696 24.3784C12.1226 24.453 12.2576 24.5025 12.4219 24.6062C12.5179 24.6668 12.6522 24.9134 12.6624 25.0528C12.6751 25.1097 12.6576 25.1507 12.6576 25.1507C12.6576 25.1507 12.4772 24.8078 12.2507 24.6774C12.0325 24.5515 11.8082 24.2763 11.7928 24.257C11.8034 24.2659 11.8899 24.3395 11.9696 24.3784" fill="#F9C8A9"/>
<path d="M12.6293 24.6188C12.6295 24.6191 12.6298 24.6191 12.6301 24.6194C12.6463 24.6336 12.8816 24.8367 13.0891 24.9119C13.304 24.9899 13.5119 25.2579 13.5119 25.2579C13.5119 25.2579 13.1795 25.262 13.0305 25.1551C12.851 25.0265 12.6358 24.6312 12.6293 24.6188" fill="#BC7546"/>
<path d="M12.8009 24.697C12.9441 24.738 13.0681 24.76 13.2257 24.8245C13.3176 24.8619 13.471 25.0541 13.501 25.1727C13.5208 25.2198 13.5119 25.2579 13.5119 25.2579C13.5119 25.2579 13.3039 24.9898 13.089 24.9118C12.8815 24.8366 12.6462 24.6335 12.63 24.6194C12.6405 24.6254 12.7263 24.6757 12.8009 24.697Z" fill="#F9C8A9"/>
<path d="M12.9967 25.5937C12.9969 25.5935 12.9968 25.5934 12.9971 25.5934C13.0086 25.5877 13.1726 25.506 13.2607 25.4105C13.352 25.3113 13.5451 25.2594 13.5451 25.2594C13.5451 25.2594 13.4717 25.4409 13.3795 25.4976C13.2687 25.5659 13.0049 25.593 12.9967 25.5937" fill="#BC7546"/>
<path d="M13.0783 25.518C13.1332 25.4496 13.1734 25.3873 13.2444 25.3163C13.2856 25.2747 13.4251 25.2351 13.4965 25.2458C13.5265 25.2458 13.5452 25.2594 13.5452 25.2594C13.5452 25.2594 13.3521 25.3113 13.2608 25.4105C13.1727 25.506 13.0087 25.5877 12.9973 25.5934C13.0028 25.589 13.0498 25.5538 13.0783 25.518" fill="#F9C8A9"/>
<path d="M18.4217 18.7591C18.4217 18.7595 18.4215 18.7598 18.4215 18.7602C18.4218 18.785 18.4233 19.1399 18.3345 19.3756C18.2424 19.6201 18.3207 19.9997 18.3207 19.9997C18.3207 19.9997 18.5712 19.7142 18.5889 19.5054C18.6106 19.2542 18.4275 18.774 18.4217 18.7591Z" fill="#BC7546"/>
<path d="M18.3621 18.9662C18.2913 19.1209 18.2185 19.2448 18.1573 19.4293C18.1216 19.537 18.1744 19.8128 18.2549 19.927C18.2812 19.9792 18.3209 19.9997 18.3209 19.9997C18.3209 19.9997 18.2426 19.6201 18.3346 19.3756C18.4234 19.1399 18.422 18.785 18.4217 18.7602C18.4191 18.7737 18.399 18.8855 18.3621 18.9662Z" fill="#F9C8A9"/>
<path d="M17.5864 19.1024C17.5867 19.1027 17.5867 19.103 17.587 19.1033C17.6035 19.1216 17.8389 19.3873 17.9279 19.623C18.0202 19.8674 18.3295 20.1008 18.3295 20.1008C18.3295 20.1008 18.3292 19.7211 18.2047 19.5525C18.0552 19.3494 17.6006 19.1096 17.5864 19.1024" fill="#BC7546"/>
<path d="M17.6782 19.2973C17.7271 19.4603 17.7542 19.6014 17.8301 19.7805C17.8744 19.8849 18.0961 20.0572 18.232 20.0898C18.2862 20.1116 18.3295 20.1008 18.3295 20.1008C18.3295 20.1008 18.0202 19.8674 17.9278 19.623C17.8389 19.3873 17.6034 19.1216 17.5869 19.1033C17.5938 19.1152 17.6526 19.2123 17.6782 19.2973" fill="#F9C8A9"/>
<path d="M18.6427 19.6286C18.6427 19.6289 18.6425 19.6292 18.6425 19.6295C18.6392 19.6541 18.5886 20.0054 18.4663 20.2257C18.3394 20.4541 18.3612 20.841 18.3612 20.841C18.3612 20.841 18.6508 20.5953 18.6989 20.3914C18.7573 20.146 18.6464 19.6441 18.6427 19.6286" fill="#BC7546"/>
<path d="M18.5535 19.8247C18.4607 19.9673 18.3705 20.0793 18.283 20.2528C18.2319 20.3542 18.2438 20.6347 18.3067 20.7594C18.3251 20.8148 18.3612 20.841 18.3612 20.841C18.3612 20.841 18.3394 20.4541 18.4663 20.2257C18.5886 20.0054 18.6392 19.6541 18.6425 19.6295C18.6379 19.6427 18.6018 19.7503 18.5535 19.8247" fill="#F9C8A9"/>
<path d="M17.766 19.8459C17.7663 19.8462 17.7663 19.8465 17.7664 19.8468C17.7802 19.8674 17.9742 20.1646 18.0278 20.4109C18.0832 20.6662 18.3551 20.9423 18.3551 20.9423C18.3551 20.9423 18.4104 20.5667 18.3118 20.3817C18.1935 20.1589 17.779 19.8551 17.766 19.8459Z" fill="#BC7546"/>
<path d="M17.8285 20.0522C17.8529 20.2205 17.859 20.3642 17.9079 20.5523C17.9364 20.6621 18.1306 20.865 18.2602 20.9171C18.3106 20.9467 18.3551 20.9423 18.3551 20.9423C18.3551 20.9423 18.0832 20.6662 18.0277 20.4108C17.9742 20.1646 17.7802 19.8674 17.7664 19.8468C17.7717 19.8597 17.8156 19.9644 17.8285 20.0522" fill="#F9C8A9"/>
<path d="M18.734 20.5725C18.7338 20.5728 18.7335 20.573 18.7335 20.5734C18.7246 20.5965 18.5941 20.9265 18.4241 21.1126C18.2476 21.3053 18.1793 21.6867 18.1793 21.6867C18.1793 21.6867 18.5178 21.5148 18.6119 21.3275C18.7255 21.1023 18.734 20.5885 18.734 20.5725Z" fill="#BC7546"/>
<path d="M18.6014 20.7425C18.4782 20.8599 18.3646 20.9478 18.2393 21.0965C18.1661 21.1831 18.1126 21.4588 18.1451 21.5947C18.1501 21.6529 18.1792 21.6867 18.1792 21.6867C18.1792 21.6867 18.2475 21.3053 18.424 21.1126C18.594 20.9265 18.7245 20.5965 18.7334 20.5734C18.7258 20.585 18.6657 20.6814 18.6014 20.7425Z" fill="#F9C8A9"/>
<path d="M17.8307 20.5807C17.8308 20.5811 17.8307 20.5814 17.831 20.5817C17.8395 20.605 17.9593 20.939 17.9545 21.191C17.9492 21.4522 18.1498 21.7839 18.1498 21.7839C18.1498 21.7839 18.2906 21.4311 18.2376 21.2284C18.1741 20.9842 17.8412 20.5928 17.8307 20.5807Z" fill="#BC7546"/>
<path d="M17.8435 20.7959C17.8284 20.9654 17.8011 21.1064 17.8052 21.3009C17.8074 21.4143 17.9491 21.6566 18.0633 21.7373C18.1054 21.7777 18.1497 21.7839 18.1497 21.7839C18.1497 21.7839 17.9491 21.4522 17.9544 21.191C17.9592 20.939 17.8394 20.605 17.8309 20.5817C17.8328 20.5955 17.8514 20.7076 17.8435 20.7959Z" fill="#F9C8A9"/>
<path d="M18.6273 21.4576C18.6272 21.4581 18.6269 21.4581 18.6267 21.4585C18.6153 21.4805 18.4494 21.7942 18.2599 21.9604C18.0634 22.1326 17.9537 22.5042 17.9537 22.5042C17.9537 22.5042 18.3091 22.3705 18.4231 22.1948C18.5608 21.9833 18.6256 21.4736 18.6273 21.4576" fill="#BC7546"/>
<path d="M18.4771 21.6123C18.3417 21.7153 18.2191 21.7902 18.0782 21.9241C17.996 22.0022 17.9126 22.2704 17.9297 22.409C17.9284 22.4674 17.9537 22.5042 17.9537 22.5042C17.9537 22.5042 18.0634 22.1326 18.2599 21.9604C18.4494 21.7942 18.6153 21.4805 18.6267 21.4585C18.618 21.4692 18.5476 21.5584 18.4771 21.6123" fill="#F9C8A9"/>
<path d="M17.7287 21.3666C17.7288 21.367 17.7287 21.3673 17.7288 21.3678C17.7348 21.3918 17.8172 21.7369 17.7847 21.9868C17.7508 22.2458 17.9136 22.5976 17.9136 22.5976C17.9136 22.5976 18.0924 22.2625 18.062 22.0552C18.0257 21.8056 17.7379 21.3798 17.7287 21.3666Z" fill="#BC7546"/>
<path d="M17.718 21.582C17.6842 21.7488 17.6416 21.8859 17.6242 22.0796C17.6139 22.1926 17.7284 22.4491 17.8328 22.5418C17.8703 22.5866 17.9136 22.5976 17.9136 22.5976C17.9136 22.5976 17.7507 22.2458 17.7847 21.9868C17.8172 21.7369 17.7348 21.3918 17.7288 21.3678C17.7294 21.3815 17.7354 21.4949 17.718 21.582" fill="#F9C8A9"/>
<path d="M18.392 22.3257C18.3919 22.3262 18.3916 22.3262 18.3913 22.3264C18.3761 22.3461 18.1549 22.6235 17.9379 22.7516C17.7128 22.8845 17.5361 23.2292 17.5361 23.2292C17.5361 23.2292 17.9101 23.1638 18.0548 23.0122C18.2292 22.8301 18.3874 22.3411 18.392 22.3257Z" fill="#BC7546"/>
<path d="M18.216 22.4498C18.0638 22.526 17.9293 22.5768 17.7661 22.6825C17.6708 22.7439 17.5391 22.9919 17.5303 23.1314C17.5182 23.1884 17.5362 23.2292 17.5362 23.2292C17.5362 23.2292 17.7129 22.8845 17.938 22.7516C18.155 22.6235 18.3762 22.3461 18.3914 22.3264C18.3809 22.3354 18.2953 22.41 18.216 22.4498" fill="#F9C8A9"/>
<path d="M17.526 22.0698C17.5261 22.0702 17.5258 22.0704 17.526 22.0708C17.5274 22.0955 17.5444 22.4501 17.466 22.6896C17.3848 22.9378 17.4796 23.3135 17.4796 23.3135C17.4796 23.3135 17.7174 23.0173 17.7258 22.8081C17.7365 22.556 17.5326 22.0844 17.526 22.0698Z" fill="#BC7546"/>
<path d="M17.4753 22.2793C17.4114 22.4369 17.3439 22.5639 17.2911 22.7509C17.2601 22.86 17.3249 23.1332 17.4103 23.2438C17.4389 23.2947 17.4794 23.3135 17.4794 23.3135C17.4794 23.3135 17.3846 22.9378 17.4658 22.6896C17.5442 22.4501 17.5272 22.0955 17.5258 22.0708C17.5237 22.0844 17.5087 22.1971 17.4753 22.2793" fill="#F9C8A9"/>
<path d="M18.0255 23.1218C18.0252 23.1221 18.0249 23.1221 18.0246 23.1224C18.0062 23.1389 17.7398 23.3734 17.5038 23.4616C17.259 23.553 17.0244 23.8614 17.0244 23.8614C17.0244 23.8614 17.4043 23.8626 17.5731 23.7386C17.7768 23.5897 18.0182 23.1361 18.0255 23.1218" fill="#BC7546"/>
<path d="M17.8302 23.2131C17.6671 23.2614 17.5259 23.288 17.3466 23.3632C17.242 23.4071 17.0689 23.6282 17.0359 23.764C17.0139 23.8181 17.0244 23.8615 17.0244 23.8615C17.0244 23.8615 17.259 23.553 17.5038 23.4616C17.7398 23.3734 18.0062 23.1389 18.0247 23.1224C18.0127 23.1294 17.9154 23.1878 17.8302 23.2131Z" fill="#F9C8A9"/>
<path d="M17.2175 22.7181C17.2175 22.7186 17.2172 22.7187 17.2172 22.7191C17.2142 22.7437 17.1689 23.0958 17.0498 23.3177C16.9263 23.5481 16.9538 23.9345 16.9538 23.9345C16.9538 23.9345 17.2398 23.6846 17.2848 23.48C17.3395 23.2338 17.2213 22.7337 17.2175 22.7181Z" fill="#BC7546"/>
<path d="M17.1311 22.9155C17.0405 23.0595 16.9519 23.1727 16.867 23.3476C16.8174 23.4497 16.8334 23.7301 16.8982 23.8539C16.9173 23.909 16.9539 23.9345 16.9539 23.9345C16.9539 23.9345 16.9264 23.5481 17.0499 23.3177C17.169 23.0958 17.2144 22.7437 17.2173 22.7191C17.2129 22.7322 17.1782 22.8404 17.1311 22.9155Z" fill="#F9C8A9"/>
<path d="M17.4257 23.9166C17.4253 23.9168 17.425 23.9168 17.4247 23.9169C17.4027 23.9285 17.0871 24.0909 16.8368 24.119C16.5771 24.148 16.2745 24.39 16.2745 24.39C16.2745 24.39 16.6425 24.4835 16.8366 24.4044C17.0703 24.3098 17.415 23.9286 17.4257 23.9166" fill="#BC7546"/>
<path d="M17.214 23.9575C17.044 23.9647 16.9006 23.956 16.7083 23.9853C16.5962 24.0024 16.3746 24.1746 16.3093 24.2983C16.2748 24.3452 16.2745 24.39 16.2745 24.39C16.2745 24.39 16.5771 24.148 16.8368 24.119C17.0871 24.0909 17.4027 23.9285 17.4247 23.9169C17.4114 23.9208 17.3027 23.9537 17.214 23.9575" fill="#F9C8A9"/>
<path d="M16.7404 23.3281C16.7402 23.3284 16.7401 23.3286 16.7399 23.329C16.7311 23.3522 16.6012 23.6825 16.4318 23.8688C16.2557 24.0621 16.1883 24.4437 16.1883 24.4437C16.1883 24.4437 16.5266 24.2709 16.6201 24.0835C16.7332 23.858 16.7404 23.3441 16.7404 23.3281" fill="#BC7546"/>
<path d="M16.6085 23.4986C16.4855 23.6161 16.3721 23.7043 16.2471 23.8533C16.1741 23.9401 16.1213 24.2158 16.1539 24.3518C16.159 24.4099 16.1883 24.4437 16.1883 24.4437C16.1883 24.4437 16.2557 24.0621 16.4318 23.8688C16.6012 23.6825 16.7311 23.3522 16.7399 23.329C16.7324 23.3407 16.6726 23.4372 16.6085 23.4986" fill="#F9C8A9"/>
<path d="M16.7714 24.4858C16.7711 24.4861 16.7708 24.4859 16.7705 24.4862C16.7482 24.4969 16.4268 24.6478 16.1756 24.6667C15.9152 24.6861 15.6039 24.917 15.6039 24.917C15.6039 24.917 15.9683 25.0239 16.1651 24.952C16.4021 24.8658 16.7604 24.4975 16.7714 24.4858Z" fill="#BC7546"/>
<path d="M16.5585 24.519C16.3884 24.5199 16.2453 24.5061 16.0523 24.5284C15.9394 24.5414 15.7116 24.7054 15.642 24.8266C15.6058 24.8724 15.6039 24.917 15.6039 24.917C15.6039 24.917 15.9152 24.6861 16.1756 24.6667C16.4268 24.6478 16.7482 24.4969 16.7705 24.4862C16.7571 24.4895 16.6472 24.5184 16.5585 24.519" fill="#F9C8A9"/>
<path d="M16.108 23.8729C16.1079 23.8732 16.1076 23.8733 16.1075 23.8737C16.0978 23.8964 15.956 24.222 15.7799 24.402C15.5971 24.5886 15.5157 24.9675 15.5157 24.9675C15.5157 24.9675 15.86 24.8073 15.9603 24.6233C16.0816 24.4021 16.1075 23.8888 16.108 23.8729Z" fill="#BC7546"/>
<path d="M15.9699 24.0383C15.8427 24.1513 15.7261 24.2354 15.5959 24.3797C15.5196 24.4639 15.4569 24.7375 15.4847 24.8744C15.4876 24.9328 15.5157 24.9675 15.5157 24.9675C15.5157 24.9675 15.5971 24.5886 15.7798 24.402C15.956 24.222 16.0978 23.8964 16.1074 23.8737C16.0995 23.885 16.0362 23.9794 15.9699 24.0383Z" fill="#F9C8A9"/>
<path d="M15.9306 25.0256C15.9303 25.0256 15.93 25.0254 15.9296 25.0256C15.9053 25.0298 15.5552 25.0885 15.3082 25.0389C15.052 24.9874 14.6901 25.1258 14.6901 25.1258C14.6901 25.1258 15.0122 25.327 15.221 25.3109C15.4725 25.2919 15.9169 25.0338 15.9306 25.0256" fill="#BC7546"/>
<path d="M15.7165 24.9999C15.5525 24.955 15.4185 24.9031 15.2265 24.8725C15.1146 24.8545 14.8509 24.9512 14.7511 25.0491C14.7039 25.0833 14.6901 25.1258 14.6901 25.1258C14.6901 25.1258 15.052 24.9873 15.3082 25.0388C15.5552 25.0884 15.9053 25.0298 15.9296 25.0255C15.9158 25.0251 15.8023 25.0233 15.7165 24.9999" fill="#F9C8A9"/>
<path d="M15.457 24.2562C15.4569 24.2567 15.4566 24.2567 15.4563 24.257C15.4409 24.2763 15.2166 24.5515 14.9983 24.6774C14.772 24.8078 14.5916 25.1507 14.5916 25.1507C14.5916 25.1507 14.9663 25.0892 15.1124 24.9391C15.2888 24.7589 15.4522 24.2716 15.457 24.2562" fill="#BC7546"/>
<path d="M15.2797 24.3784C15.1266 24.453 14.9917 24.5025 14.8274 24.6062C14.7314 24.6668 14.5971 24.9134 14.5868 25.0528C14.5741 25.1097 14.5917 25.1507 14.5917 25.1507C14.5917 25.1507 14.7721 24.8078 14.9984 24.6774C15.2167 24.5515 15.4411 24.2763 15.4564 24.257C15.4457 24.2659 15.3594 24.3395 15.2797 24.3784" fill="#F9C8A9"/>
<path d="M15.0778 25.3679C15.0775 25.3679 15.0772 25.3678 15.0767 25.3678C15.052 25.3678 14.6971 25.3646 14.4625 25.2727C14.2192 25.1774 13.8387 25.2506 13.8387 25.2506C13.8387 25.2506 14.1207 25.5049 14.3294 25.5252C14.5803 25.5504 15.0628 25.3737 15.0778 25.3679Z" fill="#BC7546"/>
<path d="M14.8715 25.3056C14.7178 25.2326 14.5949 25.1582 14.4111 25.0947C14.3039 25.0575 14.0275 25.1066 13.9122 25.1856C13.8598 25.2113 13.8387 25.2506 13.8387 25.2506C13.8387 25.2506 14.2192 25.1775 14.4625 25.2727C14.6971 25.3646 15.052 25.3678 15.0767 25.3678C15.0633 25.365 14.9516 25.3435 14.8715 25.3056" fill="#F9C8A9"/>
<path d="M14.6198 24.6188C14.6195 24.6191 14.6194 24.6191 14.6191 24.6194C14.6028 24.6336 14.3675 24.8367 14.1601 24.9119C13.945 24.9899 13.7371 25.2579 13.7371 25.2579C13.7371 25.2579 14.0696 25.262 14.2186 25.1551C14.3981 25.0265 14.6134 24.6312 14.6198 24.6188" fill="#BC7546"/>
<path d="M14.4481 24.697C14.3049 24.738 14.1811 24.76 14.0235 24.8245C13.9315 24.8619 13.7781 25.0541 13.748 25.1727C13.7283 25.2198 13.7372 25.2579 13.7372 25.2579C13.7372 25.2579 13.9451 24.9898 14.1602 24.9118C14.3677 24.8366 14.6029 24.6335 14.6192 24.6194C14.6087 24.6254 14.5229 24.6757 14.4481 24.697Z" fill="#F9C8A9"/>
<path d="M14.2524 25.5937C14.2523 25.5935 14.2523 25.5934 14.252 25.5934C14.2406 25.5877 14.0766 25.506 13.9885 25.4105C13.897 25.3113 13.704 25.2594 13.704 25.2594C13.704 25.2594 13.7775 25.4409 13.8697 25.4976C13.9804 25.5659 14.2442 25.593 14.2524 25.5937" fill="#BC7546"/>
<path d="M14.1708 25.518C14.1159 25.4496 14.0758 25.3873 14.0049 25.3163C13.9635 25.2747 13.8242 25.2351 13.7528 25.2458C13.7226 25.2458 13.704 25.2594 13.704 25.2594C13.704 25.2594 13.897 25.3113 13.9885 25.4105C14.0766 25.506 14.2406 25.5877 14.252 25.5934C14.2464 25.589 14.1995 25.5538 14.1708 25.518" fill="#F9C8A9"/>
<path d="M11.2246 13.1644C8.55748 13.7033 6.53331 15.2943 5.38895 17.2238C4.44622 18.8115 4.31249 20.0882 4.71106 21.6022C6.63676 29.234 9.3713 25.2222 13.0455 28.9409C13.077 28.9735 13.072 29.0148 13.0459 29.0394L12.7665 29.3019C12.7409 29.326 12.6995 29.3277 12.6717 29.299C10.4061 27.0305 8.64864 27.8939 6.84643 26.6364C5.31652 25.5557 4.65428 23.2988 4.23698 21.4211C3.83022 19.5804 4.38228 17.9368 5.554 16.3919C5.62408 16.2963 5.84532 16.0335 5.8819 15.9925C7.31933 14.427 8.99804 13.4201 11.2246 13.1644" fill="#BC7546"/>
<path d="M3.34695 15.3233C3.3468 15.3247 3.34724 15.3254 3.34695 15.3266C3.33451 15.4032 3.16698 16.5049 3.33407 17.2779C3.50761 18.0794 3.09016 19.2219 3.09016 19.2219C3.09016 19.2219 2.44343 18.2205 2.48455 17.5641C2.53254 16.7737 3.32178 15.3668 3.34695 15.3233" fill="#BC7546"/>
<path d="M3.43686 15.9939C3.58581 16.5068 3.7551 16.925 3.86001 17.5262C3.92147 17.8769 3.63073 18.7089 3.32815 19.0265C3.22265 19.1764 3.09009 19.2219 3.09009 19.2219C3.09009 19.2219 3.50753 18.0794 3.334 17.2779C3.1669 16.5049 3.33444 15.4032 3.34688 15.3266C3.34878 15.37 3.35961 15.7263 3.43686 15.9939" fill="#F9C8A9"/>
<path d="M5.03241 16.6542C5.03182 16.6554 5.03226 16.6561 5.03167 16.6575C5.00578 16.7306 4.64539 17.7848 4.67261 18.5754C4.70114 19.3949 4.08748 20.4451 4.08748 20.4451C4.08748 20.4451 3.62892 19.3449 3.78592 18.7062C3.97335 17.9369 4.99978 16.6924 5.03241 16.6542Z" fill="#BC7546"/>
<path d="M5.00181 17.3301C5.05741 17.8612 5.14974 18.3028 5.14623 18.9131C5.14447 19.2691 4.71064 20.0364 4.3564 20.2952C4.22603 20.4239 4.08746 20.4451 4.08746 20.4451C4.08746 20.4451 4.70112 19.3949 4.67259 18.5754C4.64538 17.7848 5.00576 16.7306 5.03166 16.6575C5.02595 16.7005 4.97328 17.0531 5.00181 17.3301" fill="#F9C8A9"/>
<path d="M1.67212 17.4274C1.67256 17.4284 1.67329 17.4287 1.67373 17.4297C1.70197 17.4894 2.11634 18.342 2.60666 18.8031C3.11526 19.2808 3.37439 20.2828 3.37439 20.2828C3.37439 20.2828 2.4378 19.8934 2.1497 19.4136C1.80176 18.8367 1.67548 17.4699 1.67212 17.4274" fill="#BC7546"/>
<path d="M2.05884 17.8537C2.41074 18.1411 2.73118 18.3524 3.09492 18.723C3.30738 18.939 3.50535 19.6624 3.44667 20.031C3.44521 20.1869 3.37424 20.2828 3.37424 20.2828C3.37424 20.2828 3.11512 19.2808 2.60651 18.8031C2.1162 18.342 1.70182 17.4894 1.67358 17.4297C1.69582 17.4591 1.87536 17.7036 2.05884 17.8537" fill="#F9C8A9"/>
<path d="M1.37939 19.8492C1.37998 19.8501 1.38086 19.8503 1.38159 19.8513C1.42549 19.9053 2.06387 20.6754 2.68207 21.0249C3.32309 21.387 3.83974 22.3491 3.83974 22.3491C3.83974 22.3491 2.7823 22.1846 2.36675 21.7653C1.86546 21.2612 1.39344 19.8921 1.37939 19.8492" fill="#BC7546"/>
<path d="M1.88286 20.1893C2.31567 20.3956 2.69697 20.5318 3.1627 20.8204C3.43456 20.9886 3.8188 21.6803 3.85113 22.0728C3.88859 22.2329 3.83987 22.3491 3.83987 22.3491C3.83987 22.3491 3.32322 21.387 2.68219 21.0249C2.064 20.6754 1.42561 19.9053 1.38171 19.8513C1.41186 19.8757 1.65723 20.0814 1.88286 20.1893" fill="#F9C8A9"/>
<path d="M3.6401 18.8999C3.6401 18.9013 3.64083 18.902 3.64083 18.9033C3.6461 18.9835 3.73316 20.135 4.08198 20.8767C4.44383 21.6458 4.28815 22.8966 4.28815 22.8966C4.28815 22.8966 3.40204 22.0358 3.29069 21.3634C3.1552 20.5541 3.62474 18.9497 3.6401 18.8999" fill="#BC7546"/>
<path d="M3.88719 19.5562C4.157 20.0395 4.4252 20.4224 4.67102 21.005C4.81485 21.3449 4.71491 22.2528 4.48314 22.6439C4.41159 22.8197 4.28824 22.8966 4.28824 22.8966C4.28824 22.8966 4.44393 21.6458 4.08208 20.8767C3.73326 20.135 3.6462 18.9835 3.64093 18.9033C3.65293 18.9466 3.74672 19.3039 3.88719 19.5562" fill="#F9C8A9"/>
<path d="M1.47717 23.6281C1.47849 23.6286 1.47937 23.6282 1.48054 23.6288C1.55633 23.6557 2.64802 24.0319 3.46725 24.0057C4.31663 23.9782 5.40349 24.6167 5.40349 24.6167C5.40349 24.6167 4.26205 25.0892 3.60055 24.925C2.80384 24.7286 1.51683 23.6618 1.47717 23.6281" fill="#BC7546"/>
<path d="M2.17765 23.6615C2.72825 23.6051 3.18608 23.5106 3.81847 23.5157C4.18749 23.5184 4.98156 23.9699 5.24888 24.3376C5.38188 24.4731 5.40354 24.6168 5.40354 24.6168C5.40354 24.6168 4.31668 23.9782 3.46731 24.0057C2.64807 24.0319 1.55638 23.6558 1.48059 23.6288C1.52522 23.6348 1.89043 23.6904 2.17765 23.6615" fill="#F9C8A9"/>
<path d="M3.81464 22.4255C3.81522 22.4267 3.81624 22.427 3.81683 22.4281C3.85751 22.4975 4.452 23.4875 5.09639 23.994C5.76462 24.519 6.18675 25.7068 6.18675 25.7068C6.18675 25.7068 5.0086 25.3349 4.60754 24.7838C4.12337 24.1215 3.82327 22.4769 3.81464 22.4255Z" fill="#BC7546"/>
<path d="M4.32983 22.9013C4.78766 23.2121 5.19925 23.4339 5.68035 23.8444C5.96128 24.0837 6.27923 24.94 6.24763 25.3934C6.2624 25.5828 6.18676 25.7068 6.18676 25.7068C6.18676 25.7068 5.76463 24.519 5.09639 23.994C4.452 23.4875 3.85751 22.4975 3.81683 22.4281C3.84698 22.4615 4.09118 22.7387 4.32983 22.9013" fill="#F9C8A9"/>
<path d="M6.38635 22.1773C6.3865 22.1788 6.38708 22.1794 6.38723 22.1807C6.39352 22.2609 6.49594 23.4111 6.85442 24.1481C7.22637 24.9123 7.08722 26.1651 7.08722 26.1651C7.08722 26.1651 6.18984 25.3162 6.06972 24.6453C5.9234 23.8379 6.37172 22.2274 6.38635 22.1773" fill="#BC7546"/>
<path d="M6.64216 22.8304C6.91826 23.31 7.19158 23.6893 7.44515 24.2685C7.59337 24.6065 7.50544 25.5157 7.27894 25.9099C7.20958 26.0867 7.08726 26.1651 7.08726 26.1651C7.08726 26.1651 7.22641 24.9123 6.85447 24.1481C6.49599 23.4111 6.39356 22.2609 6.38727 22.1807C6.39985 22.2239 6.49833 22.58 6.64216 22.8304" fill="#F9C8A9"/>
<path d="M8.13977 23.2561C8.13991 23.2574 8.1405 23.2581 8.1405 23.2594C8.14694 23.3396 8.24921 24.4896 8.60784 25.2268C8.97978 25.9909 8.84063 27.2438 8.84063 27.2438C8.84063 27.2438 7.94326 26.3947 7.82313 25.7239C7.67682 24.9165 8.12513 23.3059 8.13977 23.2561Z" fill="#BC7546"/>
<path d="M8.3956 23.9091C8.6717 24.3885 8.94502 24.7678 9.19845 25.3472C9.34682 25.6852 9.25888 26.5943 9.03238 26.9885C8.96302 27.1652 8.8407 27.2438 8.8407 27.2438C8.8407 27.2438 8.97985 25.9909 8.6079 25.2268C8.24928 24.4896 8.147 23.3396 8.14056 23.2594C8.15329 23.3026 8.25177 23.6585 8.3956 23.9091" fill="#F9C8A9"/>
<path d="M2.88678 26.2649C2.8881 26.2652 2.88897 26.2647 2.89029 26.265C2.97325 26.2798 4.16619 26.4804 5.00825 26.3122C5.88119 26.1374 7.11422 26.6101 7.11422 26.6101C7.11422 26.6101 6.01624 27.295 5.3044 27.2392C4.44727 27.1737 2.93346 26.293 2.88678 26.2649" fill="#BC7546"/>
<path d="M3.61635 26.1786C4.17558 26.0257 4.63224 25.849 5.28658 25.7453C5.66847 25.6846 6.56672 26.0144 6.90633 26.3483C7.06713 26.4652 7.11425 26.6101 7.11425 26.6101C7.11425 26.6101 5.88122 26.1375 5.00828 26.3122C4.16622 26.4805 2.97328 26.2798 2.89032 26.265C2.93743 26.2637 3.32445 26.258 3.61635 26.1786Z" fill="#F9C8A9"/>
<path d="M6.38727 29.0249C6.38844 29.0246 6.38873 29.0239 6.3899 29.0236C6.45692 28.9994 7.41618 28.6436 7.96254 28.1651C8.52894 27.6689 9.63232 27.4954 9.63232 27.4954C9.63232 27.4954 9.11597 28.4605 8.57064 28.72C7.91455 29.0332 6.43336 29.0258 6.38727 29.0249Z" fill="#BC7546"/>
<path d="M6.88576 28.6541C7.23122 28.3061 7.49167 27.9839 7.9277 27.632C8.182 27.4264 8.97973 27.2895 9.36938 27.3912C9.53662 27.4092 9.63231 27.4954 9.63231 27.4954C9.63231 27.4954 8.52892 27.6689 7.96252 28.165C7.41617 28.6436 6.45691 28.9994 6.38989 29.0235C6.42384 29.0026 6.70521 28.8354 6.88576 28.6541Z" fill="#F9C8A9"/>
<path d="M12.2971 11.5553C12.296 11.5556 12.2956 11.5564 12.2946 11.5568C12.2309 11.5824 11.322 11.959 10.8141 12.4387C10.2877 12.936 9.23358 13.1426 9.23358 13.1426C9.23358 13.1426 9.69492 12.1964 10.2097 11.9274C10.8289 11.6026 12.2527 11.5562 12.2971 11.5553" fill="#BC7546"/>
<path d="M11.8313 11.9298C11.5119 12.2767 11.2733 12.5957 10.8669 12.9496C10.6299 13.1564 9.86831 13.3169 9.48993 13.2334C9.32854 13.2221 9.23358 13.1426 9.23358 13.1426C9.23358 13.1426 10.2877 12.936 10.8141 12.4387C11.322 11.9591 12.2309 11.5824 12.2946 11.5568C12.2627 11.5781 11.9983 11.7491 11.8313 11.9298" fill="#F9C8A9"/>
<path d="M10.0893 11.0349C10.0887 11.0358 10.0888 11.0366 10.0881 11.0375C10.0511 11.0952 9.52742 11.9283 9.39061 12.6132C9.24898 13.3234 8.50861 14.1017 8.50861 14.1017C8.50861 14.1017 8.33756 13.063 8.60181 12.5459C8.91903 11.9226 10.0536 11.0612 10.0893 11.0349" fill="#BC7546"/>
<path d="M9.92599 11.6097C9.86615 12.0776 9.85591 12.4757 9.72919 12.9995C9.65545 13.3053 9.12709 13.8767 8.77008 14.0274C8.63195 14.1116 8.50861 14.1018 8.50861 14.1018C8.50861 14.1018 9.24897 13.3235 9.39061 12.6133C9.52742 11.9283 10.0511 11.0952 10.0881 11.0376C10.0744 11.0734 9.9576 11.3658 9.92599 11.6097" fill="#F9C8A9"/>
<path d="M8.31948 11.8566C8.31919 11.8574 8.31948 11.858 8.31919 11.8589C8.30368 11.9119 8.08712 12.6751 8.13643 13.2359C8.18764 13.8175 7.79112 14.5873 7.79112 14.5873C7.79112 14.5873 7.42357 13.8224 7.51092 13.3625C7.61525 12.8085 8.29797 11.8851 8.31948 11.8566" fill="#BC7546"/>
<path d="M8.3235 12.3382C8.38306 12.7138 8.46543 13.0242 8.48592 13.4582C8.49821 13.7113 8.21874 14.2732 7.97673 14.4705C7.88894 14.567 7.7912 14.5873 7.7912 14.5873C7.7912 14.5873 8.18772 13.8175 8.13651 13.2359C8.0872 12.6751 8.30375 11.9119 8.31926 11.8589C8.31677 11.8898 8.29263 12.1423 8.3235 12.3382" fill="#F9C8A9"/>
<path d="M11.9159 13.7039C11.9148 13.704 11.9145 13.7046 11.9135 13.7049C11.8557 13.7197 11.0274 13.9415 10.5339 14.2978C10.0225 14.6674 9.08826 14.7256 9.08826 14.7256C9.08826 14.7256 9.59467 13.9608 10.0702 13.7871C10.6422 13.5772 11.8774 13.6995 11.9159 13.7039" fill="#BC7546"/>
<path d="M11.4709 13.9743C11.1553 14.2375 10.9127 14.4858 10.5213 14.7452C10.2929 14.8968 9.61661 14.9486 9.29939 14.8332C9.16127 14.8051 9.08826 14.7256 9.08826 14.7256C9.08826 14.7256 10.0225 14.6674 10.5339 14.2978C11.0274 13.9415 11.8557 13.7197 11.9135 13.7049C11.8835 13.7195 11.6357 13.8372 11.4709 13.9743" fill="#F9C8A9"/>
<path d="M9.38727 13.1928C9.38654 13.1937 9.38654 13.1944 9.38581 13.1951C9.34601 13.2469 8.7818 13.9965 8.59685 14.6361C8.40532 15.2995 7.63964 15.9794 7.63964 15.9794C7.63964 15.9794 7.56048 14.9789 7.85312 14.5089C8.20428 13.9424 9.35113 13.2149 9.38727 13.1928Z" fill="#BC7546"/>
<path d="M9.18597 13.7257C9.09145 14.1654 9.04989 14.5427 8.88748 15.0303C8.79296 15.3147 8.24514 15.8153 7.89398 15.9297C7.756 15.9986 7.63953 15.9794 7.63953 15.9794C7.63953 15.9794 8.40521 15.2995 8.59674 14.6361C8.78169 13.9965 9.3459 13.2469 9.38569 13.1951C9.36989 13.228 9.23542 13.4965 9.18597 13.7257" fill="#F9C8A9"/>
<path d="M9.88305 15.3816C9.88203 15.3818 9.88173 15.3826 9.88071 15.383C9.82101 15.4098 8.969 15.8022 8.50297 16.2778C8.01983 16.771 7.02325 17.0067 7.02325 17.0067C7.02325 17.0067 7.42783 16.0883 7.90834 15.813C8.48615 15.4808 9.84076 15.3839 9.88305 15.3816Z" fill="#BC7546"/>
<path d="M9.45317 15.7554C9.1617 16.0977 8.94617 16.4103 8.57204 16.7625C8.35402 16.9683 7.63443 17.1493 7.27097 17.0837C7.11675 17.0789 7.02325 17.0067 7.02325 17.0067C7.02325 17.0067 8.01983 16.771 8.50297 16.2778C8.969 15.8022 9.82101 15.4098 9.88071 15.383C9.85115 15.4044 9.60548 15.5771 9.45317 15.7554" fill="#F9C8A9"/>
<path d="M6.06463 13.2556C6.06448 13.257 6.06507 13.2577 6.06507 13.2591C6.06302 13.3407 6.04678 14.5137 6.33239 15.296C6.62883 16.107 6.35785 17.3588 6.35785 17.3588C6.35785 17.3588 5.53934 16.4073 5.48769 15.7168C5.4239 14.8855 6.04458 13.3046 6.06463 13.2556Z" fill="#BC7546"/>
<path d="M6.25502 13.9421C6.48415 14.4555 6.7209 14.8673 6.91697 15.4793C7.03153 15.8362 6.84805 16.7458 6.57824 17.1207C6.48971 17.2922 6.35788 17.3588 6.35788 17.3588C6.35788 17.3588 6.62886 16.107 6.33242 15.296C6.04681 14.5137 6.06305 13.3407 6.0651 13.2591C6.07329 13.304 6.13577 13.6742 6.25502 13.9421Z" fill="#F9C8A9"/>
<path d="M7.76146 14.7676C7.76073 14.7688 7.76087 14.7697 7.76014 14.7709C7.72093 14.8425 7.16653 15.8764 7.06001 16.7024C6.94997 17.5588 6.13337 18.5453 6.13337 18.5453C6.13337 18.5453 5.84453 17.324 6.11639 16.687C6.44239 15.9197 7.72107 14.8019 7.76146 14.7676Z" fill="#BC7546"/>
<path d="M7.6144 15.4648C7.58162 16.0261 7.60225 16.5006 7.49456 17.134C7.43209 17.5036 6.85047 18.2269 6.43829 18.4354C6.281 18.5469 6.13336 18.5453 6.13336 18.5453C6.13336 18.5453 6.94997 17.5588 7.06 16.7024C7.16652 15.8764 7.72092 14.8425 7.76013 14.7709C7.74682 14.8146 7.63196 15.1721 7.6144 15.4648" fill="#F9C8A9"/>
<path d="M8.65136 17.3588C8.65048 17.3594 8.65033 17.3602 8.64931 17.361C8.59473 17.4066 7.81734 18.0702 7.46925 18.7067C7.10858 19.3668 6.13336 19.9088 6.13336 19.9088C6.13336 19.9088 6.28583 18.8261 6.70825 18.3953C7.21597 17.8759 8.60775 17.3737 8.65136 17.3588" fill="#BC7546"/>
<path d="M8.31131 17.8779C8.10676 18.323 7.97317 18.7147 7.68522 19.1946C7.51739 19.4748 6.81623 19.8775 6.41576 19.9161C6.25261 19.9568 6.13336 19.9088 6.13336 19.9088C6.13336 19.9088 7.10858 19.3668 7.46925 18.7066C7.81734 18.0701 8.59473 17.4066 8.64931 17.3609C8.62473 17.3921 8.41827 17.6458 8.31131 17.8779" fill="#F9C8A9"/>
<path d="M5.19931 17.0067C5.19946 17.0078 5.20004 17.0082 5.20019 17.0091C5.21438 17.068 5.42713 17.9119 5.78122 18.4178C6.14877 18.9424 6.19384 19.8913 6.19384 19.8913C6.19384 19.8913 5.42538 19.3658 5.25623 18.8809C5.05168 18.2973 5.19434 17.0457 5.19931 17.0067" fill="#BC7546"/>
<path d="M5.46693 17.4624C5.72943 17.7865 5.97773 18.0364 6.23511 18.4374C6.38552 18.6714 6.42796 19.3584 6.30607 19.6785C6.27549 19.8183 6.19384 19.8913 6.19384 19.8913C6.19384 19.8913 6.14878 18.9424 5.78123 18.4178C5.42713 17.9119 5.21439 17.068 5.2002 17.0091C5.21483 17.0398 5.33027 17.2931 5.46693 17.4624Z" fill="#F9C8A9"/>
<path d="M7.74671 19.5843C7.74597 19.5848 7.74583 19.5856 7.74509 19.5862C7.69959 19.6263 7.05228 20.2077 6.76959 20.757C6.47695 21.3266 5.65845 21.8087 5.65845 21.8087C5.65845 21.8087 5.76497 20.884 6.11525 20.5084C6.53621 20.0553 7.70998 19.598 7.74671 19.5843" fill="#BC7546"/>
<path d="M7.46841 20.0335C7.30395 20.4167 7.19874 20.7529 6.9639 21.1676C6.82709 21.4097 6.23904 21.7675 5.89899 21.809C5.76116 21.8471 5.65845 21.8087 5.65845 21.8087C5.65845 21.8087 6.47695 21.3266 6.76959 20.757C7.05228 20.2077 7.69959 19.6263 7.7451 19.5862C7.72476 19.6134 7.55444 19.8337 7.46841 20.0335" fill="#F9C8A9"/>
<path d="M5.75035 19.3311C5.74991 19.3324 5.75035 19.3333 5.75006 19.3346C5.73133 19.416 5.47395 20.5858 5.59876 21.4268C5.7284 22.2989 5.20019 23.4951 5.20019 23.4951C5.20019 23.4951 4.57717 22.3751 4.6673 21.674C4.77455 20.8296 5.72021 19.376 5.75035 19.3311Z" fill="#BC7546"/>
<path d="M5.79966 20.0569C5.9233 20.6176 6.07533 21.0779 6.14556 21.7302C6.18682 22.1107 5.81634 22.9829 5.46942 23.3022C5.34563 23.4554 5.2002 23.4951 5.2002 23.4951C5.2002 23.4951 5.72841 22.2989 5.59877 21.4268C5.47396 20.5858 5.73133 19.416 5.75006 19.3346C5.74904 19.3813 5.73543 19.7644 5.79966 20.0569" fill="#F9C8A9"/>
<path d="M14.3976 23.0141C13.7341 23.2101 12.4551 23.1732 11.6078 22.8055V21.6772H11.7424C12.637 22.2179 14.3164 22.4183 14.3164 21.3804C14.3164 20.6899 13.5093 20.7938 12.8086 20.7938V19.8759C13.3687 19.8759 13.9422 19.9137 14.1578 19.6051C14.2425 19.4838 14.4224 18.8915 13.6368 18.803C13.0122 18.7319 12.4177 18.9007 11.8839 19.2169H11.7562V18.1022C12.8231 17.6731 14.8474 17.5514 15.3897 18.4992C15.7588 19.1459 15.3996 20.0794 14.5615 20.259V20.3073C16.0813 20.5161 16.0682 22.5211 14.3976 23.0141" fill="#FFAD67"/>
</svg>
