<svg width="703" height="540" viewBox="0 0 703 540" fill="none" xmlns="http://www.w3.org/2000/svg">
<path d="M1.26324 43.8424C0.131849 28.6419 -0.433847 21.0416 2.19715 15.2322C4.50838 10.1288 8.46678 5.94964 13.4373 3.36512C19.0956 0.423018 26.7153 0.575812 41.9548 0.881401L663 13.3349C677.063 13.6169 684.095 13.7579 689.401 16.6071C694.067 19.1132 697.817 23.0367 700.11 27.8119C702.716 33.2408 702.539 40.2717 702.186 54.3334L690.955 500.475C690.599 514.638 690.421 521.72 687.516 527.032C684.962 531.704 680.983 535.438 676.159 537.691C670.673 540.253 663.594 539.981 649.436 539.439L72.1078 517.312C59.4794 516.829 53.1652 516.587 48.2252 514.041C43.8735 511.799 40.2758 508.329 37.8785 504.06C35.1571 499.215 34.6881 492.914 33.7501 480.311L1.26324 43.8424Z" fill="url(#paint0_linear_202_211)"/>
<defs>
<linearGradient id="paint0_linear_202_211" x1="161.315" y1="144.084" x2="740.162" y2="598.256" gradientUnits="userSpaceOnUse">
<stop stop-color="white"/>
<stop offset="1" stop-color="#E9CCFF"/>
</linearGradient>
</defs>
</svg>
