<svg width="20" height="31" viewBox="0 0 20 31" fill="none" xmlns="http://www.w3.org/2000/svg">
<path d="M14.5419 11.6261C17.7815 13.2799 20 16.6492 20 20.5369C20 26.0597 15.5225 30.5371 9.99969 30.5371C4.47682 30.5371 0 26.0597 0 20.5369C0 16.7405 2.11533 13.4383 5.23224 11.7443C6.64901 10.9748 8.27308 10.5372 9.99969 10.5372C11.635 10.5372 13.1791 10.9298 14.5419 11.6261" fill="#FFCE68"/>
<path d="M9.99969 30.1277C7.43793 30.1277 5.02963 29.1301 3.21827 27.3186C1.4069 25.5071 0.409363 23.0986 0.409363 20.5369C0.409363 17.0175 2.3323 13.7862 5.42771 12.104C6.82192 11.3468 8.40288 10.9465 9.99969 10.9465C11.5342 10.9465 12.9997 11.2978 14.3557 11.9906C15.9062 12.7822 17.2144 13.9821 18.1387 15.4608C19.0886 16.9803 19.5906 18.7355 19.5906 20.5369C19.5906 23.0986 18.593 25.5071 16.7815 27.3186C14.9699 29.1301 12.5615 30.1277 9.99969 30.1277Z" fill="#FDBC62"/>
<path d="M9.99975 28.9582C7.7504 28.9582 5.6357 28.0822 4.0453 26.4916C2.45484 24.9011 1.57892 22.7862 1.57892 20.5369C1.57892 17.4466 3.2673 14.6095 5.98527 13.1325C7.20948 12.4674 8.59767 12.116 9.99975 12.116C11.3471 12.116 12.6339 12.4244 13.8245 13.0328C15.186 13.7278 16.3346 14.7815 17.1462 16.0799C17.9802 17.414 18.4211 18.9552 18.4211 20.5369C18.4211 22.7862 17.5451 24.901 15.9545 26.4916C14.3638 28.0822 12.2491 28.9582 9.99975 28.9582Z" stroke="#C49047" stroke-width="2.61099" stroke-miterlimit="10"/>
<path d="M9.99985 26.2472C8.47461 26.2472 7.04069 25.6533 5.96223 24.5748C4.88382 23.4961 4.28986 22.0622 4.28986 20.5369C4.28986 18.4416 5.43473 16.5177 7.27771 15.5161C8.10783 15.0652 9.04912 14.827 9.99985 14.827C10.9135 14.827 11.7861 15.0361 12.5933 15.4485C13.5166 15.92 14.2954 16.6343 14.8457 17.5147C15.4112 18.4194 15.7103 19.4645 15.7103 20.5369C15.7103 22.0622 15.1163 23.4961 14.0377 24.5748C12.9591 25.6533 11.5252 26.2472 9.99985 26.2472V26.2472Z" stroke="#FDBC62" stroke-width="1.865" stroke-miterlimit="10"/>
<path d="M9.99977 27.4902C8.1425 27.4902 6.39646 26.767 5.08325 25.4536C3.77005 24.1402 3.04688 22.3943 3.04688 20.5369C3.04688 17.9854 4.44095 15.6429 6.6851 14.4232C7.69589 13.8742 8.84209 13.584 9.99977 13.584C11.1122 13.584 12.1747 13.8388 13.1577 14.3409C14.2819 14.9149 15.2303 15.7849 15.9004 16.8569C16.589 17.9585 16.953 19.231 16.953 20.5369C16.953 22.3941 16.2298 24.1402 14.9164 25.4536C13.6031 26.767 11.8571 27.4902 9.99977 27.4902V27.4902Z" stroke="#C49047" stroke-width="2.61099" stroke-miterlimit="10"/>
<path d="M13.053 10.1034V9.73383C13.053 9.62687 12.9662 9.54011 12.8593 9.54011H6.78151C6.67445 9.54011 6.5877 9.62687 6.5877 9.73383V10.1034C6.5877 10.211 6.67445 10.2977 6.78151 10.2977H12.8593C12.9662 10.2977 13.053 10.211 13.053 10.1034ZM14.0553 9.82689C14.3099 10.3946 14.4512 11.0059 14.4737 11.6262C13.1111 10.9298 11.567 10.5373 9.93163 10.5373C8.20502 10.5373 6.58095 10.9749 5.16418 11.7444C5.1715 11.0836 5.31513 10.4307 5.58554 9.82689L5.71174 9.54567C5.85257 9.23079 6.14548 9.01058 6.48738 8.96274L6.85976 8.91035C8.82355 8.63542 10.8172 8.63542 12.7816 8.91035L13.1534 8.96274C13.4953 9.01058 13.7882 9.23079 13.929 9.54567L14.0553 9.82689Z" fill="#FDBC62"/>
<path d="M16.1683 3.06992e-05L12.701 9.68262H10.7744L14.2316 0.00793244V3.06992e-05H16.1683Z" fill="#FF545F"/>
<path d="M14.2316 3.06992e-05V0.00793244L10.7744 9.68262H8.87201L12.3291 0.00793244V3.06992e-05H14.2316Z" fill="#62DADC"/>
<path d="M12.3291 3.06992e-05V0.00793244L8.87198 9.68262H6.92847L10.3957 3.06992e-05H12.3291" fill="#AC748C"/>
<path d="M19.3347 20.5372C19.3347 23.6907 16.7782 26.2472 13.6246 26.2472C10.4709 26.2472 7.91437 23.6907 7.91437 20.5372C7.91437 17.3834 10.4709 14.827 13.6246 14.827C16.7782 14.827 19.3347 17.3834 19.3347 20.5372Z" fill="#FFDEAE"/>
<path d="M3.46057 3.06992e-05L6.92791 9.68262H8.85451L5.39734 0.00793244V3.06992e-05H3.46057Z" fill="#AC748C"/>
<path d="M5.39734 3.06992e-05V0.00793244L8.85451 9.68262H10.7569L7.29971 0.00793244V3.06992e-05H5.39734Z" fill="#62DADC"/>
<path d="M7.29968 3.06992e-05V0.00793244L10.7568 9.68262H12.7004L9.23302 3.06992e-05H7.29968Z" fill="#FF545F"/>
<path d="M18.9629 20.5371C18.9629 23.4853 16.5728 25.8754 13.6247 25.8754C10.6764 25.8754 8.28632 23.4853 8.28632 20.5371C8.28632 17.5888 10.6764 15.1987 13.6247 15.1987C16.5728 15.1987 18.9629 17.5888 18.9629 20.5371Z" fill="#FFCE68"/>
<path d="M17.6895 20.5372C17.6895 22.7822 15.8696 24.6021 13.6246 24.6021C11.3795 24.6021 9.55957 22.7822 9.55957 20.5372C9.55957 18.2921 11.3795 16.4722 13.6246 16.4722C15.8696 16.4722 17.6895 18.2921 17.6895 20.5372Z" fill="#C49047"/>
<path d="M15.3516 23.1313H11.8975V22.2278H12.9886V19.4929H11.8975V18.6485C12.0643 18.6485 12.224 18.6386 12.3769 18.619C12.5298 18.5992 12.6573 18.5651 12.7593 18.5164C12.8797 18.4586 12.97 18.3833 13.0303 18.2905C13.0905 18.1979 13.1252 18.082 13.1346 17.943H14.2848V22.2278H15.3516V23.1313" fill="#FFCE68"/>
<path d="M8.82749 18.759C8.82743 18.7594 8.82766 18.7597 8.8276 18.7602C8.82725 18.7849 8.82583 19.1399 8.91459 19.3756C9.00673 19.6201 8.92842 19.9996 8.92842 19.9996C8.92842 19.9996 8.67796 19.7142 8.66024 19.5054C8.63847 19.2541 8.82155 18.7739 8.82749 18.759" fill="#C49047"/>
<path d="M8.887 18.9662C8.95794 19.1208 9.03075 19.2448 9.09185 19.4293C9.12764 19.537 9.07482 19.8128 8.99428 19.9269C8.96805 19.9791 8.92832 19.9996 8.92832 19.9996C8.92832 19.9996 9.00663 19.6201 8.9145 19.3756C8.82574 19.1399 8.82716 18.7849 8.82751 18.7602C8.83013 18.7736 8.85021 18.8854 8.887 18.9662" fill="#FFDEAE"/>
<path d="M9.66287 19.1024C9.66257 19.1027 9.66257 19.103 9.66224 19.1033C9.64566 19.1215 9.41023 19.3873 9.32124 19.623C9.22893 19.8673 8.91962 20.1007 8.91962 20.1007C8.91962 20.1007 8.91989 19.721 9.0445 19.5525C9.19402 19.3494 9.64857 19.1096 9.66287 19.1024Z" fill="#C49047"/>
<path d="M9.57089 19.2973C9.52198 19.4603 9.49494 19.6013 9.41898 19.7804C9.37474 19.8849 9.15304 20.0571 9.01712 20.0897C8.963 20.1115 8.91962 20.1007 8.91962 20.1007C8.91962 20.1007 9.22893 19.8673 9.32124 19.623C9.41023 19.3873 9.64566 19.1215 9.66224 19.1033C9.65526 19.1151 9.5965 19.2123 9.57089 19.2973" fill="#FFDEAE"/>
<path d="M8.6064 19.6286C8.60644 19.6288 8.60662 19.6291 8.60668 19.6294C8.60994 19.654 8.66052 20.0053 8.78283 20.2257C8.90972 20.4541 8.88789 20.8409 8.88789 20.8409C8.88789 20.8409 8.59828 20.5953 8.55027 20.3913C8.49191 20.1459 8.60274 19.6441 8.6064 19.6286" fill="#C49047"/>
<path d="M8.69574 19.8246C8.7885 19.9673 8.8787 20.0792 8.96613 20.2527C9.0173 20.3541 9.00541 20.6346 8.94247 20.7593C8.92413 20.8148 8.8879 20.8409 8.8879 20.8409C8.8879 20.8409 8.90973 20.4541 8.78284 20.2257C8.66053 20.0053 8.60995 19.654 8.60669 19.6294C8.61127 19.6426 8.64744 19.7503 8.69574 19.8246" fill="#FFDEAE"/>
<path d="M9.48312 19.8458C9.48284 19.8461 9.4829 19.8464 9.48261 19.8467C9.46895 19.8673 9.27497 20.1645 9.22136 20.4107C9.16592 20.666 8.89409 20.9421 8.89409 20.9421C8.89409 20.9421 8.83875 20.5665 8.93729 20.3816C9.05555 20.1588 9.47004 19.855 9.48312 19.8458Z" fill="#C49047"/>
<path d="M9.42073 20.0522C9.39627 20.2204 9.39015 20.3641 9.34122 20.5523C9.31277 20.662 9.1186 20.865 8.98892 20.917C8.93863 20.9466 8.89417 20.9422 8.89417 20.9422C8.89417 20.9422 9.16599 20.6661 9.22143 20.4108C9.27505 20.1645 9.46903 19.8674 9.48268 19.8467C9.47755 19.8596 9.43365 19.9644 9.42073 20.0522" fill="#FFDEAE"/>
<path d="M8.51532 20.5724C8.51544 20.5727 8.51566 20.5729 8.51577 20.5733C8.5247 20.5964 8.65523 20.9264 8.82528 21.1125C9.00159 21.3052 9.06995 21.6866 9.06995 21.6866C9.06995 21.6866 8.73137 21.5147 8.63735 21.3274C8.52378 21.1023 8.51532 20.5884 8.51532 20.5724" fill="#C49047"/>
<path d="M8.64761 20.7425C8.7709 20.8598 8.88457 20.9477 9.00986 21.0964C9.08308 21.183 9.13652 21.4587 9.10411 21.5946C9.09913 21.6528 9.06993 21.6866 9.06993 21.6866C9.06993 21.6866 9.00157 21.3052 8.82525 21.1125C8.6552 20.9264 8.52467 20.5964 8.51575 20.5733C8.5233 20.5849 8.58336 20.6813 8.64761 20.7425" fill="#FFDEAE"/>
<path d="M9.41858 20.5806C9.41842 20.5811 9.41854 20.5814 9.41836 20.5817C9.40979 20.6049 9.28992 20.939 9.29478 21.1909C9.29999 21.4521 9.09955 21.7838 9.09955 21.7838C9.09955 21.7838 8.95872 21.431 9.01176 21.2284C9.07514 20.9842 9.40802 20.5928 9.41858 20.5806Z" fill="#C49047"/>
<path d="M9.40562 20.7959C9.42082 20.9653 9.44808 21.1064 9.44408 21.3008C9.44179 21.4142 9.29999 21.6565 9.1859 21.7373C9.14378 21.7777 9.09955 21.7838 9.09955 21.7838C9.09955 21.7838 9.29999 21.4521 9.29478 21.1909C9.28992 20.939 9.40979 20.6049 9.41836 20.5817C9.4163 20.5954 9.39783 20.7075 9.40562 20.7959Z" fill="#FFDEAE"/>
<path d="M8.62177 21.4575C8.62194 21.4579 8.62223 21.4579 8.62239 21.4584C8.63372 21.4803 8.79975 21.794 8.98917 21.9602C9.1856 22.1324 9.29546 22.5041 9.29546 22.5041C9.29546 22.5041 8.94001 22.3704 8.82604 22.1946C8.68841 21.9832 8.62354 21.4734 8.62177 21.4575" fill="#C49047"/>
<path d="M8.77208 21.6121C8.90748 21.7151 9.03008 21.7901 9.17097 21.9239C9.25327 22.0021 9.33666 22.2703 9.31939 22.409C9.32083 22.4672 9.2955 22.5041 9.2955 22.5041C9.2955 22.5041 9.18564 22.1324 8.98921 21.9602C8.79979 21.794 8.63376 21.4803 8.62244 21.4584C8.63113 21.469 8.70149 21.5583 8.77208 21.6121" fill="#FFDEAE"/>
<path d="M9.52048 21.3665C9.5203 21.3669 9.52048 21.3672 9.52036 21.3677C9.51436 21.3917 9.43194 21.7368 9.46447 21.9867C9.49831 22.2457 9.33547 22.5975 9.33547 22.5975C9.33547 22.5975 9.15675 22.2624 9.18721 22.0551C9.22338 21.8054 9.51127 21.3797 9.52048 21.3665" fill="#C49047"/>
<path d="M9.53127 21.5819C9.56492 21.7487 9.60756 21.8858 9.62494 22.0795C9.63511 22.1925 9.52081 22.4489 9.41626 22.5417C9.37883 22.5865 9.33551 22.5975 9.33551 22.5975C9.33551 22.5975 9.49835 22.2457 9.4645 21.9867C9.43198 21.7368 9.5144 21.3917 9.5204 21.3677C9.51983 21.3814 9.51383 21.4948 9.53127 21.5819" fill="#FFDEAE"/>
<path d="M8.85699 22.3256C8.85721 22.3261 8.85757 22.3261 8.85778 22.3264C8.87299 22.346 9.09429 22.6234 9.31125 22.7515C9.53622 22.8844 9.71306 23.2291 9.71306 23.2291C9.71306 23.2291 9.33898 23.1637 9.19437 23.0122C9.01993 22.83 8.86174 22.341 8.85699 22.3256Z" fill="#C49047"/>
<path d="M9.03331 22.4497C9.18547 22.5259 9.31983 22.5767 9.48312 22.6824C9.57846 22.7438 9.71009 22.9918 9.7189 23.1313C9.73113 23.1883 9.71306 23.2291 9.71306 23.2291C9.71306 23.2291 9.53622 22.8844 9.31126 22.7515C9.0943 22.6234 8.87299 22.346 8.85779 22.3264C8.86831 22.3353 8.95398 22.4099 9.03331 22.4497" fill="#FFDEAE"/>
<path d="M9.72324 22.0697C9.72318 22.0702 9.7234 22.0703 9.72334 22.0707C9.72193 22.0955 9.70489 22.45 9.78319 22.6895C9.86447 22.9378 9.76965 23.3134 9.76965 23.3134C9.76965 23.3134 9.53193 23.0172 9.52342 22.808C9.51273 22.5559 9.71666 22.0843 9.72324 22.0697" fill="#C49047"/>
<path d="M9.77383 22.2792C9.83784 22.4368 9.90517 22.5638 9.95815 22.7508C9.98914 22.8599 9.92426 23.1332 9.83875 23.2438C9.81023 23.2947 9.76972 23.3134 9.76972 23.3134C9.76972 23.3134 9.86453 22.9378 9.78325 22.6895C9.70496 22.45 9.72199 22.0955 9.72341 22.0707C9.72541 22.0843 9.74056 22.197 9.77383 22.2792" fill="#FFDEAE"/>
<path d="M9.22357 23.1217C9.22386 23.122 9.22414 23.122 9.22444 23.1224C9.24284 23.1389 9.50935 23.3734 9.74534 23.4615C9.99015 23.553 10.2246 23.8614 10.2246 23.8614C10.2246 23.8614 9.84485 23.8626 9.6759 23.7385C9.47225 23.5897 9.23089 23.1361 9.22357 23.1217" fill="#C49047"/>
<path d="M9.41893 23.2131C9.58204 23.2614 9.72329 23.2879 9.90252 23.3632C10.0071 23.4071 10.1802 23.6281 10.2133 23.7639C10.2353 23.8181 10.2246 23.8614 10.2246 23.8614C10.2246 23.8614 9.9902 23.553 9.74539 23.4615C9.5094 23.3734 9.24289 23.1389 9.22449 23.1224C9.23643 23.1293 9.33382 23.1877 9.41893 23.2131Z" fill="#FFDEAE"/>
<path d="M10.0316 22.718C10.0316 22.7185 10.0319 22.7186 10.0319 22.719C10.0348 22.7436 10.0802 23.0957 10.1992 23.3176C10.3227 23.548 10.2952 23.9344 10.2952 23.9344C10.2952 23.9344 10.0092 23.6844 9.96419 23.4799C9.90949 23.2337 10.0277 22.7335 10.0316 22.718Z" fill="#C49047"/>
<path d="M10.1181 22.9154C10.2087 23.0594 10.2972 23.1726 10.3821 23.3474C10.4317 23.4496 10.4157 23.7299 10.351 23.8537C10.3318 23.9089 10.2952 23.9344 10.2952 23.9344C10.2952 23.9344 10.3227 23.548 10.1992 23.3176C10.0802 23.0957 10.0348 22.7436 10.0319 22.719C10.0363 22.7321 10.0708 22.8403 10.1181 22.9154Z" fill="#FFDEAE"/>
<path d="M9.82361 23.9165C9.82394 23.9167 9.82424 23.9167 9.82457 23.9168C9.84648 23.9284 10.1621 24.0908 10.4125 24.1189C10.6721 24.1479 10.9748 24.3899 10.9748 24.3899C10.9748 24.3899 10.6067 24.4834 10.4127 24.4044C10.1789 24.3097 9.83419 23.9285 9.82361 23.9165" fill="#C49047"/>
<path d="M10.0353 23.9573C10.2052 23.9645 10.3487 23.9559 10.5409 23.9852C10.6531 24.0023 10.8748 24.1745 10.9399 24.2982C10.9744 24.3451 10.9748 24.3899 10.9748 24.3899C10.9748 24.3899 10.6721 24.1479 10.4125 24.1189C10.1621 24.0908 9.84649 23.9284 9.82458 23.9168C9.83791 23.9206 9.94656 23.9536 10.0353 23.9573" fill="#FFDEAE"/>
<path d="M10.5088 23.328C10.509 23.3283 10.5092 23.3285 10.5094 23.3289C10.5182 23.352 10.648 23.6824 10.8175 23.8687C10.9934 24.062 11.0609 24.4435 11.0609 24.4435C11.0609 24.4435 10.7227 24.2708 10.6292 24.0833C10.516 23.8579 10.5088 23.344 10.5088 23.328" fill="#C49047"/>
<path d="M10.6407 23.4985C10.7637 23.616 10.8773 23.7042 11.0022 23.8532C11.0752 23.9399 11.128 24.2157 11.0953 24.3517C11.0902 24.4098 11.0609 24.4435 11.0609 24.4435C11.0609 24.4435 10.9934 24.062 10.8175 23.8687C10.6479 23.6824 10.5181 23.352 10.5093 23.3289C10.5168 23.3406 10.5767 23.437 10.6407 23.4985" fill="#FFDEAE"/>
<path d="M10.4778 24.4857C10.4782 24.486 10.4785 24.4859 10.4788 24.4862C10.5011 24.4968 10.8224 24.6477 11.0737 24.6666C11.3342 24.686 11.6454 24.9169 11.6454 24.9169C11.6454 24.9169 11.281 25.0239 11.0842 24.9519C10.8471 24.8657 10.4888 24.4974 10.4778 24.4857Z" fill="#C49047"/>
<path d="M10.6908 24.519C10.861 24.5198 11.004 24.506 11.1971 24.5283C11.3098 24.5413 11.5376 24.7053 11.6073 24.8265C11.6436 24.8723 11.6455 24.9169 11.6455 24.9169C11.6455 24.9169 11.3342 24.686 11.0737 24.6666C10.8224 24.6477 10.5011 24.4968 10.4788 24.4862C10.4923 24.4894 10.6021 24.5183 10.6908 24.519" fill="#FFDEAE"/>
<path d="M11.1411 23.8728C11.1412 23.873 11.1415 23.8732 11.1417 23.8736C11.1513 23.8963 11.293 24.2219 11.4692 24.4019C11.6521 24.5885 11.7335 24.9673 11.7335 24.9673C11.7335 24.9673 11.3892 24.8071 11.2888 24.6232C11.1676 24.402 11.1417 23.8887 11.1411 23.8728Z" fill="#C49047"/>
<path d="M11.2792 24.0382C11.4065 24.1512 11.523 24.2353 11.6534 24.3796C11.7295 24.4637 11.7922 24.7374 11.7646 24.8743C11.7615 24.9327 11.7336 24.9673 11.7336 24.9673C11.7336 24.9673 11.6522 24.5885 11.4693 24.4019C11.2931 24.2219 11.1514 23.8963 11.1418 23.8736C11.1496 23.8849 11.213 23.9792 11.2792 24.0382Z" fill="#FFDEAE"/>
<path d="M11.3185 25.0255C11.3189 25.0255 11.3191 25.0253 11.3195 25.0255C11.3439 25.0298 11.6939 25.0884 11.9411 25.0388C12.1971 24.9873 12.5591 25.1257 12.5591 25.1257C12.5591 25.1257 12.2371 25.3269 12.0281 25.3108C11.7766 25.2918 11.3322 25.0337 11.3185 25.0255" fill="#C49047"/>
<path d="M11.5326 24.9999C11.6966 24.955 11.8306 24.9031 12.0226 24.8725C12.1347 24.8545 12.3983 24.9512 12.498 25.0491C12.5452 25.0833 12.5591 25.1257 12.5591 25.1257C12.5591 25.1257 12.1971 24.9873 11.9411 25.0388C11.6939 25.0884 11.344 25.0298 11.3195 25.0255C11.3334 25.0251 11.447 25.0233 11.5326 24.9999" fill="#FFDEAE"/>
<path d="M12.3052 25.3698C12.3057 25.3698 12.3058 25.3697 12.3063 25.3697C12.331 25.3698 12.686 25.3689 12.9212 25.2788C13.1651 25.1851 13.5451 25.2609 13.5451 25.2609C13.5451 25.2609 13.2613 25.5133 13.0526 25.5322C12.8014 25.5556 12.3202 25.3755 12.3052 25.3698Z" fill="#C49047"/>
<path d="M12.5121 25.3088C12.6663 25.237 12.7896 25.1633 12.9738 25.101C13.0812 25.0646 13.3573 25.1156 13.472 25.1955C13.5244 25.2214 13.5452 25.261 13.5452 25.261C13.5452 25.261 13.1652 25.1851 12.9213 25.2788C12.686 25.3689 12.3311 25.3698 12.3063 25.3697C12.3199 25.3669 12.4316 25.3462 12.5121 25.3088" fill="#FFDEAE"/>
<path d="M11.792 24.2561C11.7923 24.2566 11.7926 24.2566 11.7927 24.2569C11.8082 24.2762 12.0324 24.5514 12.2507 24.6773C12.4771 24.8078 12.6576 25.1506 12.6576 25.1506C12.6576 25.1506 12.2829 25.0891 12.1366 24.939C11.9603 24.7588 11.7968 24.2715 11.792 24.2561Z" fill="#C49047"/>
<path d="M11.9696 24.3784C12.1225 24.4529 12.2574 24.5024 12.4219 24.6061C12.5179 24.6667 12.6521 24.9133 12.6623 25.0527C12.6752 25.1096 12.6576 25.1506 12.6576 25.1506C12.6576 25.1506 12.4771 24.8078 12.2507 24.6773C12.0324 24.5514 11.8082 24.2762 11.7927 24.2569C11.8034 24.2658 11.8899 24.3394 11.9696 24.3784" fill="#FFDEAE"/>
<path d="M12.6292 24.6187C12.6295 24.619 12.6298 24.619 12.6301 24.6193C12.6463 24.6335 12.8816 24.8366 13.0889 24.9118C13.304 24.9898 13.5119 25.2579 13.5119 25.2579C13.5119 25.2579 13.1795 25.2619 13.0306 25.155C12.851 25.0264 12.6358 24.6311 12.6292 24.6187" fill="#C49047"/>
<path d="M12.801 24.697C12.9443 24.738 13.0682 24.7599 13.2256 24.8245C13.3177 24.8619 13.471 25.0541 13.5012 25.1727C13.5209 25.2198 13.512 25.2579 13.512 25.2579C13.512 25.2579 13.3041 24.9898 13.089 24.9118C12.8816 24.8366 12.6464 24.6335 12.6301 24.6193C12.6407 24.6253 12.7264 24.6757 12.801 24.697Z" fill="#FFDEAE"/>
<path d="M12.9966 25.5936C12.9967 25.5935 12.9969 25.5934 12.997 25.5934C13.0086 25.5876 13.1725 25.506 13.2607 25.4105C13.352 25.3112 13.5451 25.2593 13.5451 25.2593C13.5451 25.2593 13.4717 25.4409 13.3795 25.4975C13.2687 25.5659 13.0048 25.5929 12.9966 25.5936Z" fill="#C49047"/>
<path d="M13.0783 25.5179C13.1332 25.4495 13.1734 25.3872 13.2444 25.3162C13.2857 25.2746 13.4251 25.2349 13.4964 25.2456C13.5265 25.2456 13.5452 25.2593 13.5452 25.2593C13.5452 25.2593 13.3521 25.3112 13.2608 25.4104C13.1726 25.5059 13.0087 25.5876 12.9971 25.5933C13.0028 25.5889 13.0497 25.5537 13.0783 25.5179" fill="#FFDEAE"/>
<path d="M18.4217 18.759C18.4218 18.7594 18.4216 18.7597 18.4216 18.7602C18.422 18.7849 18.4233 19.1399 18.3346 19.3756C18.2426 19.6201 18.3207 19.9996 18.3207 19.9996C18.3207 19.9996 18.5712 19.7142 18.5889 19.5054C18.6107 19.2541 18.4277 18.7739 18.4217 18.759" fill="#C49047"/>
<path d="M18.3622 18.9662C18.2912 19.1208 18.2183 19.2448 18.1573 19.4293C18.1215 19.537 18.1743 19.8128 18.2549 19.9269C18.2811 19.9791 18.3207 19.9996 18.3207 19.9996C18.3207 19.9996 18.2426 19.6201 18.3346 19.3756C18.4233 19.1399 18.422 18.7849 18.4216 18.7602C18.4189 18.7736 18.399 18.8854 18.3622 18.9662" fill="#FFDEAE"/>
<path d="M17.5862 19.1024C17.5865 19.1027 17.5865 19.103 17.5868 19.1033C17.6034 19.1215 17.8389 19.3873 17.9278 19.623C18.0202 19.8673 18.3295 20.1007 18.3295 20.1007C18.3295 20.1007 18.3292 19.721 18.2045 19.5525C18.055 19.3494 17.6005 19.1096 17.5862 19.1024Z" fill="#C49047"/>
<path d="M17.6782 19.2973C17.7271 19.4603 17.7542 19.6013 17.8301 19.7804C17.8743 19.8849 18.0961 20.0571 18.2319 20.0897C18.286 20.1115 18.3295 20.1007 18.3295 20.1007C18.3295 20.1007 18.0202 19.8673 17.9279 19.623C17.8389 19.3873 17.6035 19.1215 17.5868 19.1033C17.5938 19.1151 17.6526 19.2123 17.6782 19.2973" fill="#FFDEAE"/>
<path d="M18.6427 19.6286C18.6427 19.6288 18.6425 19.6291 18.6425 19.6294C18.6392 19.654 18.5886 20.0053 18.4663 20.2257C18.3394 20.4541 18.3612 20.8409 18.3612 20.8409C18.3612 20.8409 18.6508 20.5953 18.6989 20.3913C18.7572 20.1459 18.6464 19.6441 18.6427 19.6286" fill="#C49047"/>
<path d="M18.5533 19.8246C18.4605 19.9673 18.3704 20.0792 18.2829 20.2527C18.2318 20.3541 18.2437 20.6346 18.3066 20.7593C18.3249 20.8148 18.3612 20.8409 18.3612 20.8409C18.3612 20.8409 18.3394 20.4541 18.4662 20.2257C18.5886 20.0053 18.6392 19.654 18.6424 19.6294C18.6379 19.6426 18.6016 19.7503 18.5533 19.8246" fill="#FFDEAE"/>
<path d="M17.766 19.8458C17.7661 19.8461 17.7661 19.8464 17.7664 19.8467C17.7802 19.8673 17.9741 20.1645 18.0278 20.4107C18.0832 20.666 18.3551 20.9421 18.3551 20.9421C18.3551 20.9421 18.4104 20.5665 18.3118 20.3816C18.1935 20.1588 17.779 19.855 17.766 19.8458" fill="#C49047"/>
<path d="M17.8283 20.0522C17.8529 20.2204 17.859 20.3641 17.9079 20.5523C17.9364 20.662 18.1305 20.865 18.2602 20.917C18.3106 20.9466 18.3551 20.9422 18.3551 20.9422C18.3551 20.9422 18.0832 20.6661 18.0277 20.4108C17.974 20.1645 17.7802 19.8674 17.7664 19.8467C17.7715 19.8596 17.8154 19.9644 17.8283 20.0522" fill="#FFDEAE"/>
<path d="M18.7339 20.5724C18.7337 20.5727 18.7335 20.5729 18.7333 20.5733C18.7245 20.5964 18.5939 20.9264 18.4238 21.1125C18.2475 21.3052 18.1792 21.6866 18.1792 21.6866C18.1792 21.6866 18.5178 21.5147 18.6117 21.3274C18.7254 21.1023 18.7337 20.5884 18.7339 20.5724" fill="#C49047"/>
<path d="M18.6015 20.7425C18.4783 20.8598 18.3646 20.9477 18.2394 21.0964C18.1661 21.183 18.1127 21.4587 18.145 21.5946C18.15 21.6528 18.1793 21.6866 18.1793 21.6866C18.1793 21.6866 18.2476 21.3052 18.4239 21.1125C18.5939 20.9264 18.7246 20.5964 18.7334 20.5733C18.7259 20.5849 18.6658 20.6813 18.6015 20.7425Z" fill="#FFDEAE"/>
<path d="M17.8307 20.5806C17.8308 20.5811 17.8307 20.5814 17.8308 20.5817C17.8395 20.6049 17.9593 20.939 17.9543 21.1909C17.9492 21.4521 18.1497 21.7838 18.1497 21.7838C18.1497 21.7838 18.2906 21.431 18.2375 21.2284C18.1741 20.9842 17.8412 20.5928 17.8307 20.5806Z" fill="#C49047"/>
<path d="M17.8436 20.7959C17.8283 20.9653 17.8011 21.1064 17.8051 21.3008C17.8074 21.4142 17.9492 21.6565 18.0633 21.7373C18.1055 21.7777 18.1497 21.7838 18.1497 21.7838C18.1497 21.7838 17.9492 21.4521 17.9543 21.1909C17.9593 20.939 17.8395 20.6049 17.8308 20.5817C17.8329 20.5954 17.8513 20.7075 17.8436 20.7959Z" fill="#FFDEAE"/>
<path d="M18.6273 21.4575C18.6272 21.4579 18.6269 21.4579 18.6268 21.4584C18.6153 21.4803 18.4493 21.794 18.2599 21.9602C18.0634 22.1324 17.9536 22.5041 17.9536 22.5041C17.9536 22.5041 18.3091 22.3704 18.4231 22.1946C18.5606 21.9832 18.6254 21.4734 18.6273 21.4575" fill="#C49047"/>
<path d="M18.4771 21.6121C18.3418 21.7151 18.2191 21.7901 18.0782 21.9239C17.9959 22.0021 17.9125 22.2703 17.9297 22.409C17.9283 22.4672 17.9536 22.5041 17.9536 22.5041C17.9536 22.5041 18.0635 22.1324 18.26 21.9602C18.4493 21.794 18.6154 21.4803 18.6268 21.4584C18.618 21.469 18.5476 21.5583 18.4771 21.6121Z" fill="#FFDEAE"/>
<path d="M17.7287 21.3665C17.7288 21.3669 17.7287 21.3672 17.7288 21.3677C17.7347 21.3917 17.8172 21.7368 17.7846 21.9867C17.7508 22.2457 17.9136 22.5975 17.9136 22.5975C17.9136 22.5975 18.0923 22.2624 18.0619 22.0551C18.0257 21.8054 17.7378 21.3797 17.7287 21.3665Z" fill="#C49047"/>
<path d="M17.7179 21.5819C17.6842 21.7487 17.6416 21.8858 17.6242 22.0795C17.614 22.1925 17.7284 22.4489 17.8329 22.5417C17.8703 22.5865 17.9137 22.5975 17.9137 22.5975C17.9137 22.5975 17.7508 22.2457 17.7846 21.9867C17.8172 21.7368 17.7347 21.3917 17.7289 21.3677C17.7293 21.3814 17.7354 21.4948 17.7179 21.5819" fill="#FFDEAE"/>
<path d="M18.3922 22.3256C18.392 22.3261 18.3917 22.3261 18.3914 22.3264C18.3762 22.346 18.1548 22.6234 17.938 22.7515C17.7129 22.8844 17.5362 23.2291 17.5362 23.2291C17.5362 23.2291 17.9102 23.1637 18.0547 23.0122C18.2293 22.83 18.3875 22.341 18.3922 22.3256Z" fill="#C49047"/>
<path d="M18.2158 22.4497C18.0638 22.5259 17.9293 22.5767 17.7661 22.6824C17.6708 22.7438 17.5391 22.9918 17.5303 23.1313C17.518 23.1883 17.5362 23.2291 17.5362 23.2291C17.5362 23.2291 17.7129 22.8844 17.938 22.7515C18.1548 22.6234 18.3762 22.346 18.3914 22.3264C18.3809 22.3353 18.2951 22.4099 18.2158 22.4497" fill="#FFDEAE"/>
<path d="M17.526 22.0697C17.526 22.0702 17.5258 22.0703 17.5258 22.0707C17.5273 22.0955 17.5443 22.45 17.466 22.6895C17.3848 22.9378 17.4796 23.3134 17.4796 23.3134C17.4796 23.3134 17.7174 23.0172 17.7258 22.808C17.7365 22.5559 17.5326 22.0843 17.526 22.0697Z" fill="#C49047"/>
<path d="M17.4754 22.2792C17.4113 22.4368 17.344 22.5638 17.2911 22.7508C17.2601 22.8599 17.325 23.1332 17.4105 23.2438C17.439 23.2947 17.4795 23.3134 17.4795 23.3134C17.4795 23.3134 17.3847 22.9378 17.4659 22.6895C17.5442 22.45 17.5272 22.0955 17.5258 22.0707C17.5237 22.0843 17.5086 22.197 17.4754 22.2792" fill="#FFDEAE"/>
<path d="M18.0256 23.1217C18.0253 23.122 18.025 23.122 18.0247 23.1224C18.0063 23.1389 17.7397 23.3734 17.5037 23.4615C17.259 23.553 17.0245 23.8614 17.0245 23.8614C17.0245 23.8614 17.4042 23.8626 17.5732 23.7385C17.7768 23.5897 18.0183 23.1361 18.0256 23.1217" fill="#C49047"/>
<path d="M17.8303 23.2131C17.6671 23.2614 17.5259 23.2879 17.3467 23.3632C17.2421 23.4071 17.069 23.6281 17.0359 23.7639C17.0138 23.8181 17.0245 23.8614 17.0245 23.8614C17.0245 23.8614 17.259 23.553 17.5037 23.4615C17.7397 23.3734 18.0063 23.1389 18.0247 23.1224C18.0127 23.1293 17.9153 23.1877 17.8303 23.2131Z" fill="#FFDEAE"/>
<path d="M17.2175 22.718C17.2175 22.7185 17.2173 22.7186 17.2172 22.719C17.2144 22.7436 17.1691 23.0957 17.05 23.3176C16.9265 23.548 16.954 23.9344 16.954 23.9344C16.954 23.9344 17.2399 23.6844 17.2849 23.4799C17.3397 23.2337 17.2214 22.7335 17.2175 22.718Z" fill="#C49047"/>
<path d="M17.1312 22.9154C17.0405 23.0594 16.9519 23.1726 16.8671 23.3474C16.8175 23.4496 16.8334 23.7299 16.8982 23.8537C16.9174 23.9089 16.954 23.9344 16.954 23.9344C16.954 23.9344 16.9265 23.548 17.05 23.3176C17.1691 23.0957 17.2144 22.7436 17.2172 22.719C17.2128 22.7321 17.1783 22.8403 17.1312 22.9154Z" fill="#FFDEAE"/>
<path d="M17.4256 23.9165C17.4253 23.9167 17.425 23.9167 17.4245 23.9168C17.4027 23.9284 17.0871 24.0908 16.8366 24.1189C16.5771 24.1479 16.2745 24.3899 16.2745 24.3899C16.2745 24.3899 16.6425 24.4834 16.8365 24.4044C17.0703 24.3097 17.415 23.9285 17.4256 23.9165Z" fill="#C49047"/>
<path d="M17.214 23.9573C17.044 23.9645 16.9006 23.9559 16.7083 23.9852C16.5962 24.0023 16.3744 24.1745 16.3093 24.2982C16.2748 24.3451 16.2745 24.3899 16.2745 24.3899C16.2745 24.3899 16.5771 24.1479 16.8366 24.1189C17.0871 24.0908 17.4027 23.9284 17.4245 23.9168C17.4114 23.9206 17.3027 23.9536 17.214 23.9573Z" fill="#FFDEAE"/>
<path d="M16.7404 23.328C16.7402 23.3283 16.7399 23.3285 16.7399 23.3289C16.731 23.352 16.6012 23.6824 16.4316 23.8687C16.2557 24.062 16.1883 24.4435 16.1883 24.4435C16.1883 24.4435 16.5264 24.2708 16.6201 24.0833C16.733 23.8579 16.7404 23.344 16.7404 23.328" fill="#C49047"/>
<path d="M16.6083 23.4985C16.4854 23.616 16.3719 23.7042 16.2469 23.8532C16.1739 23.9399 16.1211 24.2157 16.1539 24.3517C16.159 24.4098 16.1882 24.4435 16.1882 24.4435C16.1882 24.4435 16.2557 24.062 16.4316 23.8687C16.6011 23.6824 16.7309 23.352 16.7399 23.3289C16.7322 23.3406 16.6724 23.437 16.6083 23.4985" fill="#FFDEAE"/>
<path d="M16.7714 24.4857C16.7711 24.486 16.7708 24.4859 16.7704 24.4862C16.7481 24.4968 16.4268 24.6477 16.1756 24.6666C15.915 24.686 15.6038 24.9169 15.6038 24.9169C15.6038 24.9169 15.9682 25.0239 16.165 24.9519C16.4021 24.8657 16.7604 24.4974 16.7714 24.4857Z" fill="#C49047"/>
<path d="M16.5583 24.519C16.3883 24.5198 16.2452 24.506 16.0521 24.5283C15.9394 24.5413 15.7116 24.7053 15.6419 24.8265C15.6057 24.8723 15.6038 24.9169 15.6038 24.9169C15.6038 24.9169 15.915 24.686 16.1756 24.6666C16.4268 24.6477 16.7481 24.4968 16.7704 24.4862C16.757 24.4894 16.6472 24.5183 16.5583 24.519" fill="#FFDEAE"/>
<path d="M16.1079 23.8728C16.1078 23.873 16.1076 23.8732 16.1075 23.8736C16.0978 23.8963 15.956 24.2219 15.7799 24.4019C15.597 24.5885 15.5156 24.9673 15.5156 24.9673C15.5156 24.9673 15.8599 24.8071 15.9603 24.6232C16.0814 24.402 16.1073 23.8887 16.1079 23.8728Z" fill="#C49047"/>
<path d="M15.97 24.0382C15.8428 24.1512 15.7262 24.2353 15.5958 24.3796C15.5197 24.4637 15.457 24.7374 15.4846 24.8743C15.4877 24.9327 15.5156 24.9673 15.5156 24.9673C15.5156 24.9673 15.597 24.5885 15.7799 24.4019C15.9561 24.2219 16.0978 23.8963 16.1075 23.8736C16.0996 23.8849 16.0362 23.9792 15.97 24.0382Z" fill="#FFDEAE"/>
<path d="M15.9306 25.0255C15.9302 25.0255 15.93 25.0253 15.9296 25.0255C15.9053 25.0298 15.5552 25.0884 15.308 25.0388C15.052 24.9873 14.69 25.1257 14.69 25.1257C14.69 25.1257 15.012 25.3269 15.221 25.3108C15.4725 25.2918 15.9169 25.0337 15.9306 25.0255Z" fill="#C49047"/>
<path d="M15.7166 24.9999C15.5525 24.955 15.4185 24.9031 15.2266 24.8725C15.1145 24.8545 14.8508 24.9512 14.7512 25.0491C14.7039 25.0833 14.69 25.1257 14.69 25.1257C14.69 25.1257 15.052 24.9873 15.308 25.0388C15.5552 25.0884 15.9053 25.0298 15.9296 25.0255C15.9157 25.0251 15.8022 25.0233 15.7166 24.9999" fill="#FFDEAE"/>
<path d="M15.4571 24.2561C15.4569 24.2566 15.4566 24.2566 15.4564 24.2569C15.4409 24.2762 15.2167 24.5514 14.9984 24.6773C14.7721 24.8078 14.5917 25.1506 14.5917 25.1506C14.5917 25.1506 14.9664 25.0891 15.1126 24.939C15.2889 24.7588 15.4523 24.2715 15.4571 24.2561Z" fill="#C49047"/>
<path d="M15.2795 24.3784C15.1266 24.4529 14.9917 24.5024 14.8272 24.6061C14.7314 24.6667 14.5971 24.9133 14.5868 25.0527C14.574 25.1096 14.5917 25.1506 14.5917 25.1506C14.5917 25.1506 14.7721 24.8078 14.9984 24.6773C15.2167 24.5514 15.4409 24.2762 15.4564 24.2569C15.4457 24.2658 15.3593 24.3394 15.2795 24.3784" fill="#FFDEAE"/>
<path d="M15.0778 25.3678C15.0774 25.3678 15.0773 25.3677 15.0768 25.3677C15.0521 25.3677 14.6971 25.3645 14.4624 25.2726C14.2193 25.1774 13.8387 25.2505 13.8387 25.2505C13.8387 25.2505 14.1208 25.5048 14.3293 25.5251C14.5804 25.5503 15.0629 25.3736 15.0778 25.3678Z" fill="#C49047"/>
<path d="M14.8715 25.3055C14.7178 25.2325 14.5949 25.158 14.4112 25.0945C14.304 25.0574 14.0276 25.1065 13.9123 25.1855C13.8598 25.2111 13.8387 25.2505 13.8387 25.2505C13.8387 25.2505 14.2193 25.1773 14.4624 25.2726C14.6971 25.3645 15.0521 25.3677 15.0768 25.3677C15.0632 25.3649 14.9517 25.3434 14.8715 25.3055" fill="#FFDEAE"/>
<path d="M14.6199 24.6187C14.6196 24.619 14.6193 24.619 14.619 24.6193C14.6029 24.6335 14.3675 24.8366 14.1602 24.9118C13.9451 24.9898 13.7372 25.2579 13.7372 25.2579C13.7372 25.2579 14.0696 25.2619 14.2186 25.155C14.3981 25.0264 14.6133 24.6311 14.6199 24.6187" fill="#C49047"/>
<path d="M14.4481 24.697C14.3048 24.738 14.1809 24.7599 14.0235 24.8245C13.9314 24.8619 13.7781 25.0541 13.7479 25.1727C13.7282 25.2198 13.7371 25.2579 13.7371 25.2579C13.7371 25.2579 13.945 24.9898 14.1601 24.9118C14.3675 24.8366 14.6029 24.6335 14.619 24.6193C14.6086 24.6253 14.5227 24.6757 14.4481 24.697Z" fill="#FFDEAE"/>
<path d="M14.2525 25.5936C14.2523 25.5935 14.2522 25.5934 14.252 25.5934C14.2406 25.5876 14.0766 25.506 13.9884 25.4105C13.8971 25.3112 13.7039 25.2593 13.7039 25.2593C13.7039 25.2593 13.7774 25.4409 13.8696 25.4975C13.9805 25.5659 14.2443 25.5929 14.2525 25.5936Z" fill="#C49047"/>
<path d="M14.1708 25.5179C14.116 25.4495 14.0757 25.3872 14.0049 25.3162C13.9635 25.2746 13.824 25.2349 13.7528 25.2456C13.7226 25.2456 13.7039 25.2593 13.7039 25.2593C13.7039 25.2593 13.8971 25.3112 13.9884 25.4104C14.0766 25.5059 14.2406 25.5876 14.252 25.5933C14.2463 25.5889 14.1995 25.5537 14.1708 25.5179" fill="#FFDEAE"/>
<path d="M11.2244 13.1644C8.55736 13.7033 6.53331 15.2942 5.38889 17.2237C4.44616 18.8114 4.31243 20.0881 4.71109 21.6021C6.63664 29.2339 9.37131 25.222 13.0454 28.9408C13.0768 28.9733 13.0718 29.0147 13.0459 29.0393L12.7665 29.3018C12.7409 29.3259 12.6995 29.3276 12.6715 29.2989C10.406 27.0304 8.64863 27.8937 6.84646 26.6363C5.31648 25.5556 4.65427 23.2986 4.23693 21.421C3.83015 19.5803 4.38221 17.9367 5.55395 16.3919C5.62402 16.2962 5.84522 16.0334 5.88185 15.9924C7.31938 14.427 8.99797 13.42 11.2244 13.1644" fill="#C49047"/>
<path d="M3.34701 15.3233C3.34679 15.3246 3.34725 15.3254 3.34701 15.3265C3.33456 15.4032 3.16693 16.5048 3.33405 17.2778C3.50763 18.0794 3.09017 19.2218 3.09017 19.2218C3.09017 19.2218 2.44356 18.2204 2.4846 17.564C2.53255 16.7736 3.32188 15.3668 3.34701 15.3233" fill="#C49047"/>
<path d="M3.43696 15.9939C3.5859 16.5067 3.75515 16.9249 3.86003 17.5261C3.92152 17.8768 3.63078 18.7088 3.32813 19.0265C3.22268 19.1763 3.09009 19.2218 3.09009 19.2218C3.09009 19.2218 3.50755 18.0794 3.33397 17.2778C3.16685 16.5048 3.33448 15.4032 3.34693 15.3265C3.34882 15.37 3.35958 15.7263 3.43696 15.9939" fill="#FFDEAE"/>
<path d="M5.03226 16.6542C5.03174 16.6553 5.03208 16.6561 5.03157 16.6574C5.00573 16.7306 4.64526 17.7848 4.67252 18.5753C4.70103 19.3949 4.08742 20.4451 4.08742 20.4451C4.08742 20.4451 3.62886 19.3448 3.78576 18.7061C3.97328 17.9368 4.99973 16.6924 5.03226 16.6542Z" fill="#C49047"/>
<path d="M5.00177 17.33C5.05733 17.8612 5.14969 18.3027 5.14621 18.913C5.14443 19.269 4.71063 20.0363 4.35644 20.2952C4.22606 20.4238 4.08746 20.4451 4.08746 20.4451C4.08746 20.4451 4.70108 19.3949 4.67256 18.5753C4.6453 17.7848 5.00577 16.7306 5.03161 16.6574C5.02584 16.7004 4.9732 17.053 5.00177 17.33" fill="#FFDEAE"/>
<path d="M1.67206 17.4273C1.67251 17.4283 1.6732 17.4286 1.67359 17.4297C1.70189 17.4894 2.11626 18.342 2.60661 18.803C3.11518 19.2807 3.37426 20.2827 3.37426 20.2827C3.37426 20.2827 2.43777 19.8934 2.14958 19.4136C1.80162 18.8367 1.67542 17.4699 1.67206 17.4273" fill="#C49047"/>
<path d="M2.05881 17.8537C2.41077 18.1412 2.73124 18.3523 3.09499 18.723C3.30743 18.9389 3.50541 19.6623 3.44672 20.0309C3.44511 20.1869 3.37419 20.2827 3.37419 20.2827C3.37419 20.2827 3.1151 19.2807 2.60653 18.803C2.11619 18.342 1.70182 17.4894 1.67352 17.4297C1.69582 17.4591 1.8754 17.7036 2.05881 17.8537" fill="#FFDEAE"/>
<path d="M1.37952 19.8492C1.38019 19.8501 1.38099 19.8502 1.38168 19.8513C1.42558 19.9053 2.06406 20.6753 2.68214 21.0249C3.32319 21.387 3.83988 22.3491 3.83988 22.3491C3.83988 22.3491 2.78238 22.1846 2.36681 21.7653C1.86561 21.2612 1.39362 19.8921 1.37952 19.8492" fill="#C49047"/>
<path d="M1.88285 20.1893C2.31563 20.3956 2.69698 20.5318 3.16268 20.8203C3.43457 20.9886 3.81881 21.6802 3.85106 22.0728C3.88849 22.2329 3.83985 22.3491 3.83985 22.3491C3.83985 22.3491 3.32316 21.387 2.68211 21.0249C2.06404 20.6753 1.42555 19.9053 1.38165 19.8513C1.41188 19.8758 1.65726 20.0814 1.88285 20.1893" fill="#FFDEAE"/>
<path d="M3.64016 18.8999C3.6402 18.9012 3.64089 18.902 3.64089 18.9033C3.64616 18.9834 3.73332 20.135 4.08202 20.8767C4.44381 21.6457 4.28818 22.8965 4.28818 22.8965C4.28818 22.8965 3.40216 22.0358 3.29082 21.3633C3.1553 20.554 3.62489 18.9497 3.64016 18.8999" fill="#C49047"/>
<path d="M3.88709 19.5561C4.15687 20.0394 4.4251 20.4223 4.67099 21.005C4.81473 21.3449 4.71477 22.2528 4.48306 22.6439C4.41143 22.8197 4.2881 22.8965 4.2881 22.8965C4.2881 22.8965 4.44373 21.6457 4.08194 20.8767C3.73324 20.135 3.64608 18.9834 3.64081 18.9033C3.65288 18.9466 3.74667 19.3039 3.88709 19.5561" fill="#FFDEAE"/>
<path d="M1.47736 23.628C1.47861 23.6285 1.47948 23.6281 1.48074 23.6287C1.55646 23.6556 2.64819 24.0318 3.4674 24.0056C4.31684 23.9781 5.40365 24.6167 5.40365 24.6167C5.40365 24.6167 4.26225 25.0891 3.60074 24.9249C2.80399 24.7286 1.51702 23.6618 1.47736 23.628" fill="#C49047"/>
<path d="M2.17777 23.6614C2.72835 23.605 3.18616 23.5105 3.81854 23.5157C4.18759 23.5183 4.98159 23.9698 5.24891 24.3375C5.38191 24.473 5.40363 24.6167 5.40363 24.6167C5.40363 24.6167 4.31682 23.9782 3.46737 24.0056C2.64817 24.0318 1.55643 23.6557 1.48071 23.6288C1.52524 23.6348 1.89056 23.6903 2.17777 23.6614" fill="#FFDEAE"/>
<path d="M3.8147 22.4254C3.81533 22.4266 3.81625 22.4268 3.81688 22.428C3.85757 22.4974 4.45198 23.4874 5.09635 23.9939C5.76473 24.5189 6.1867 25.7067 6.1867 25.7067C6.1867 25.7067 5.00868 25.3348 4.60756 24.7837C4.1234 24.1213 3.82339 22.4767 3.8147 22.4254" fill="#C49047"/>
<path d="M4.32986 22.9012C4.78779 23.212 5.19925 23.4338 5.68038 23.8443C5.9613 24.0836 6.27926 24.9399 6.24764 25.3933C6.26251 25.5826 6.18672 25.7067 6.18672 25.7067C6.18672 25.7067 5.76475 24.5189 5.09637 23.9939C4.452 23.4874 3.85759 22.4974 3.81689 22.428C3.84707 22.4614 4.09124 22.7386 4.32986 22.9012" fill="#FFDEAE"/>
<path d="M6.38646 22.1773C6.38652 22.1787 6.38721 22.1793 6.38726 22.1806C6.39354 22.2608 6.49596 23.411 6.85444 24.148C7.22641 24.9123 7.08729 26.165 7.08729 26.165C7.08729 26.165 6.18995 25.3161 6.06975 24.6452C5.9235 23.8378 6.37183 22.2273 6.38646 22.1773" fill="#C49047"/>
<path d="M6.64212 22.8303C6.9183 23.3099 7.19155 23.6892 7.44509 24.2685C7.59335 24.6065 7.5054 25.5156 7.27894 25.9098C7.20968 26.0866 7.0873 26.165 7.0873 26.165C7.0873 26.165 7.22642 24.9123 6.85445 24.148C6.49597 23.411 6.39355 22.2608 6.38727 22.1806C6.3999 22.2238 6.49837 22.5799 6.64212 22.8303" fill="#FFDEAE"/>
<path d="M8.13991 23.2559C8.13997 23.2572 8.14065 23.258 8.14065 23.2593C8.14694 23.3395 8.24936 24.4895 8.60784 25.2266C8.97981 25.9907 8.84075 27.2437 8.84075 27.2437C8.84075 27.2437 7.94341 26.3945 7.82315 25.7237C7.67695 24.9163 8.12528 23.3058 8.13991 23.2559" fill="#C49047"/>
<path d="M8.39554 23.9089C8.67166 24.3884 8.94498 24.7677 9.19852 25.3471C9.34678 25.6851 9.25882 26.5941 9.03237 26.9883C8.96305 27.1651 8.84073 27.2437 8.84073 27.2437C8.84073 27.2437 8.97979 25.9907 8.60782 25.2266C8.24934 24.4895 8.14692 23.3395 8.14062 23.2593C8.15327 23.3024 8.2518 23.6584 8.39554 23.9089" fill="#FFDEAE"/>
<path d="M2.88684 26.2648C2.88822 26.2651 2.88902 26.2647 2.89044 26.2649C2.97337 26.2797 4.16626 26.4804 5.00827 26.3121C5.88127 26.1374 7.11434 26.61 7.11434 26.61C7.11434 26.61 6.01627 27.2949 5.30447 27.2391C4.44735 27.1736 2.93359 26.2929 2.88684 26.2648Z" fill="#C49047"/>
<path d="M3.61637 26.1785C4.17558 26.0256 4.63237 25.849 5.28669 25.7452C5.66848 25.6845 6.56674 26.0143 6.9063 26.3482C7.06713 26.4651 7.11435 26.61 7.11435 26.61C7.11435 26.61 5.88127 26.1374 5.00828 26.3121C4.16626 26.4804 2.97337 26.2797 2.89044 26.2649C2.93748 26.2636 3.32454 26.2579 3.61637 26.1785" fill="#FFDEAE"/>
<path d="M6.38727 29.0248C6.38841 29.0245 6.3888 29.0238 6.38989 29.0235C6.45699 28.9993 7.41623 28.6435 7.96264 28.165C8.529 27.6688 9.63232 27.4953 9.63232 27.4953C9.63232 27.4953 9.11604 28.4604 8.57059 28.7199C7.91456 29.0331 6.43339 29.0257 6.38727 29.0248Z" fill="#C49047"/>
<path d="M6.88572 28.654C7.23122 28.306 7.49162 27.9838 7.92772 27.6319C8.18201 27.4265 8.9796 27.2894 9.36941 27.3911C9.53665 27.4091 9.63227 27.4953 9.63227 27.4953C9.63227 27.4953 8.52894 27.6688 7.96259 28.165C7.41618 28.6435 6.45693 28.9993 6.38983 29.0234C6.42379 29.0025 6.70522 28.8353 6.88572 28.654Z" fill="#FFDEAE"/>
<path d="M12.2971 11.5553C12.2959 11.5556 12.2956 11.5563 12.2946 11.5568C12.231 11.5824 11.3219 11.959 10.8141 12.4386C10.2877 12.936 9.23358 13.1426 9.23358 13.1426C9.23358 13.1426 9.69488 12.1963 10.2097 11.9274C10.8288 11.6026 12.2528 11.5562 12.2971 11.5553" fill="#C49047"/>
<path d="M11.8314 11.9298C11.512 12.2767 11.2733 12.5956 10.8669 12.9496C10.6299 13.1563 9.86829 13.3168 9.48997 13.2333C9.32863 13.222 9.23358 13.1426 9.23358 13.1426C9.23358 13.1426 10.2877 12.936 10.8141 12.4386C11.3219 11.959 12.231 11.5824 12.2946 11.5568C12.2627 11.578 11.9983 11.749 11.8314 11.9298" fill="#FFDEAE"/>
<path d="M10.0893 11.0349C10.0886 11.0357 10.0887 11.0366 10.0881 11.0375C10.051 11.0951 9.52742 11.9283 9.39052 12.6132C9.2489 13.3234 8.5085 14.1017 8.5085 14.1017C8.5085 14.1017 8.3375 13.063 8.60184 12.5459C8.919 11.9226 10.0536 11.0612 10.0893 11.0349" fill="#C49047"/>
<path d="M9.92606 11.6096C9.8661 12.0775 9.85599 12.4757 9.72928 12.9995C9.65555 13.3053 9.12709 13.8767 8.77015 14.0274C8.63201 14.1115 8.50854 14.1017 8.50854 14.1017C8.50854 14.1017 9.24894 13.3234 9.39056 12.6132C9.52746 11.9283 10.0511 11.0952 10.0881 11.0375C10.0744 11.0734 9.95766 11.3657 9.92606 11.6096" fill="#FFDEAE"/>
<path d="M8.31963 11.8566C8.31934 11.8574 8.31963 11.858 8.3193 11.8589C8.30368 11.9119 8.08724 12.6751 8.1365 13.2359C8.18777 13.8175 7.79124 14.5873 7.79124 14.5873C7.79124 14.5873 7.42367 13.8223 7.51105 13.3625C7.6153 12.8085 8.29796 11.8851 8.31963 11.8566" fill="#C49047"/>
<path d="M8.32355 12.3382C8.3831 12.7138 8.46546 13.0242 8.48598 13.4581C8.49821 13.7113 8.21877 14.2731 7.97678 14.4705C7.88898 14.5669 7.79126 14.5873 7.79126 14.5873C7.79126 14.5873 8.1878 13.8175 8.13653 13.2359C8.08726 12.6751 8.30371 11.9119 8.31932 11.8589C8.31686 11.8898 8.29268 12.1423 8.32355 12.3382" fill="#FFDEAE"/>
<path d="M11.916 13.7038C11.9149 13.704 11.9145 13.7046 11.9136 13.7049C11.8557 13.7197 11.0274 13.9415 10.534 14.2978C10.0225 14.6674 9.08826 14.7256 9.08826 14.7256C9.08826 14.7256 9.59477 13.9608 10.0702 13.7871C10.6421 13.5771 11.8775 13.6995 11.916 13.7038" fill="#C49047"/>
<path d="M11.4709 13.9742C11.1553 14.2375 10.9128 14.4858 10.5213 14.7452C10.293 14.8968 9.61671 14.9486 9.29945 14.8331C9.1613 14.805 9.08826 14.7256 9.08826 14.7256C9.08826 14.7256 10.0225 14.6673 10.534 14.2977C11.0274 13.9415 11.8557 13.7196 11.9136 13.7049C11.8836 13.7195 11.6358 13.8371 11.4709 13.9742" fill="#FFDEAE"/>
<path d="M9.38719 13.1927C9.38644 13.1936 9.38656 13.1944 9.38582 13.1951C9.34597 13.2469 8.7818 13.9965 8.5969 14.636C8.40537 15.2994 7.63966 15.9794 7.63966 15.9794C7.63966 15.9794 7.56044 14.9788 7.85302 14.5089C8.2043 13.9423 9.35118 13.2148 9.38719 13.1927" fill="#C49047"/>
<path d="M9.18599 13.7256C9.09158 14.1653 9.05002 14.5427 8.88758 15.0302C8.7931 15.3146 8.24527 15.8152 7.89417 15.9296C7.75613 15.9985 7.63965 15.9794 7.63965 15.9794C7.63965 15.9794 8.40536 15.2994 8.59689 14.636C8.78179 13.9965 9.34596 13.2469 9.38581 13.1951C9.36992 13.228 9.23555 13.4965 9.18599 13.7256" fill="#FFDEAE"/>
<path d="M9.88298 15.3816C9.88194 15.3819 9.88166 15.3826 9.88063 15.383C9.82102 15.4098 8.96895 15.8022 8.5029 16.2778C8.01983 16.771 7.02332 17.0067 7.02332 17.0067C7.02332 17.0067 7.42781 16.0883 7.9083 15.8131C8.4861 15.4808 9.84074 15.3839 9.88298 15.3816" fill="#C49047"/>
<path d="M9.45322 15.7554C9.16168 16.0976 8.94608 16.4103 8.57206 16.7625C8.35396 16.9682 7.63437 17.1492 7.27092 17.0836C7.11677 17.0788 7.02332 17.0067 7.02332 17.0067C7.02332 17.0067 8.01983 16.771 8.5029 16.2777C8.96895 15.8022 9.82102 15.4098 9.88063 15.383C9.85108 15.4044 9.60549 15.577 9.45322 15.7554" fill="#FFDEAE"/>
<path d="M6.06455 13.2555C6.06444 13.257 6.06506 13.2577 6.06501 13.259C6.063 13.3407 6.04683 14.5137 6.33237 15.2959C6.62884 16.107 6.35788 17.3587 6.35788 17.3587C6.35788 17.3587 5.53929 16.4072 5.48762 15.7167C5.4239 14.8855 6.04455 13.3045 6.06455 13.2555Z" fill="#C49047"/>
<path d="M6.25506 13.942C6.48421 14.4555 6.72093 14.8672 6.91693 15.4793C7.03158 15.8361 6.84811 16.7458 6.57816 17.1206C6.48974 17.2921 6.35795 17.3587 6.35795 17.3587C6.35795 17.3587 6.62892 16.107 6.33245 15.2959C6.04691 14.5137 6.06307 13.3407 6.06508 13.259C6.07332 13.3039 6.13584 13.6741 6.25506 13.942Z" fill="#FFDEAE"/>
<path d="M7.76141 14.7676C7.76067 14.7688 7.76089 14.7696 7.7602 14.7708C7.72088 14.8425 7.16653 15.8764 7.06011 16.7024C6.94996 17.5588 6.13334 18.5452 6.13334 18.5452C6.13334 18.5452 5.84453 17.3239 6.11642 16.687C6.44243 15.9197 7.72112 14.8018 7.76141 14.7676" fill="#C49047"/>
<path d="M7.61443 15.4648C7.58155 16.0261 7.60226 16.5006 7.49457 17.134C7.43205 17.5036 6.85049 18.2268 6.43834 18.4353C6.28099 18.5468 6.1333 18.5452 6.1333 18.5452C6.1333 18.5452 6.94993 17.5588 7.06008 16.7024C7.16649 15.8764 7.72085 14.8425 7.76016 14.7708C7.74679 14.8146 7.63198 15.172 7.61443 15.4648Z" fill="#FFDEAE"/>
<path d="M8.65134 17.3587C8.65042 17.3593 8.6503 17.3602 8.64934 17.3609C8.5947 17.4066 7.81733 18.0701 7.46926 18.7066C7.1086 19.3668 6.1333 19.9088 6.1333 19.9088C6.1333 19.9088 6.28585 18.826 6.70829 18.3952C7.21594 17.8758 8.60778 17.3736 8.65134 17.3587" fill="#C49047"/>
<path d="M8.31127 17.8779C8.10676 18.323 7.97325 18.7147 7.68518 19.1946C7.51732 19.4748 6.81625 19.8774 6.41571 19.9161C6.25264 19.9568 6.1333 19.9088 6.1333 19.9088C6.1333 19.9088 7.1086 19.3668 7.46926 18.7066C7.81733 18.0701 8.5947 17.4066 8.64934 17.3609C8.62466 17.3921 8.4182 17.6458 8.31127 17.8779" fill="#FFDEAE"/>
<path d="M5.19926 17.0067C5.1995 17.0077 5.20007 17.0081 5.20024 17.009C5.21441 17.068 5.42708 17.9118 5.78127 18.4178C6.14873 18.9423 6.19383 19.8912 6.19383 19.8912C6.19383 19.8912 5.42531 19.3657 5.25631 18.8808C5.05169 18.2972 5.19429 17.0456 5.19926 17.0067" fill="#C49047"/>
<path d="M5.46699 17.4623C5.7294 17.7864 5.97773 18.0363 6.2351 18.4374C6.38553 18.6713 6.42795 19.3583 6.30616 19.6784C6.27552 19.8182 6.19384 19.8912 6.19384 19.8912C6.19384 19.8912 6.14875 18.9423 5.78128 18.4178C5.42709 17.9118 5.21442 17.068 5.20026 17.009C5.21477 17.0397 5.33033 17.293 5.46699 17.4623" fill="#FFDEAE"/>
<path d="M7.74674 19.5842C7.746 19.5848 7.74588 19.5856 7.74507 19.5861C7.69958 19.6262 7.05224 20.2077 6.76966 20.757C6.47691 21.3266 5.65851 21.8087 5.65851 21.8087C5.65851 21.8087 5.76504 20.884 6.1153 20.5084C6.53618 20.0552 7.70999 19.598 7.74674 19.5842Z" fill="#C49047"/>
<path d="M7.46845 20.0334C7.30401 20.4166 7.19878 20.7529 6.96394 21.1675C6.82711 21.4097 6.2391 21.7674 5.89901 21.809C5.76111 21.847 5.65851 21.8087 5.65851 21.8087C5.65851 21.8087 6.47691 21.3266 6.76966 20.7569C7.05224 20.2077 7.69958 19.6262 7.74507 19.5861C7.72479 19.6133 7.55452 19.8337 7.46845 20.0334" fill="#FFDEAE"/>
<path d="M5.7503 19.3311C5.74996 19.3324 5.75041 19.3333 5.75002 19.3346C5.73128 19.4159 5.4739 20.5858 5.59873 21.4268C5.72847 22.2988 5.20019 23.495 5.20019 23.495C5.20019 23.495 4.57713 22.3751 4.66738 21.6739C4.77449 20.8295 5.72024 19.376 5.7503 19.3311Z" fill="#C49047"/>
<path d="M5.79957 20.0568C5.92321 20.6175 6.07535 21.0778 6.14554 21.7301C6.1868 22.1107 5.81632 22.9829 5.46927 23.3022C5.34565 23.4555 5.20013 23.495 5.20013 23.495C5.20013 23.495 5.72842 22.2988 5.59868 21.4268C5.47385 20.5858 5.73122 19.4159 5.74997 19.3346C5.74899 19.3813 5.73545 19.7643 5.79957 20.0568" fill="#FFDEAE"/>
</svg>
