<svg width="20" height="31" viewBox="0 0 20 31" fill="none" xmlns="http://www.w3.org/2000/svg">
<path d="M14.5419 11.6262C17.7817 13.28 20 16.6493 20 20.537C20 26.0598 15.5227 30.5373 9.99971 30.5373C4.47676 30.5373 0 26.0598 0 20.537C0 16.7406 2.11533 13.4383 5.23221 11.7444C6.64901 10.9749 8.27315 10.5373 9.99971 10.5373C11.6351 10.5373 13.1792 10.9298 14.5419 11.6262Z" fill="#E3E3E3"/>
<path d="M9.99973 30.1279C7.43798 30.1279 5.02958 29.1303 3.2183 27.3187C1.40688 25.5073 0.409424 23.0988 0.409424 20.537C0.409424 17.0176 2.33234 13.7863 5.42771 12.1041C6.82198 11.3469 8.40296 10.9465 9.99973 10.9465C11.5342 10.9465 12.9997 11.2978 14.3556 11.9907C15.9063 12.7822 17.2144 13.9822 18.1389 15.4609C19.0886 16.9804 19.5908 18.7357 19.5908 20.537C19.5908 23.0988 18.593 25.5073 16.7816 27.3187C14.97 29.1303 12.5616 30.1279 9.99973 30.1279" fill="#C9C9C9"/>
<path d="M9.99976 28.9584C7.75041 28.9584 5.63581 28.0823 4.04533 26.4918C2.45484 24.9012 1.57898 22.7864 1.57898 20.537C1.57898 17.4468 3.26735 14.6097 5.98537 13.1326C7.20947 12.4675 8.59774 12.1161 9.99976 12.1161C11.3472 12.1161 12.6339 12.4245 13.8245 13.0329C15.1862 13.7279 16.3348 14.7816 17.1463 16.08C17.9804 17.4141 18.4211 18.9553 18.4211 20.537C18.4211 22.7864 17.5453 24.9011 15.9546 26.4918C14.364 28.0823 12.2493 28.9584 9.99976 28.9584Z" stroke="#929292" stroke-width="2.61099" stroke-miterlimit="10"/>
<path d="M9.99988 26.2473C8.47465 26.2473 7.04073 25.6534 5.96222 24.575C4.88385 23.4963 4.28979 22.0624 4.28979 20.537C4.28979 18.4417 5.43474 16.5178 7.27777 15.5162C8.10783 15.0653 9.0491 14.8271 9.99988 14.8271C10.9135 14.8271 11.786 15.0361 12.5934 15.4486C13.5167 15.9201 14.2955 16.6344 14.8458 17.5148C15.4113 18.4195 15.7103 19.4646 15.7103 20.537C15.7103 22.0624 15.1162 23.4963 14.0377 24.575C12.9592 25.6534 11.5251 26.2473 9.99988 26.2473V26.2473Z" stroke="#C9C9C9" stroke-width="1.865" stroke-miterlimit="10"/>
<path d="M9.99991 27.4904C8.14269 27.4904 6.39652 26.7671 5.08331 25.4537C3.7701 24.1403 3.047 22.3944 3.047 20.537C3.047 17.9855 4.44112 15.6429 6.68521 14.4232C7.69598 13.8742 8.84224 13.5841 9.99991 13.5841C11.1124 13.5841 12.1748 13.8388 13.1579 14.341C14.2821 14.915 15.2305 15.785 15.9005 16.8569C16.5892 17.9586 16.9533 19.2311 16.9533 20.537C16.9533 22.3942 16.2299 24.1403 14.9167 25.4537C13.6033 26.7671 11.8571 27.4904 9.99991 27.4904V27.4904Z" stroke="#929292" stroke-width="2.61099" stroke-miterlimit="10"/>
<path d="M13.0531 10.1034V9.73382C13.0531 9.62686 12.9663 9.54009 12.8592 9.54009H6.78145C6.67449 9.54009 6.58772 9.62686 6.58772 9.73382V10.1034C6.58772 10.211 6.67449 10.2977 6.78145 10.2977H12.8592C12.9663 10.2977 13.0531 10.211 13.0531 10.1034ZM14.0552 9.82688C14.3098 10.3946 14.4513 11.0059 14.4739 11.6262C13.111 10.9298 11.5669 10.5371 9.93169 10.5371C8.20513 10.5371 6.58099 10.9749 5.16418 11.7444C5.1715 11.0836 5.31519 10.4307 5.58558 9.82688L5.71171 9.54565C5.85261 9.23078 6.14554 9.01057 6.48749 8.96272L6.85987 8.91034C8.82362 8.63541 10.8172 8.63541 12.7815 8.91034L13.1533 8.96272C13.4953 9.01057 13.7882 9.23078 13.9291 9.54565L14.0552 9.82688Z" fill="#C9C9C9"/>
<path d="M16.1683 -1.92213e-05L12.701 9.68262H10.7743L14.2315 0.00788256V-1.92213e-05H16.1683" fill="#FF545F"/>
<path d="M14.2316 -1.92213e-05V0.00788256L10.7744 9.68262H8.87207L12.3293 0.00788256V-1.92213e-05H14.2316Z" fill="#62DADC"/>
<path d="M12.3294 -1.92213e-05V0.00788256L8.87214 9.68262H6.92859L10.3959 -1.92213e-05H12.3294Z" fill="#AC748C"/>
<path d="M19.3348 20.5373C19.3348 23.6909 16.7783 26.2473 13.6245 26.2473C10.4709 26.2473 7.91431 23.6909 7.91431 20.5373C7.91431 17.3835 10.4709 14.8271 13.6245 14.8271C16.7783 14.8271 19.3348 17.3835 19.3348 20.5373Z" fill="#9A9898"/>
<path d="M3.46057 -1.92213e-05L6.92788 9.68262H8.85446L5.39724 0.00788256V-1.92213e-05H3.46057" fill="#AC748C"/>
<path d="M5.39722 -1.92213e-05V0.00788256L8.85443 9.68262H10.7569L7.29965 0.00788256V-1.92213e-05H5.39722" fill="#62DADC"/>
<path d="M7.29968 -1.92213e-05V0.00788256L10.7569 9.68262H12.7003L9.23299 -1.92213e-05H7.29968" fill="#FF545F"/>
<path d="M18.963 20.5373C18.963 23.4855 16.573 25.8756 13.6247 25.8756C10.6765 25.8756 8.28638 23.4855 8.28638 20.5373C8.28638 17.589 10.6765 15.1989 13.6247 15.1989C16.573 15.1989 18.963 17.589 18.963 20.5373Z" fill="#E3E3E3"/>
<path d="M17.6896 20.5373C17.6896 22.7823 15.8697 24.6022 13.6246 24.6022C11.3796 24.6022 9.55957 22.7823 9.55957 20.5373C9.55957 18.2922 11.3796 16.4723 13.6246 16.4723C15.8697 16.4723 17.6896 18.2922 17.6896 20.5373Z" fill="#929292"/>
<path d="M8.82735 18.7591C8.82735 18.7595 8.82749 18.7598 8.82749 18.7602C8.8272 18.785 8.82574 19.1399 8.91455 19.3756C9.00659 19.6201 8.92831 19.9997 8.92831 19.9997C8.92831 19.9997 8.67781 19.7142 8.66025 19.5054C8.63845 19.2542 8.8215 18.774 8.82735 18.7591Z" fill="#929292"/>
<path d="M8.88699 18.9662C8.95781 19.1209 9.03067 19.2448 9.09184 19.4293C9.12754 19.537 9.07472 19.8128 8.99424 19.927C8.96805 19.9792 8.92825 19.9997 8.92825 19.9997C8.92825 19.9997 9.00653 19.6201 8.9145 19.3756C8.82568 19.1399 8.82715 18.785 8.82744 18.7602C8.83007 18.7737 8.85012 18.8855 8.88699 18.9662Z" fill="#E6E6E6"/>
<path d="M9.66295 19.1025C9.66266 19.1028 9.66266 19.1031 9.66237 19.1034C9.64583 19.1217 9.41041 19.3874 9.32145 19.6231C9.22912 19.8675 8.9198 20.1008 8.9198 20.1008C8.9198 20.1008 8.92009 19.7211 9.04461 19.5526C9.19415 19.3495 9.64876 19.1097 9.66295 19.1025" fill="#929292"/>
<path d="M9.57106 19.2974C9.52219 19.4604 9.49513 19.6014 9.41919 19.7805C9.375 19.885 9.15318 20.0572 9.01725 20.0899C8.96311 20.1117 8.9198 20.1008 8.9198 20.1008C8.9198 20.1008 9.22912 19.8674 9.32145 19.6231C9.41041 19.3874 9.64583 19.1217 9.66237 19.1034C9.65549 19.1152 9.59667 19.2124 9.57106 19.2974" fill="#E6E6E6"/>
<path d="M8.60652 19.6286C8.60652 19.6289 8.60682 19.6292 8.60682 19.6295C8.61004 19.6541 8.66066 20.0054 8.78298 20.2257C8.90984 20.4541 8.88804 20.841 8.88804 20.841C8.88804 20.841 8.59847 20.5953 8.55034 20.3914C8.4921 20.146 8.60287 19.6441 8.60652 19.6286" fill="#929292"/>
<path d="M8.69577 19.8247C8.78854 19.9673 8.87882 20.0793 8.96632 20.2528C9.01738 20.3542 9.00553 20.6347 8.94261 20.7594C8.92418 20.8148 8.88804 20.841 8.88804 20.841C8.88804 20.841 8.90984 20.4541 8.78298 20.2257C8.66066 20.0054 8.61003 19.6541 8.60681 19.6295C8.61135 19.6427 8.64749 19.7503 8.69577 19.8247" fill="#E6E6E6"/>
<path d="M9.48332 19.8458C9.48303 19.8462 9.48303 19.8465 9.48288 19.8468C9.46913 19.8673 9.27511 20.1646 9.22156 20.4109C9.1661 20.6662 8.89424 20.9423 8.89424 20.9423C8.89424 20.9423 8.83894 20.5667 8.93755 20.3818C9.05578 20.1589 9.4703 19.8552 9.48332 19.8458" fill="#929292"/>
<path d="M9.42077 20.0522C9.39633 20.2205 9.39019 20.3642 9.34132 20.5523C9.31278 20.6621 9.11862 20.865 8.98898 20.9171C8.93865 20.9467 8.89417 20.9423 8.89417 20.9423C8.89417 20.9423 9.16603 20.6662 9.22148 20.4108C9.27503 20.1646 9.46905 19.8673 9.48281 19.8468C9.47754 19.8597 9.43365 19.9644 9.42077 20.0522" fill="#E6E6E6"/>
<path d="M8.51538 20.5726C8.51553 20.5728 8.51582 20.573 8.51582 20.5734C8.52475 20.5965 8.65541 20.9265 8.82528 21.1126C9.00174 21.3053 9.07007 21.6868 9.07007 21.6868C9.07007 21.6868 8.73149 21.5148 8.63741 21.3276C8.52387 21.1024 8.51538 20.5885 8.51538 20.5726Z" fill="#929292"/>
<path d="M8.64773 20.7426C8.77093 20.8599 8.88462 20.9479 9.00987 21.0965C9.08302 21.1831 9.13658 21.4588 9.10424 21.5947C9.09912 21.653 9.07 21.6868 9.07 21.6868C9.07 21.6868 9.00167 21.3053 8.82521 21.1126C8.65533 20.9265 8.52467 20.5965 8.51575 20.5734C8.52336 20.585 8.58349 20.6814 8.64773 20.7426" fill="#E6E6E6"/>
<path d="M9.41849 20.5807C9.41834 20.5812 9.41849 20.5815 9.41834 20.5818C9.40971 20.605 9.28988 20.9391 9.2947 21.191C9.29997 21.4522 9.09951 21.7839 9.09951 21.7839C9.09951 21.7839 8.95861 21.4311 9.01172 21.2285C9.07508 20.9843 9.40795 20.5929 9.41849 20.5807Z" fill="#929292"/>
<path d="M9.40571 20.796C9.42078 20.9654 9.44814 21.1064 9.44419 21.3009C9.44185 21.4143 9.30007 21.6566 9.18594 21.7374C9.1438 21.7778 9.09961 21.7839 9.09961 21.7839C9.09961 21.7839 9.30007 21.4522 9.2948 21.191C9.28997 20.9391 9.40981 20.605 9.41844 20.5818C9.41639 20.5955 9.39781 20.7076 9.40571 20.796Z" fill="#E6E6E6"/>
<path d="M8.62195 21.4577C8.62209 21.4581 8.62239 21.4581 8.62253 21.4585C8.63395 21.4805 8.79987 21.7942 8.98935 21.9604C9.18586 22.1326 9.2956 22.5043 9.2956 22.5043C9.2956 22.5043 8.94019 22.3705 8.82621 22.1948C8.68852 21.9834 8.6237 21.4736 8.62195 21.4577" fill="#929292"/>
<path d="M8.77212 21.6123C8.90746 21.7153 9.03008 21.7902 9.17098 21.9241C9.25322 22.0023 9.33662 22.2705 9.3195 22.409C9.32081 22.4674 9.2955 22.5043 9.2955 22.5043C9.2955 22.5043 9.18576 22.1326 8.98925 21.9604C8.79977 21.7942 8.63385 21.4805 8.62244 21.4585C8.63122 21.4692 8.70159 21.5585 8.77212 21.6123" fill="#E6E6E6"/>
<path d="M9.52052 21.3666C9.52037 21.3671 9.52052 21.3674 9.52037 21.3678C9.51437 21.3918 9.432 21.737 9.46448 21.9869C9.49843 22.2459 9.33557 22.5976 9.33557 22.5976C9.33557 22.5976 9.15677 22.2625 9.1872 22.0552C9.22349 21.8056 9.5113 21.3798 9.52052 21.3666Z" fill="#929292"/>
<path d="M9.53134 21.582C9.565 21.7488 9.60758 21.8859 9.62499 22.0796C9.63523 22.1926 9.52081 22.4491 9.41634 22.5419C9.37888 22.5867 9.33557 22.5976 9.33557 22.5976C9.33557 22.5976 9.49842 22.2459 9.46448 21.9869C9.432 21.737 9.51437 21.3918 9.52037 21.3678C9.51993 21.3816 9.51379 21.495 9.53134 21.582" fill="#E6E6E6"/>
<path d="M8.85718 22.3257C8.85732 22.3262 8.85761 22.3262 8.85791 22.3265C8.87312 22.3461 9.09436 22.6235 9.31135 22.7516C9.53639 22.8845 9.71314 23.2292 9.71314 23.2292C9.71314 23.2292 9.339 23.1639 9.19444 23.0123C9.02003 22.8301 8.86186 22.3411 8.85718 22.3257Z" fill="#929292"/>
<path d="M9.03335 22.4498C9.18552 22.5259 9.31998 22.5768 9.48328 22.6825C9.57853 22.7439 9.71022 22.9919 9.719 23.1314C9.73114 23.1884 9.71315 23.2292 9.71315 23.2292C9.71315 23.2292 9.53639 22.8845 9.31135 22.7516C9.09436 22.6235 8.87313 22.3461 8.85791 22.3265C8.86845 22.3354 8.95404 22.41 9.03335 22.4498" fill="#E6E6E6"/>
<path d="M9.72323 22.0698C9.72308 22.0702 9.72337 22.0704 9.72323 22.0708C9.72191 22.0956 9.70479 22.4501 9.78307 22.6896C9.86442 22.9379 9.76961 23.3135 9.76961 23.3135C9.76961 23.3135 9.53184 23.0173 9.52335 22.8081C9.51267 22.556 9.71664 22.0844 9.72323 22.0698Z" fill="#929292"/>
<path d="M9.77378 22.2793C9.83772 22.4369 9.90518 22.5639 9.95814 22.7509C9.98902 22.86 9.92419 23.1332 9.83874 23.2438C9.81021 23.2948 9.76968 23.3135 9.76968 23.3135C9.76968 23.3135 9.8645 22.9379 9.78314 22.6896C9.70486 22.4501 9.72198 22.0956 9.7233 22.0708C9.72535 22.0844 9.74042 22.1971 9.77378 22.2793" fill="#E6E6E6"/>
<path d="M9.22363 23.1218C9.22393 23.1221 9.22422 23.1221 9.22451 23.1225C9.24295 23.139 9.5094 23.3735 9.74541 23.4616C9.9902 23.5531 10.2247 23.8615 10.2247 23.8615C10.2247 23.8615 9.8449 23.8627 9.67605 23.7386C9.47238 23.5898 9.23095 23.136 9.22363 23.1218" fill="#929292"/>
<path d="M9.41907 23.2132C9.58221 23.2615 9.72341 23.288 9.90265 23.3633C10.0073 23.4071 10.1804 23.6282 10.2134 23.764C10.2354 23.8182 10.2248 23.8615 10.2248 23.8615C10.2248 23.8615 9.9903 23.5531 9.74551 23.4616C9.50949 23.3735 9.24305 23.139 9.22461 23.1225C9.23661 23.1294 9.33391 23.1878 9.41907 23.2132" fill="#E6E6E6"/>
<path d="M10.0315 22.7181C10.0315 22.7186 10.0318 22.7188 10.0318 22.7192C10.0347 22.7438 10.0801 23.0958 10.1992 23.3178C10.3227 23.5481 10.295 23.9345 10.295 23.9345C10.295 23.9345 10.0091 23.6846 9.96407 23.48C9.9095 23.2338 10.0277 22.7337 10.0315 22.7181" fill="#929292"/>
<path d="M10.118 22.9156C10.2086 23.0595 10.2973 23.1728 10.3821 23.3476C10.4318 23.4497 10.4158 23.7301 10.351 23.8539C10.3318 23.9091 10.2951 23.9345 10.2951 23.9345C10.2951 23.9345 10.3227 23.5481 10.1993 23.3178C10.0801 23.0958 10.0348 22.7438 10.0319 22.7192C10.0362 22.7322 10.0709 22.8405 10.118 22.9156" fill="#E6E6E6"/>
<path d="M9.82373 23.9167C9.82402 23.9168 9.82432 23.9168 9.82461 23.9169C9.84656 23.9286 10.1622 24.0909 10.4125 24.119C10.6722 24.148 10.9748 24.39 10.9748 24.39C10.9748 24.39 10.6068 24.4835 10.4127 24.4045C10.179 24.3098 9.83427 23.9287 9.82373 23.9167Z" fill="#929292"/>
<path d="M10.0353 23.9575C10.2053 23.9647 10.3487 23.956 10.541 23.9853C10.653 24.0024 10.8749 24.1746 10.94 24.2983C10.9745 24.3452 10.9748 24.39 10.9748 24.39C10.9748 24.39 10.6722 24.148 10.4125 24.1191C10.1621 24.0909 9.84653 23.9286 9.82458 23.917C9.8379 23.9208 9.94662 23.9537 10.0353 23.9575" fill="#E6E6E6"/>
<path d="M10.5089 23.3282C10.5091 23.3285 10.5092 23.3286 10.5093 23.329C10.5181 23.3522 10.6481 23.6825 10.8176 23.8688C10.9935 24.0621 11.061 24.4437 11.061 24.4437C11.061 24.4437 10.7227 24.2709 10.6292 24.0835C10.5161 23.858 10.5089 23.3441 10.5089 23.3282" fill="#929292"/>
<path d="M10.6408 23.4986C10.7637 23.6161 10.8773 23.7044 11.0022 23.8533C11.0751 23.9401 11.1279 24.2159 11.0953 24.3518C11.0902 24.4099 11.0609 24.4437 11.0609 24.4437C11.0609 24.4437 10.9934 24.0621 10.8176 23.8688C10.648 23.6825 10.5181 23.3522 10.5093 23.329C10.5167 23.3406 10.5767 23.4372 10.6408 23.4986" fill="#E6E6E6"/>
<path d="M10.4778 24.4859C10.4782 24.4862 10.4785 24.486 10.4788 24.4863C10.5012 24.497 10.8225 24.6479 11.0737 24.6667C11.3342 24.6861 11.6454 24.9171 11.6454 24.9171C11.6454 24.9171 11.2811 25.024 11.0843 24.952C10.8472 24.8658 10.4889 24.4975 10.4778 24.4859" fill="#929292"/>
<path d="M10.6908 24.5191C10.8609 24.5199 11.004 24.5061 11.197 24.5284C11.3098 24.5414 11.5377 24.7054 11.6073 24.8266C11.6435 24.8724 11.6454 24.917 11.6454 24.917C11.6454 24.917 11.3341 24.6861 11.0737 24.6667C10.8225 24.6478 10.5011 24.4969 10.4788 24.4862C10.4922 24.4895 10.6021 24.5184 10.6908 24.5191" fill="#E6E6E6"/>
<path d="M11.1411 23.8729C11.1413 23.8732 11.1416 23.8733 11.1417 23.8738C11.1514 23.8965 11.2931 24.222 11.4693 24.402C11.6522 24.5887 11.7334 24.9675 11.7334 24.9675C11.7334 24.9675 11.3891 24.8073 11.2889 24.6234C11.1676 24.4021 11.1417 23.8889 11.1411 23.8729Z" fill="#929292"/>
<path d="M11.2793 24.0384C11.4064 24.1513 11.523 24.2355 11.6533 24.3798C11.7295 24.4639 11.7923 24.7375 11.7644 24.8745C11.7615 24.9328 11.7334 24.9675 11.7334 24.9675C11.7334 24.9675 11.6522 24.5887 11.4693 24.402C11.2932 24.222 11.1514 23.8965 11.1417 23.8738C11.1496 23.885 11.213 23.9794 11.2793 24.0384Z" fill="#E6E6E6"/>
<path d="M11.3186 25.0256C11.3189 25.0256 11.3192 25.0255 11.3196 25.0256C11.3439 25.0299 11.6941 25.0885 11.941 25.0389C12.1972 24.9874 12.5592 25.1258 12.5592 25.1258C12.5592 25.1258 12.237 25.327 12.0282 25.3109C11.7767 25.2919 11.3324 25.0338 11.3186 25.0256Z" fill="#929292"/>
<path d="M11.5326 25C11.6966 24.9552 11.8307 24.9032 12.0226 24.8726C12.1346 24.8546 12.3982 24.9512 12.498 25.0492C12.5453 25.0835 12.5592 25.1259 12.5592 25.1259C12.5592 25.1259 12.1972 24.9875 11.941 25.0389C11.694 25.0886 11.3439 25.0299 11.3196 25.0256C11.3333 25.0252 11.447 25.0235 11.5326 25" fill="#E6E6E6"/>
<path d="M12.3053 25.3699C12.3057 25.3699 12.306 25.3698 12.3063 25.3698C12.3311 25.3699 12.686 25.369 12.9213 25.2789C13.1652 25.1852 13.5452 25.261 13.5452 25.261C13.5452 25.261 13.2613 25.5134 13.0527 25.5323C12.8016 25.5557 12.3202 25.3756 12.3053 25.3699Z" fill="#929292"/>
<path d="M12.5121 25.3089C12.6664 25.2371 12.7897 25.1634 12.9739 25.1011C13.0813 25.0647 13.3574 25.1157 13.4721 25.1956C13.5244 25.2215 13.5452 25.2611 13.5452 25.2611C13.5452 25.2611 13.1652 25.1852 12.9212 25.2789C12.686 25.369 12.331 25.3699 12.3063 25.3698C12.3199 25.367 12.4315 25.3463 12.5121 25.3089" fill="#E6E6E6"/>
<path d="M11.7921 24.2563C11.7923 24.2567 11.7926 24.2567 11.7929 24.257C11.8082 24.2763 12.0325 24.5515 12.2508 24.6774C12.4772 24.8079 12.6576 25.1507 12.6576 25.1507C12.6576 25.1507 12.2829 25.0893 12.1367 24.9391C11.9604 24.7589 11.7969 24.2716 11.7921 24.2563Z" fill="#929292"/>
<path d="M11.9696 24.3785C12.1226 24.453 12.2576 24.5025 12.4219 24.6062C12.5179 24.6668 12.6522 24.9134 12.6624 25.0528C12.6753 25.1097 12.6576 25.1507 12.6576 25.1507C12.6576 25.1507 12.4772 24.8079 12.2508 24.6774C12.0325 24.5515 11.8082 24.2763 11.7928 24.257C11.8035 24.2657 11.89 24.3395 11.9696 24.3785" fill="#E6E6E6"/>
<path d="M12.6295 24.6189C12.6297 24.6192 12.6299 24.6192 12.6302 24.6195C12.6464 24.6336 12.8817 24.8367 13.0892 24.9119C13.3043 24.99 13.5122 25.258 13.5122 25.258C13.5122 25.258 13.1796 25.2621 13.0307 25.1551C12.8511 25.0265 12.636 24.6313 12.6295 24.6189" fill="#929292"/>
<path d="M12.8011 24.6971C12.9443 24.7381 13.0681 24.7601 13.2257 24.8246C13.3177 24.862 13.471 25.0542 13.5012 25.1728C13.5209 25.2199 13.512 25.258 13.512 25.258C13.512 25.258 13.3041 24.9899 13.089 24.9119C12.8815 24.8367 12.6462 24.6336 12.63 24.6194C12.6405 24.6253 12.7263 24.6758 12.8011 24.6971Z" fill="#E6E6E6"/>
<path d="M12.9968 25.5938C12.9969 25.5936 12.9969 25.5935 12.9972 25.5933C13.0086 25.5878 13.1726 25.5061 13.2607 25.4106C13.3522 25.3113 13.5452 25.2594 13.5452 25.2594C13.5452 25.2594 13.4717 25.441 13.3795 25.4976C13.2688 25.566 13.005 25.5929 12.9968 25.5938" fill="#929292"/>
<path d="M13.0784 25.5181C13.1333 25.4496 13.1735 25.3873 13.2443 25.3163C13.2857 25.2748 13.425 25.2351 13.4964 25.2458C13.5266 25.2458 13.5452 25.2594 13.5452 25.2594C13.5452 25.2594 13.3522 25.3114 13.2607 25.4106C13.1726 25.5061 13.0086 25.5878 12.9972 25.5933C13.0028 25.5891 13.0497 25.5538 13.0784 25.5181" fill="#E6E6E6"/>
<path d="M18.4218 18.7591C18.4218 18.7595 18.4216 18.7598 18.4216 18.7602C18.4219 18.785 18.4234 19.1399 18.3347 19.3756C18.2425 19.6201 18.3208 19.9997 18.3208 19.9997C18.3208 19.9997 18.5713 19.7142 18.589 19.5054C18.6108 19.2542 18.4276 18.774 18.4218 18.7591Z" fill="#929292"/>
<path d="M18.3622 18.9662C18.2914 19.1209 18.2185 19.2448 18.1574 19.4293C18.1217 19.537 18.1745 19.8128 18.2549 19.927C18.2813 19.9792 18.3209 19.9997 18.3209 19.9997C18.3209 19.9997 18.2427 19.6201 18.3348 19.3756C18.4235 19.1399 18.422 18.785 18.4218 18.7602C18.4191 18.7737 18.3991 18.8855 18.3622 18.9662Z" fill="#E6E6E6"/>
<path d="M17.5863 19.1025C17.5866 19.1028 17.5866 19.1031 17.5869 19.1034C17.6034 19.1217 17.8389 19.3874 17.928 19.6231C18.0201 19.8675 18.3295 20.1008 18.3295 20.1008C18.3295 20.1008 18.3292 19.7211 18.2046 19.5526C18.0551 19.3495 17.6005 19.1097 17.5863 19.1025Z" fill="#929292"/>
<path d="M17.6783 19.2974C17.7272 19.4604 17.7542 19.6014 17.8303 19.7805C17.8745 19.885 18.0962 20.0572 18.2321 20.0899C18.2862 20.1117 18.3295 20.1008 18.3295 20.1008C18.3295 20.1008 18.0202 19.8674 17.928 19.6231C17.8389 19.3874 17.6035 19.1217 17.587 19.1034C17.594 19.1152 17.6527 19.2124 17.6783 19.2974Z" fill="#E6E6E6"/>
<path d="M18.6427 19.6286C18.6427 19.6289 18.6426 19.6292 18.6426 19.6295C18.6392 19.6541 18.5887 20.0054 18.4664 20.2257C18.3394 20.4541 18.3614 20.841 18.3614 20.841C18.3614 20.841 18.6509 20.5953 18.6989 20.3914C18.7573 20.146 18.6465 19.6441 18.6427 19.6286" fill="#929292"/>
<path d="M18.5535 19.8247C18.4607 19.9673 18.3706 20.0793 18.2831 20.2528C18.2319 20.3542 18.2437 20.6347 18.3068 20.7594C18.3251 20.8148 18.3614 20.841 18.3614 20.841C18.3614 20.841 18.3394 20.4541 18.4664 20.2257C18.5887 20.0054 18.6392 19.6541 18.6426 19.6295C18.6379 19.6427 18.6018 19.7503 18.5535 19.8247" fill="#E6E6E6"/>
<path d="M17.766 19.8458C17.7663 19.8462 17.7663 19.8465 17.7666 19.8468C17.7802 19.8673 17.9742 20.1646 18.0278 20.4109C18.0832 20.6662 18.3551 20.9423 18.3551 20.9423C18.3551 20.9423 18.4104 20.5667 18.3119 20.3818C18.1937 20.1589 17.7792 19.8552 17.766 19.8458" fill="#929292"/>
<path d="M17.8285 20.0522C17.8531 20.2205 17.8591 20.3642 17.9081 20.5523C17.9365 20.6621 18.1306 20.865 18.2603 20.9171C18.3106 20.9467 18.3551 20.9423 18.3551 20.9423C18.3551 20.9423 18.0832 20.6662 18.0278 20.4108C17.9742 20.1646 17.7802 19.8673 17.7666 19.8468C17.7717 19.8597 17.8156 19.9644 17.8285 20.0522" fill="#E6E6E6"/>
<path d="M18.7339 20.5726C18.7337 20.5728 18.7336 20.573 18.7335 20.5734C18.7245 20.5965 18.594 20.9265 18.424 21.1126C18.2477 21.3053 18.1792 21.6868 18.1792 21.6868C18.1792 21.6868 18.5179 21.5148 18.6119 21.3276C18.7254 21.1024 18.7339 20.5885 18.7339 20.5726" fill="#929292"/>
<path d="M18.6017 20.7426C18.4783 20.8599 18.3648 20.9479 18.2394 21.0965C18.1662 21.1831 18.1128 21.4588 18.1451 21.5947C18.1501 21.653 18.1792 21.6868 18.1792 21.6868C18.1792 21.6868 18.2477 21.3053 18.424 21.1126C18.594 20.9265 18.7246 20.5965 18.7335 20.5734C18.726 20.585 18.6659 20.6814 18.6017 20.7426" fill="#E6E6E6"/>
<path d="M17.8307 20.5807C17.8308 20.5812 17.8308 20.5815 17.831 20.5818C17.8395 20.605 17.9594 20.9391 17.9545 21.191C17.9494 21.4522 18.1498 21.7839 18.1498 21.7839C18.1498 21.7839 18.2906 21.4311 18.2376 21.2285C18.1741 20.9843 17.8412 20.5929 17.8307 20.5807Z" fill="#929292"/>
<path d="M17.8438 20.796C17.8285 20.9654 17.8012 21.1064 17.8053 21.3009C17.8075 21.4143 17.9494 21.6566 18.0634 21.7374C18.1055 21.7778 18.1499 21.7839 18.1499 21.7839C18.1499 21.7839 17.9494 21.4522 17.9545 21.191C17.9595 20.9391 17.8395 20.605 17.831 20.5818C17.8331 20.5955 17.8515 20.7076 17.8438 20.796Z" fill="#E6E6E6"/>
<path d="M18.6274 21.4577C18.6273 21.4581 18.627 21.4581 18.6269 21.4585C18.6156 21.4805 18.4495 21.7942 18.26 21.9604C18.0637 22.1326 17.9538 22.5043 17.9538 22.5043C17.9538 22.5043 18.3092 22.3705 18.4232 22.1948C18.5609 21.9834 18.6257 21.4736 18.6274 21.4577" fill="#929292"/>
<path d="M18.4773 21.6123C18.3419 21.7153 18.2192 21.7902 18.0783 21.9241C17.9961 22.0023 17.9127 22.2705 17.93 22.409C17.9285 22.4674 17.9538 22.5043 17.9538 22.5043C17.9538 22.5043 18.0637 22.1326 18.2601 21.9604C18.4495 21.7942 18.6156 21.4805 18.6269 21.4585C18.6182 21.4692 18.5479 21.5585 18.4773 21.6123" fill="#E6E6E6"/>
<path d="M17.7288 21.3666C17.7289 21.3671 17.7288 21.3674 17.7289 21.3678C17.7349 21.3918 17.8173 21.737 17.7848 21.9869C17.751 22.2459 17.9139 22.5976 17.9139 22.5976C17.9139 22.5976 18.0925 22.2625 18.0621 22.0552C18.0259 21.8056 17.738 21.3798 17.7288 21.3666Z" fill="#929292"/>
<path d="M17.7181 21.582C17.6843 21.7488 17.6417 21.8859 17.6244 22.0796C17.6142 22.1926 17.7284 22.4491 17.8331 22.5419C17.8705 22.5867 17.9138 22.5976 17.9138 22.5976C17.9138 22.5976 17.751 22.2459 17.7848 21.9869C17.8173 21.737 17.7349 21.3918 17.7289 21.3678C17.7295 21.3816 17.7355 21.495 17.7181 21.582" fill="#E6E6E6"/>
<path d="M18.3922 22.3257C18.392 22.3262 18.3917 22.3262 18.3914 22.3265C18.3763 22.3461 18.1549 22.6235 17.9379 22.7516C17.713 22.8845 17.5361 23.2292 17.5361 23.2292C17.5361 23.2292 17.9103 23.1639 18.0548 23.0123C18.2292 22.8301 18.3876 22.3411 18.3922 22.3257Z" fill="#929292"/>
<path d="M18.2159 22.4498C18.0638 22.5259 17.9294 22.5768 17.7661 22.6825C17.6707 22.7439 17.5391 22.9919 17.5303 23.1314C17.5181 23.1884 17.5361 23.2292 17.5361 23.2292C17.5361 23.2292 17.713 22.8845 17.9379 22.7516C18.1549 22.6235 18.3763 22.3461 18.3914 22.3265C18.3808 22.3354 18.2952 22.41 18.2159 22.4498" fill="#E6E6E6"/>
<path d="M17.526 22.0698C17.526 22.0702 17.5259 22.0704 17.5259 22.0708C17.5273 22.0956 17.5443 22.4501 17.466 22.6896C17.3847 22.9379 17.4795 23.3135 17.4795 23.3135C17.4795 23.3135 17.7172 23.0173 17.7257 22.8081C17.7366 22.556 17.5324 22.0844 17.526 22.0698Z" fill="#929292"/>
<path d="M17.4754 22.2793C17.4115 22.4369 17.3442 22.5639 17.2912 22.7509C17.2602 22.86 17.325 23.1332 17.4106 23.2438C17.439 23.2948 17.4795 23.3135 17.4795 23.3135C17.4795 23.3135 17.3847 22.9379 17.4661 22.6896C17.5443 22.4501 17.5274 22.0956 17.5259 22.0708C17.5239 22.0844 17.5088 22.1971 17.4754 22.2793" fill="#E6E6E6"/>
<path d="M18.0256 23.1218C18.0253 23.1221 18.025 23.1221 18.0247 23.1225C18.0065 23.139 17.7399 23.3735 17.5039 23.4616C17.2591 23.5531 17.0247 23.8615 17.0247 23.8615C17.0247 23.8615 17.4044 23.8627 17.5732 23.7386C17.7769 23.5898 18.0183 23.136 18.0256 23.1218" fill="#929292"/>
<path d="M17.8304 23.2132C17.6673 23.2615 17.5259 23.288 17.3467 23.3633C17.2421 23.4071 17.069 23.6282 17.0359 23.764C17.014 23.8182 17.0246 23.8615 17.0246 23.8615C17.0246 23.8615 17.259 23.5531 17.5038 23.4616C17.7398 23.3735 18.0064 23.139 18.0247 23.1225C18.0129 23.1294 17.9154 23.1878 17.8304 23.2132Z" fill="#E6E6E6"/>
<path d="M17.2176 22.7181C17.2176 22.7186 17.2173 22.7188 17.2173 22.7192C17.2144 22.7438 17.1691 23.0958 17.0501 23.3178C16.9265 23.5481 16.9541 23.9345 16.9541 23.9345C16.9541 23.9345 17.24 23.6846 17.2851 23.48C17.3398 23.2338 17.2216 22.7337 17.2176 22.7181" fill="#929292"/>
<path d="M17.1312 22.9156C17.0407 23.0595 16.9521 23.1728 16.8673 23.3476C16.8175 23.4497 16.8336 23.7301 16.8984 23.8539C16.9174 23.9091 16.9542 23.9345 16.9542 23.9345C16.9542 23.9345 16.9265 23.5481 17.0502 23.3178C17.1691 23.0958 17.2145 22.7438 17.2174 22.7192C17.213 22.7322 17.1785 22.8405 17.1312 22.9156" fill="#E6E6E6"/>
<path d="M17.4258 23.9167C17.4253 23.9168 17.425 23.9168 17.4248 23.9169C17.403 23.9286 17.0872 24.0909 16.8368 24.119C16.5773 24.148 16.2745 24.39 16.2745 24.39C16.2745 24.39 16.6427 24.4835 16.8367 24.4045C17.0705 24.3098 17.4151 23.9287 17.4258 23.9167Z" fill="#929292"/>
<path d="M17.2141 23.9575C17.0442 23.9647 16.9006 23.956 16.7085 23.9853C16.5963 24.0024 16.3746 24.1746 16.3094 24.2983C16.2748 24.3452 16.2745 24.39 16.2745 24.39C16.2745 24.39 16.5773 24.148 16.8368 24.1191C17.0872 24.0909 17.403 23.9286 17.4248 23.917C17.4114 23.9208 17.3027 23.9537 17.2141 23.9575" fill="#E6E6E6"/>
<path d="M16.7405 23.3282C16.7403 23.3285 16.74 23.3286 16.7399 23.329C16.7311 23.3522 16.6013 23.6825 16.4317 23.8688C16.2559 24.0621 16.1884 24.4437 16.1884 24.4437C16.1884 24.4437 16.5266 24.2709 16.6201 24.0835C16.7332 23.858 16.7405 23.3441 16.7405 23.3282" fill="#929292"/>
<path d="M16.6085 23.4986C16.4855 23.6161 16.3721 23.7044 16.2471 23.8533C16.1741 23.9401 16.1213 24.2159 16.1539 24.3518C16.159 24.4099 16.1884 24.4437 16.1884 24.4437C16.1884 24.4437 16.2559 24.0621 16.4318 23.8688C16.6013 23.6825 16.7311 23.3522 16.7399 23.329C16.7324 23.3406 16.6726 23.4372 16.6085 23.4986" fill="#E6E6E6"/>
<path d="M16.7715 24.4859C16.7711 24.4862 16.7708 24.486 16.7705 24.4863C16.7482 24.497 16.4269 24.6479 16.1755 24.6667C15.9151 24.6861 15.6039 24.9171 15.6039 24.9171C15.6039 24.9171 15.9682 25.024 16.165 24.952C16.4022 24.8658 16.7605 24.4975 16.7715 24.4859" fill="#929292"/>
<path d="M16.5585 24.5191C16.3883 24.5199 16.2453 24.5061 16.0522 24.5284C15.9395 24.5414 15.7116 24.7054 15.6421 24.8266C15.6058 24.8724 15.6039 24.917 15.6039 24.917C15.6039 24.917 15.9151 24.6861 16.1755 24.6667C16.4269 24.6478 16.7482 24.4969 16.7705 24.4862C16.757 24.4895 16.6473 24.5184 16.5585 24.5191" fill="#E6E6E6"/>
<path d="M16.1081 23.8729C16.108 23.8732 16.1077 23.8733 16.1075 23.8738C16.0979 23.8965 15.9562 24.222 15.7799 24.402C15.5972 24.5887 15.5158 24.9675 15.5158 24.9675C15.5158 24.9675 15.8601 24.8073 15.9605 24.6234C16.0816 24.4021 16.1075 23.8889 16.1081 23.8729Z" fill="#929292"/>
<path d="M15.97 24.0384C15.8428 24.1513 15.7262 24.2355 15.596 24.3798C15.5199 24.4639 15.4571 24.7375 15.4848 24.8745C15.4877 24.9328 15.5158 24.9675 15.5158 24.9675C15.5158 24.9675 15.5972 24.5887 15.7799 24.402C15.9562 24.222 16.0979 23.8965 16.1075 23.8738C16.0996 23.885 16.0363 23.9794 15.97 24.0384Z" fill="#E6E6E6"/>
<path d="M15.9308 25.0256C15.9303 25.0256 15.93 25.0255 15.9296 25.0256C15.9053 25.0299 15.5552 25.0885 15.3082 25.0389C15.052 24.9874 14.6901 25.1258 14.6901 25.1258C14.6901 25.1258 15.0122 25.327 15.2211 25.3109C15.4726 25.2919 15.917 25.0338 15.9308 25.0256Z" fill="#929292"/>
<path d="M15.7167 25C15.5525 24.9552 15.4186 24.9032 15.2265 24.8726C15.1146 24.8546 14.8509 24.9512 14.7511 25.0492C14.704 25.0835 14.6901 25.1259 14.6901 25.1259C14.6901 25.1259 15.052 24.9875 15.3082 25.0389C15.5552 25.0886 15.9053 25.0299 15.9296 25.0256C15.9158 25.0252 15.8023 25.0235 15.7167 25" fill="#E6E6E6"/>
<path d="M15.4572 24.2563C15.4569 24.2567 15.4566 24.2567 15.4563 24.257C15.4409 24.2763 15.2166 24.5515 14.9985 24.6774C14.772 24.8079 14.5916 25.1507 14.5916 25.1507C14.5916 25.1507 14.9663 25.0893 15.1124 24.9391C15.2889 24.7589 15.4522 24.2716 15.4572 24.2563Z" fill="#929292"/>
<path d="M15.2797 24.3785C15.1268 24.453 14.9917 24.5025 14.8274 24.6062C14.7314 24.6668 14.5971 24.9134 14.5868 25.0528C14.5741 25.1097 14.5917 25.1507 14.5917 25.1507C14.5917 25.1507 14.7721 24.8079 14.9986 24.6774C15.2167 24.5515 15.4411 24.2763 15.4564 24.257C15.4459 24.2657 15.3594 24.3395 15.2797 24.3785" fill="#E6E6E6"/>
<path d="M15.078 25.368C15.0776 25.368 15.0773 25.3679 15.0769 25.3679C15.0521 25.3679 14.6973 25.3647 14.4626 25.2728C14.2194 25.1775 13.8389 25.2507 13.8389 25.2507C13.8389 25.2507 14.121 25.505 14.3295 25.5253C14.5804 25.5505 15.063 25.3738 15.078 25.368Z" fill="#929292"/>
<path d="M14.8716 25.3056C14.718 25.2326 14.595 25.1582 14.4113 25.0947C14.3042 25.0575 14.0276 25.1067 13.9125 25.1857C13.8599 25.2113 13.8389 25.2507 13.8389 25.2507C13.8389 25.2507 14.2194 25.1775 14.4626 25.2727C14.6973 25.3646 15.0521 25.3678 15.0769 25.3678C15.0634 25.3651 14.9519 25.3435 14.8716 25.3056" fill="#E6E6E6"/>
<path d="M14.6198 24.6189C14.6197 24.6192 14.6194 24.6192 14.6191 24.6195C14.6029 24.6336 14.3676 24.8367 14.1601 24.9119C13.9452 24.99 13.7372 25.258 13.7372 25.258C13.7372 25.258 14.0697 25.2621 14.2186 25.1551C14.3982 25.0265 14.6134 24.6313 14.6198 24.6189" fill="#929292"/>
<path d="M14.4482 24.6971C14.305 24.7381 14.181 24.7601 14.0234 24.8246C13.9316 24.862 13.7781 25.0542 13.7481 25.1728C13.7283 25.2199 13.7372 25.258 13.7372 25.258C13.7372 25.258 13.9452 24.9899 14.1601 24.9119C14.3676 24.8367 14.6029 24.6336 14.6191 24.6194C14.6086 24.6253 14.5228 24.6758 14.4482 24.6971Z" fill="#E6E6E6"/>
<path d="M14.2526 25.5938C14.2523 25.5936 14.2523 25.5935 14.2521 25.5933C14.2406 25.5878 14.0766 25.5061 13.9885 25.4106C13.8972 25.3113 13.704 25.2594 13.704 25.2594C13.704 25.2594 13.7775 25.441 13.8697 25.4976C13.9804 25.566 14.2443 25.5929 14.2526 25.5938" fill="#929292"/>
<path d="M14.1708 25.5181C14.1161 25.4496 14.0758 25.3873 14.0049 25.3163C13.9636 25.2748 13.8242 25.2351 13.7528 25.2458C13.7228 25.2458 13.704 25.2594 13.704 25.2594C13.704 25.2594 13.8972 25.3114 13.9885 25.4106C14.0766 25.5061 14.2406 25.5878 14.2521 25.5933C14.2464 25.5891 14.1995 25.5538 14.1708 25.5181" fill="#E6E6E6"/>
<path d="M11.2246 13.1644C8.55748 13.7033 6.53331 15.2942 5.38895 17.2237C4.44622 18.8114 4.31248 20.0882 4.71105 21.6022C6.63675 29.234 9.37145 25.2221 13.0455 28.9409C13.077 28.9734 13.072 29.0148 13.0459 29.0394L12.7666 29.3019C12.7409 29.326 12.6995 29.3277 12.6717 29.299C10.4061 27.0305 8.64863 27.8939 6.84657 26.6364C5.31652 25.5557 4.65428 23.2987 4.23698 21.421C3.83022 19.5803 4.38228 17.9367 5.554 16.3919C5.62408 16.2962 5.84532 16.0334 5.8819 15.9925C7.31948 14.427 8.99804 13.42 11.2246 13.1644Z" fill="#929292"/>
<path d="M3.34708 15.3234C3.34679 15.3247 3.34723 15.3255 3.34694 15.3266C3.3345 15.4033 3.16696 16.5049 3.33406 17.2779C3.50759 18.0795 3.09015 19.2219 3.09015 19.2219C3.09015 19.2219 2.44356 18.2205 2.48453 17.5641C2.53253 16.7737 3.32191 15.3669 3.34708 15.3234" fill="#929292"/>
<path d="M3.43701 15.994C3.58596 16.5068 3.75511 16.925 3.86002 17.5262C3.92162 17.877 3.63074 18.7089 3.32815 19.0266C3.22265 19.1764 3.09009 19.2219 3.09009 19.2219C3.09009 19.2219 3.50753 18.0795 3.334 17.2779C3.1669 16.5049 3.33444 15.4033 3.34688 15.3266C3.34893 15.3701 3.35961 15.7264 3.43701 15.994" fill="#E6E6E6"/>
<path d="M5.03228 16.6543C5.0317 16.6555 5.03214 16.6562 5.03155 16.6575C5.0058 16.7307 4.64527 17.7849 4.67249 18.5755C4.70102 19.395 4.08736 20.4451 4.08736 20.4451C4.08736 20.4451 3.6288 19.345 3.7858 18.7063C3.97323 17.9369 4.9998 16.6925 5.03228 16.6543Z" fill="#929292"/>
<path d="M5.00175 17.3302C5.05735 17.8613 5.14967 18.3029 5.14616 18.9132C5.14441 19.2692 4.71057 20.0365 4.35648 20.2953C4.22611 20.4239 4.0874 20.4451 4.0874 20.4451C4.0874 20.4451 4.70106 19.395 4.67253 18.5755C4.64532 17.7849 5.00584 16.7307 5.03159 16.6575C5.02589 16.7005 4.97322 17.0532 5.00175 17.3302" fill="#E6E6E6"/>
<path d="M1.672 17.4274C1.67244 17.4285 1.67317 17.4287 1.6736 17.4298C1.70184 17.4895 2.11622 18.3421 2.60653 18.8031C3.11514 19.2808 3.37427 20.2828 3.37427 20.2828C3.37427 20.2828 2.43768 19.8935 2.14958 19.4137C1.80163 18.8368 1.67536 17.47 1.672 17.4274" fill="#929292"/>
<path d="M2.05884 17.8538C2.41074 18.1412 2.73132 18.3525 3.09507 18.7231C3.30753 18.939 3.5055 19.6624 3.44668 20.031C3.44521 20.187 3.37425 20.2828 3.37425 20.2828C3.37425 20.2828 3.11512 19.2808 2.60651 18.8031C2.1162 18.3421 1.70182 17.4895 1.67358 17.4298C1.69582 17.4592 1.8755 17.7037 2.05884 17.8538" fill="#E6E6E6"/>
<path d="M1.37952 19.8493C1.38025 19.8501 1.38098 19.8503 1.38171 19.8512C1.42561 19.9053 2.06414 20.6754 2.68219 21.0249C3.32321 21.3871 3.83986 22.3491 3.83986 22.3491C3.83986 22.3491 2.78242 22.1847 2.36687 21.7653C1.86559 21.2612 1.39356 19.8921 1.37952 19.8493Z" fill="#929292"/>
<path d="M1.88286 20.1893C2.31567 20.3956 2.69697 20.5318 3.1627 20.8204C3.43456 20.9887 3.81894 21.6803 3.85113 22.0729C3.88859 22.2329 3.83987 22.3491 3.83987 22.3491C3.83987 22.3491 3.32322 21.3871 2.6822 21.0249C2.06415 20.6754 1.42561 19.9053 1.38171 19.8512C1.41186 19.8758 1.65723 20.0815 1.88286 20.1893" fill="#E6E6E6"/>
<path d="M3.64004 18.9C3.64004 18.9013 3.64077 18.902 3.64077 18.9033C3.64604 18.9835 3.73324 20.135 4.08192 20.8767C4.44376 21.6458 4.28808 22.8966 4.28808 22.8966C4.28808 22.8966 3.40197 22.0359 3.29063 21.3634C3.15513 20.5541 3.62482 18.9497 3.64004 18.9" fill="#929292"/>
<path d="M3.88712 19.5562C4.15693 20.0395 4.42514 20.4223 4.6711 21.0051C4.81478 21.345 4.71485 22.2529 4.48308 22.644C4.41153 22.8197 4.28818 22.8966 4.28818 22.8966C4.28818 22.8966 4.44386 21.6458 4.08202 20.8767C3.73334 20.135 3.64614 18.9835 3.64087 18.9033C3.65287 18.9466 3.7468 19.304 3.88712 19.5562" fill="#E6E6E6"/>
<path d="M1.47742 23.6281C1.47859 23.6287 1.47947 23.6283 1.48064 23.6289C1.55643 23.6558 2.64811 24.032 3.46735 24.0058C4.31688 23.9783 5.40359 24.6168 5.40359 24.6168C5.40359 24.6168 4.2623 25.0893 3.6008 24.9251C2.80394 24.7287 1.51692 23.6619 1.47742 23.6281" fill="#929292"/>
<path d="M2.1778 23.6615C2.7284 23.6051 3.18608 23.5106 3.81847 23.5157C4.18749 23.5184 4.98156 23.9699 5.24888 24.3376C5.38189 24.4731 5.40354 24.6168 5.40354 24.6168C5.40354 24.6168 4.31683 23.9782 3.46731 24.0057C2.64807 24.0319 1.55638 23.6558 1.48059 23.6288C1.52522 23.6348 1.89058 23.6904 2.1778 23.6615" fill="#E6E6E6"/>
<path d="M3.81482 22.4255C3.8154 22.4267 3.81628 22.427 3.81687 22.4282C3.85754 22.4975 4.45204 23.4875 5.09643 23.994C5.76481 24.5191 6.18679 25.7069 6.18679 25.7069C6.18679 25.7069 5.00878 25.3349 4.60757 24.7839C4.1234 24.1215 3.82345 22.4769 3.81482 22.4255Z" fill="#929292"/>
<path d="M4.32989 22.9013C4.78787 23.2121 5.19931 23.434 5.68041 23.8444C5.96134 24.0838 6.27929 24.94 6.24769 25.3934C6.26261 25.5828 6.18682 25.7069 6.18682 25.7069C6.18682 25.7069 5.76484 24.5191 5.09645 23.994C4.45207 23.4875 3.85757 22.4975 3.81689 22.4282C3.84718 22.4615 4.09124 22.7388 4.32989 22.9013" fill="#E6E6E6"/>
<path d="M6.38656 22.1773C6.38656 22.1788 6.3873 22.1794 6.3873 22.1807C6.39359 22.2609 6.49601 23.4111 6.85449 24.1481C7.22643 24.9123 7.08743 26.1651 7.08743 26.1651C7.08743 26.1651 6.19006 25.3162 6.06978 24.6453C5.92361 23.8379 6.37193 22.2274 6.38656 22.1773Z" fill="#929292"/>
<path d="M6.64209 22.8304C6.9182 23.31 7.19152 23.6893 7.44509 24.2685C7.59331 24.6065 7.50537 25.5157 7.27887 25.9099C7.20966 26.0867 7.08734 26.1651 7.08734 26.1651C7.08734 26.1651 7.22634 24.9123 6.8544 24.1481C6.49592 23.4111 6.3935 22.2609 6.38721 22.1807C6.39979 22.2239 6.49841 22.58 6.64209 22.8304Z" fill="#E6E6E6"/>
<path d="M8.14004 23.256C8.14004 23.2573 8.14062 23.2581 8.14077 23.2594C8.14706 23.3396 8.24948 24.4896 8.60796 25.2267C8.97991 25.9909 8.84076 27.2438 8.84076 27.2438C8.84076 27.2438 7.94338 26.3947 7.82326 25.7238C7.67694 24.9164 8.12526 23.3059 8.14004 23.256Z" fill="#929292"/>
<path d="M8.39564 23.909C8.67174 24.3885 8.94506 24.7678 9.19863 25.3472C9.34685 25.6852 9.25892 26.5943 9.03242 26.9884C8.96306 27.1652 8.84074 27.2438 8.84074 27.2438C8.84074 27.2438 8.97989 25.9909 8.60795 25.2267C8.24946 24.4896 8.14704 23.3396 8.14075 23.2594C8.15333 23.3025 8.25181 23.6585 8.39564 23.909" fill="#E6E6E6"/>
<path d="M2.88684 26.2649C2.88816 26.2652 2.88904 26.2647 2.89035 26.265C2.97332 26.2798 4.16625 26.4804 5.00831 26.3122C5.88125 26.1374 7.11428 26.6101 7.11428 26.6101C7.11428 26.6101 6.0163 27.295 5.30446 27.2392C4.44733 27.1737 2.93366 26.293 2.88684 26.2649" fill="#929292"/>
<path d="M3.61641 26.1786C4.17564 26.0257 4.63245 25.8491 5.28679 25.7454C5.66853 25.6846 6.56678 26.0144 6.90639 26.3483C7.06719 26.4652 7.11431 26.6101 7.11431 26.6101C7.11431 26.6101 5.88128 26.1375 5.00834 26.3122C4.16628 26.4805 2.97334 26.2799 2.89038 26.2651C2.9375 26.2637 3.32451 26.258 3.61641 26.1786Z" fill="#E6E6E6"/>
<path d="M6.38721 29.0249C6.38838 29.0246 6.38867 29.0239 6.38984 29.0236C6.457 28.9994 7.41612 28.6436 7.96262 28.1651C8.52902 27.669 9.63226 27.4954 9.63226 27.4954C9.63226 27.4954 9.11605 28.4606 8.57057 28.72C7.91448 29.0333 6.4333 29.0258 6.38721 29.0249Z" fill="#929292"/>
<path d="M6.88577 28.6542C7.23123 28.3062 7.49167 27.984 7.9277 27.6321C8.182 27.4265 8.97973 27.2896 9.36953 27.3913C9.53677 27.4093 9.63232 27.4955 9.63232 27.4955C9.63232 27.4955 8.52907 27.669 7.96267 28.1651C7.41617 28.6437 6.45705 28.9994 6.38989 29.0236C6.42384 29.0027 6.70521 28.8355 6.88577 28.6542Z" fill="#E6E6E6"/>
<path d="M12.2971 11.5554C12.2961 11.5557 12.2958 11.5564 12.2946 11.5568C12.2311 11.5824 11.322 11.9591 10.8142 12.4387C10.2877 12.936 9.23364 13.1426 9.23364 13.1426C9.23364 13.1426 9.69498 12.1964 10.2097 11.9275C10.829 11.6026 12.2528 11.5563 12.2971 11.5554" fill="#929292"/>
<path d="M11.8315 11.9298C11.512 12.2767 11.2733 12.5957 10.867 12.9496C10.63 13.1564 9.86837 13.3169 9.49014 13.2334C9.32875 13.2221 9.23364 13.1426 9.23364 13.1426C9.23364 13.1426 10.2877 12.936 10.8142 12.4387C11.322 11.9591 12.2311 11.5824 12.2946 11.5568C12.2627 11.5781 11.9983 11.7491 11.8315 11.9298" fill="#E6E6E6"/>
<path d="M10.0892 11.0349C10.0886 11.0358 10.0888 11.0367 10.088 11.0375C10.051 11.0952 9.52734 11.9283 9.39053 12.6132C9.24889 13.3235 8.50852 14.1017 8.50852 14.1017C8.50852 14.1017 8.33747 13.063 8.60187 12.5459C8.91894 11.9226 10.0535 11.0612 10.0892 11.0349" fill="#929292"/>
<path d="M9.92608 11.6097C9.86609 12.0776 9.85599 12.4757 9.72913 12.9995C9.65554 13.3053 9.12703 13.8767 8.77016 14.0274C8.63204 14.1116 8.50854 14.1018 8.50854 14.1018C8.50854 14.1018 9.24892 13.3235 9.39055 12.6133C9.52736 11.9283 10.051 11.0952 10.0881 11.0376C10.0744 11.0734 9.95768 11.3657 9.92608 11.6097" fill="#E6E6E6"/>
<path d="M8.31958 11.8567C8.31929 11.8575 8.31958 11.8581 8.31914 11.859C8.30363 11.912 8.08723 12.6752 8.13639 13.236C8.1876 13.8176 7.79108 14.5874 7.79108 14.5874C7.79108 14.5874 7.42353 13.8224 7.51102 13.3626C7.6152 12.8086 8.29793 11.8852 8.31958 11.8567" fill="#929292"/>
<path d="M8.32344 12.3383C8.38299 12.7139 8.46537 13.0243 8.486 13.4583C8.49815 13.7114 8.21868 14.2733 7.97667 14.4706C7.88888 14.5671 7.79114 14.5874 7.79114 14.5874C7.79114 14.5874 8.18766 13.8176 8.13645 13.236C8.08729 12.6752 8.30369 11.912 8.3192 11.859C8.31672 11.8899 8.29272 12.1424 8.32344 12.3383" fill="#E6E6E6"/>
<path d="M11.9159 13.7039C11.915 13.7041 11.9146 13.7046 11.9135 13.7049C11.8557 13.7197 11.0274 13.9415 10.534 14.2978C10.0225 14.6674 9.08826 14.7256 9.08826 14.7256C9.08826 14.7256 9.59467 13.9608 10.0702 13.7872C10.6422 13.5772 11.8775 13.6995 11.9159 13.7039" fill="#929292"/>
<path d="M11.4709 13.9743C11.1553 14.2375 10.9127 14.4858 10.5213 14.7452C10.293 14.8968 9.61662 14.9486 9.2994 14.8332C9.16127 14.8051 9.08826 14.7256 9.08826 14.7256C9.08826 14.7256 10.0225 14.6674 10.534 14.2978C11.0274 13.9415 11.8557 13.7197 11.9135 13.7049C11.8835 13.7195 11.6357 13.8372 11.4709 13.9743" fill="#E6E6E6"/>
<path d="M9.38717 13.1928C9.38643 13.1937 9.38643 13.1944 9.3857 13.1951C9.3459 13.2469 8.7817 13.9965 8.5969 14.6361C8.40537 15.2995 7.63968 15.9794 7.63968 15.9794C7.63968 15.9794 7.56038 14.9789 7.85301 14.5089C8.20418 13.9424 9.35117 13.2149 9.38717 13.1928Z" fill="#929292"/>
<path d="M9.18607 13.7257C9.09155 14.1654 9.04999 14.5428 8.88758 15.0303C8.79305 15.3148 8.24524 15.8153 7.89422 15.9297C7.75624 15.9987 7.63977 15.9795 7.63977 15.9795C7.63977 15.9795 8.40546 15.2995 8.59699 14.6361C8.78179 13.9966 9.34599 13.247 9.38579 13.1952C9.36999 13.2281 9.23567 13.4966 9.18607 13.7257" fill="#E6E6E6"/>
<path d="M9.88309 15.3816C9.88206 15.3818 9.88177 15.3826 9.88075 15.383C9.82105 15.4098 8.96903 15.8022 8.50301 16.2778C8.01987 16.771 7.02344 17.0067 7.02344 17.0067C7.02344 17.0067 7.42786 16.0883 7.90837 15.813C8.48618 15.4808 9.8408 15.3839 9.88309 15.3816" fill="#929292"/>
<path d="M9.45335 15.7554C9.16174 16.0977 8.94621 16.4103 8.57208 16.7625C8.35406 16.9683 7.63446 17.1493 7.27101 17.0837C7.11679 17.0789 7.02344 17.0067 7.02344 17.0067C7.02344 17.0067 8.01987 16.771 8.50301 16.2778C8.96903 15.8022 9.82105 15.4098 9.88075 15.383C9.85119 15.4044 9.60552 15.5771 9.45335 15.7554" fill="#E6E6E6"/>
<path d="M6.06469 13.2556C6.06454 13.2571 6.06527 13.2577 6.06513 13.2591C6.06308 13.3408 6.04698 14.5138 6.3326 15.296C6.62889 16.1071 6.35806 17.3588 6.35806 17.3588C6.35806 17.3588 5.5394 16.4073 5.48775 15.7168C5.42396 14.8856 6.04464 13.3046 6.06469 13.2556Z" fill="#929292"/>
<path d="M6.25495 13.9421C6.48423 14.4556 6.72098 14.8673 6.9169 15.4794C7.03146 15.8362 6.84798 16.7459 6.57817 17.1208C6.48965 17.2923 6.35796 17.3588 6.35796 17.3588C6.35796 17.3588 6.6288 16.1071 6.3325 15.296C6.04689 14.5138 6.06298 13.3408 6.06503 13.2591C6.07322 13.304 6.13585 13.6742 6.25495 13.9421" fill="#E6E6E6"/>
<path d="M7.76139 14.7676C7.76066 14.7688 7.76095 14.7697 7.76022 14.7709C7.72086 14.8425 7.16646 15.8764 7.06009 16.7024C6.94991 17.5588 6.13331 18.5453 6.13331 18.5453C6.13331 18.5453 5.84447 17.324 6.11633 16.687C6.44233 15.9197 7.72101 14.8019 7.76139 14.7676Z" fill="#929292"/>
<path d="M7.61461 15.4647C7.58168 16.0261 7.60232 16.5006 7.49463 17.134C7.43215 17.5036 6.85053 18.2269 6.4385 18.4354C6.28106 18.5469 6.13342 18.5453 6.13342 18.5453C6.13342 18.5453 6.95003 17.5588 7.06021 16.7024C7.16658 15.8764 7.72098 14.8425 7.76034 14.7709C7.74688 14.8146 7.63202 15.1721 7.61461 15.4647" fill="#E6E6E6"/>
<path d="M8.65142 17.3588C8.65054 17.3594 8.6504 17.3602 8.64952 17.361C8.59479 17.4066 7.8174 18.0702 7.46931 18.7067C7.10864 19.3668 6.13342 19.9088 6.13342 19.9088C6.13342 19.9088 6.28589 18.8261 6.70846 18.3953C7.21604 17.8759 8.60797 17.3737 8.65142 17.3588" fill="#929292"/>
<path d="M8.31138 17.8779C8.10682 18.323 7.97338 18.7147 7.68528 19.1946C7.51745 19.4748 6.81629 19.8775 6.41582 19.9161C6.25267 19.9568 6.13342 19.9088 6.13342 19.9088C6.13342 19.9088 7.10864 19.3669 7.46931 18.7067C7.8174 18.0702 8.59479 17.4066 8.64952 17.361C8.62479 17.3921 8.41834 17.6459 8.31138 17.8779" fill="#E6E6E6"/>
<path d="M5.19922 17.0068C5.19937 17.0078 5.19995 17.0082 5.20025 17.0091C5.21444 17.0681 5.42704 17.9119 5.78128 18.4179C6.14868 18.9424 6.19375 19.8913 6.19375 19.8913C6.19375 19.8913 5.42528 19.3659 5.25629 18.881C5.05159 18.2973 5.19425 17.0457 5.19922 17.0068" fill="#929292"/>
<path d="M5.46718 17.4624C5.72953 17.7865 5.97783 18.0364 6.2352 18.4375C6.38562 18.6714 6.42805 19.3584 6.30632 19.6785C6.27559 19.8183 6.19395 19.8913 6.19395 19.8913C6.19395 19.8913 6.14888 18.9424 5.78147 18.4179C5.42723 17.9119 5.21463 17.0681 5.20044 17.0091C5.21492 17.0398 5.33052 17.2931 5.46718 17.4624Z" fill="#E6E6E6"/>
<path d="M7.74683 19.5843C7.74595 19.5849 7.74595 19.5856 7.74507 19.5862C7.69957 19.6263 7.05225 20.2078 6.76971 20.757C6.47693 21.3267 5.65857 21.8088 5.65857 21.8088C5.65857 21.8088 5.76509 20.884 6.11538 20.5084C6.53619 20.0553 7.70996 19.598 7.74683 19.5843Z" fill="#929292"/>
<path d="M7.46853 20.0335C7.30407 20.4167 7.19872 20.7529 6.96388 21.1676C6.82707 21.4098 6.23901 21.7675 5.89897 21.8091C5.76114 21.8471 5.65857 21.8088 5.65857 21.8088C5.65857 21.8088 6.47693 21.3267 6.76971 20.757C7.05225 20.2078 7.69957 19.6263 7.74507 19.5862C7.72474 19.6134 7.55457 19.8338 7.46853 20.0335" fill="#E6E6E6"/>
<path d="M5.75029 19.3312C5.74986 19.3325 5.75044 19.3334 5.75 19.3347C5.73127 19.4161 5.4739 20.5859 5.59871 21.4269C5.72849 22.299 5.20013 23.495 5.20013 23.495C5.20013 23.495 4.57711 22.3752 4.66739 21.674C4.77449 20.8296 5.72015 19.3761 5.75029 19.3312" fill="#929292"/>
<path d="M5.79966 20.0569C5.9233 20.6176 6.07547 21.0779 6.14556 21.7302C6.18697 22.1108 5.81635 22.983 5.46942 23.3023C5.34578 23.4555 5.2002 23.495 5.2002 23.495C5.2002 23.495 5.72855 22.299 5.59877 21.4269C5.47396 20.5859 5.73133 19.4161 5.75006 19.3347C5.74904 19.3814 5.73557 19.7644 5.79966 20.0569" fill="#E6E6E6"/>
<path d="M15.7576 23.0944H11.7239V22.2456C13.1056 21.2456 14.1633 20.3459 14.1633 19.5886C14.1633 18.6665 12.9525 18.6523 11.9688 19.3195H11.8585V18.1772C12.9031 17.7214 15.5194 17.4683 15.5194 19.4092C15.5194 20.5016 14.499 21.3573 13.4491 22.1108H15.7576V23.0944" fill="#E6E3E3"/>
</svg>
