<svg width="1043" height="199" viewBox="0 0 1043 199" fill="none" xmlns="http://www.w3.org/2000/svg">
<g filter="url(#filter0_b_709_936)">
<ellipse cx="521.5" cy="99.5" rx="521.5" ry="99.5" fill="#D9D9D9" fill-opacity="0.03"/>
<path d="M1009.77 92.6721C1009.77 92.6719 1009.75 92.6996 1009.7 92.7552C1009.74 92.7 1009.76 92.6722 1009.77 92.6721ZM987.626 92.6743C993.143 95.1627 997.488 97.466 1000.85 99.5C997.488 101.534 993.143 103.837 987.626 106.326C964.892 116.581 929.797 126.682 883.697 135.477C792.073 152.959 663.998 164 521.5 164C379.002 164 250.927 152.959 159.303 135.477C113.203 126.682 78.1083 116.581 55.3738 106.326C49.8575 103.837 45.5118 101.534 42.1503 99.5C45.5118 97.466 49.8575 95.1627 55.3738 92.6743C78.1083 82.419 113.203 72.3184 159.303 63.5227C250.927 46.0412 379.002 35 521.5 35C663.998 35 792.073 46.0412 883.697 63.5227C929.797 72.3184 964.892 82.419 987.626 92.6743ZM33.2348 92.6721C33.2364 92.6721 33.2589 92.6998 33.2977 92.7552C33.2527 92.6997 33.2333 92.6721 33.2348 92.6721ZM33.2348 106.328C33.2333 106.328 33.2527 106.3 33.2977 106.245C33.2589 106.3 33.2364 106.328 33.2348 106.328ZM1009.7 106.245C1009.75 106.3 1009.77 106.328 1009.77 106.328C1009.76 106.328 1009.74 106.3 1009.7 106.245Z" stroke="url(#paint0_radial_709_936)" stroke-width="70"/>
</g>
<ellipse cx="76.3494" cy="59.6723" rx="30.5" ry="4" transform="rotate(-16.8567 76.3494 59.6723)" fill="white"/>
<ellipse cx="956.895" cy="146.202" rx="10.7216" ry="2.18637" transform="rotate(-16.8567 956.895 146.202)" fill="white"/>
<ellipse cx="1015.72" cy="75.2127" rx="10.7216" ry="2.18637" transform="rotate(23.0693 1015.72 75.2127)" fill="white"/>
<defs>
<filter id="filter0_b_709_936" x="-21.9" y="-21.9" width="1086.8" height="242.8" filterUnits="userSpaceOnUse" color-interpolation-filters="sRGB">
<feFlood flood-opacity="0" result="BackgroundImageFix"/>
<feGaussianBlur in="BackgroundImageFix" stdDeviation="10.95"/>
<feComposite in2="SourceAlpha" operator="in" result="effect1_backgroundBlur_709_936"/>
<feBlend mode="normal" in="SourceGraphic" in2="effect1_backgroundBlur_709_936" result="shape"/>
</filter>
<radialGradient id="paint0_radial_709_936" cx="0" cy="0" r="1" gradientUnits="userSpaceOnUse" gradientTransform="translate(521 99.9502) rotate(-0.0494185) scale(522 99.5954)">
<stop offset="0.914571" stop-color="white" stop-opacity="0"/>
<stop offset="0.978435" stop-color="white" stop-opacity="0.31"/>
<stop offset="1" stop-color="white" stop-opacity="0.71"/>
</radialGradient>
</defs>
</svg>
